/* XPM */
static char *result[] = {
/* columns rows colors chars-per-pixel */
"48 48 215 2 ",
"   c #6E0101",
".  c #660E07",
"X  c #720102",
"o  c #7C0101",
"O  c #730A07",
"+  c #760B0C",
"@  c #661509",
"#  c #741206",
"$  c #780F10",
"%  c #7D1618",
"&  c #5B3216",
"*  c #65230E",
"=  c #6A2812",
"-  c #413D3F",
";  c #69491D",
":  c #765018",
">  c #495326",
",  c #655522",
"<  c #79582C",
"1  c #5B672A",
"2  c #727329",
"3  c #697A36",
"4  c #777837",
"5  c #595556",
"6  c #7A6D49",
"7  c #6D6A6B",
"8  c #850301",
"9  c #8B0500",
"0  c #8A0B08",
"q  c #920A01",
"w  c #9A170B",
"e  c #841B1C",
"r  c #A11602",
"t  c #862815",
"y  c #AC250F",
"u  c #872829",
"i  c #982825",
"p  c #903730",
"a  c #923A3C",
"s  c #AB3425",
"d  c #CE0F15",
"f  c #C31415",
"g  c #D91B1C",
"h  c #CD251C",
"j  c #D6231D",
"k  c #D62725",
"l  c #DA2424",
"z  c #CF3123",
"x  c #DA393A",
"c  c #895E19",
"v  c #BA472D",
"b  c #AF592F",
"n  c #B34231",
"m  c #99753E",
"M  c #CD572B",
"N  c #994648",
"B  c #9D5254",
"V  c #A95755",
"C  c #B85E53",
"Z  c #BD695F",
"A  c #9E7D6C",
"S  c #A86566",
"D  c #B96F6C",
"F  c #B27778",
"G  c #DA4C47",
"H  c #E04849",
"J  c #E25859",
"K  c #CB7756",
"L  c #E67546",
"P  c #CF6164",
"I  c #C97566",
"U  c #E46D6D",
"Y  c #E37576",
"T  c #678634",
"R  c #748D37",
"E  c #61963B",
"W  c #73963B",
"Q  c #5F9D42",
"!  c #63AB45",
"~  c #77AA46",
"^  c #6EB746",
"/  c #6FB847",
"(  c #64B74B",
")  c #68B749",
"_  c #65B94C",
"`  c #75B644",
"'  c #7BB742",
"]  c #75B844",
"[  c #7ABA44",
"{  c #77BC4A",
"}  c #67B952",
"|  c #77C34E",
" . c #7BC64F",
".. c #7FCA4F",
"X. c #938832",
"o. c #A79C22",
"O. c #AB9330",
"+. c #97A62F",
"@. c #88AA38",
"#. c #85B63D",
"$. c #8AB73B",
"%. c #83B93F",
"&. c #8BB93C",
"*. c #9DB633",
"=. c #9DB834",
"-. c #91B638",
";. c #91B738",
":. c #B4A723",
">. c #BCAD21",
",. c #AEB72D",
"<. c #B9B727",
"1. c #B3B52A",
"2. c #B4BB2C",
"3. c #A4B733",
"4. c #A6BB33",
"5. c #C4B522",
"6. c #C3BB25",
"7. c #CBBB22",
"8. c #C4BB2B",
"9. c #C6B831",
"0. c #AAC43B",
"q. c #8D9845",
"w. c #9BA648",
"e. c #84B942",
"r. c #9BBA49",
"t. c #B3AB4F",
"y. c #BEBE46",
"u. c #91A56A",
"i. c #AAB279",
"p. c #C99B4F",
"a. c #C7B24E",
"s. c #D9A654",
"d. c #EDAD55",
"f. c #F6BD5E",
"g. c #F8BE5E",
"h. c #C7B775",
"j. c #99CD49",
"k. c #97D44E",
"l. c #80CB50",
"z. c #8CD052",
"x. c #9AD651",
"c. c #9BD852",
"v. c #B0D24A",
"b. c #A9CA55",
"n. c #BBC65A",
"m. c #8FC877",
"M. c #A9D070",
"N. c #C6C14A",
"B. c #CFC755",
"V. c #C8D557",
"C. c #F0C15E",
"Z. c #D2CA6D",
"A. c #F7C77D",
"S. c #878485",
"D. c #9A989A",
"F. c #BB8586",
"G. c #A09E9F",
"H. c #B6B794",
"J. c #A9A7A8",
"K. c #BDB9A7",
"L. c #BEBDBD",
"P. c #CB8C85",
"I. c #D1948B",
"U. c #C69A97",
"Y. c #E48B87",
"T. c #EB9B9B",
"R. c #D7A29A",
"E. c #C89EA0",
"W. c #CAA7A7",
"Q. c #D7ABA6",
"!. c #C0BFBF",
"~. c #D7B6B5",
"^. c #D8BCBD",
"/. c #EDACAC",
"(. c #E6BBB6",
"). c #97CF89",
"_. c #B4CF90",
"`. c #D1D590",
"'. c #DAD799",
"]. c #E9D993",
"[. c #D8EE8F",
"{. c #C8E692",
"}. c #C3DEB0",
"|. c #E4C5B9",
" X c #EAD8BC",
".X c #CCE8B3",
"XX c #E5E2B5",
"oX c #EDBFC0",
"OX c #C8C7C7",
"+X c #DDC5C6",
"@X c #DCDFCA",
"#X c #EACAC5",
"$X c #E2CCCC",
"%X c #E9D2CE",
"&X c #E2CFD0",
"*X c #E5D5D5",
"=X c #E9DBD9",
"-X c #F2D6D6",
";X c #D8E4C4",
":X c #EBE9CB",
">X c #EBEDDA",
",X c #ECF0DF",
"<X c #F1F1D0",
"1X c None",
"2X c None",
"3X c None",
"4X c None",
"5X c None",
"6X c None",
"7X c None",
"8X c None",
"9X c None",
"0X c None",
"qX c None",
"wX c None",
/* pixels */
"7X7X8X8X8X7X7X7X7X7X7X7X7X9X7X9X7X7X7X7X7X7X7X7X7X7X7X7X9X7X7X7X7X7X7X7X7X7X8X7X0X7X7X7X7X7X7X7X",
"7X7X8X8X8X7X7X7X7X7X7X7X8X7X7X7X7X8X7X7X9X7X7X7X7X7X7X7X7X7X7X7X7X7X7X7X7X7X7X7X7X7X7X7X7X7X7X7X",
"7X7X7X8X9X7X8X7X7X7X8X8X7X7X7X7X9X0X0X0X9X9X7X8X7X0X8X7X9X7X8X7X7X7X7X7X7X7X7X7X7X7X7X7X7X8X7X7X",
"7X7X7X8X7X7X7X7X8X7X7X8X7X7X7X7X9X3X*X&X*X1X6X0X0X0X7X8X7X7X7X7X7X7XwX7X7X7X7X7X7X8X7X7X0X7X7X7X",
"7X7X7X9X9X0X7X7X8X8X8X8X7X7XwXwX1XB % % % a B P.#X6XwX8X7X8X7X7X7X7X7X7X7X7X7X7X7X7X7X7X7X7X7X7X",
"7X7X7X9X0X0XwXwXwXwX8X8X7X7X7XwX~.          X o e V ~.7X0X8X7X7X7X7X7X7X7X7X8X7X7X0X7X7X0X7X7X7X",
"7X7X7X7X$XW.E.W.^.=X7XwX7X7X7XwXU.        X X o 9 9 w Z *X0X9X7X7X7X0X7X7X7X7X7X7X7X7X7X7X7X7X7X",
"7X7X7XF % O O o 0 i D $X8X8X0XwXW..       X o o 9 9 q w n (.0X8X8X7X7X7X7X7X7X0X7X7X7X8X7X7X8X7X",
"7X0X$X%     . * O # & p R.8X8XwX!.1 @     X X o 0 N w s Z s (.wX8X7X8X7X7X7X7X7X7X7X7X7X7X7X7X7X",
"7X9X^.$   O @ R R 1 ! 2 t I.7XwXH.e.; X   X o o 8 C C w I.I v -XwX8X7X7X7X7X7X7X0X7X7X7X0X7X7X7X",
"0X0X^.$ % $   2 ..( ) ] 2 < K.qXH.j.3     X X 8 8 i Q.s s %XI K 3X8X7X7X7X7X7X7X7X7X7X7X7X7X7X7X",
"8X0X^.+ B u   @ ! | ) ] @.+.q.=XH.k.W & & X o o 8 9 I.I.r I.2XR.=XwX7X7X7X7X8X7X7X7X7X7X7X7X7X7X",
"8XwX^.$ S p $ O , ) ) ] #.=.o.H._.k.] ! E @ o o 8 8 C *Xs v 6XwX7X7X7X7X7X7X7X7X7X7X7X7X7X7X7X7X",
"0XwX+X$ S a a u * Q ) ` &.*.1.t.i.j. ._ ! = o o 8 8 s =XI y #XwX7X7X7X7X7X7X7X7X7X7X7X7X7X7X7X9X",
"8X0X*X% S B u a e 3 ) ] $.*.1.1.w.x. ._ ) ; X 8 8 9 w #X%Xn #XwX7X7X7X7X0X7X7X7X7X7X7X7X7X7X8X7X",
"8X0X1Xu S F % S N 6 ! ] $.*.1.1.*.x. ._ ) , X O 8 9 q R.8X#X2X0X7X7X7X7X7X7X7X7X7X0X7X7X7X9X7X7X",
"7X7X6XN F ^.% U.~.A E ] $.*.,.<.+.c.l.} ) T 2 , # q q P.0X0X0X0X7X7X7X7X8X7X7X7X7X7X7X7X7X7X7X8X",
"7X7XqXF.F.7XS U.wXH.T ] $.*.1.1.3.c. .} ) ` &.*.: 9 9 h.0X0X9X9X7X7X7X7X7X7X7X7X7X7X8X8X7X7X8X8X",
"7X7XqX=X*XwX=X&XwX~.4 ] &.*.1.<.4.x. ._ ) ` $.=.c q q I.0X7X9X9X7X7X8X7X7X7X7X7X8X8X8X8X7X7X7X7X",
"7X7X7X7XqXqXwX8X0X#X4 ` $.*.1.1.y.x. ._ ) ' $.=.c # t R.wX9X9X9X7X0X7X7X0X7X7X7X7X8X8X8X7X7X7X7X",
"7X7X7X7XwX6X.X{.{._.~ ] &.*.,.1.0.x. ._ ) ] $.*.X.o.m &X0X8X8X8X7X7X7X7X7X7X7X7X7X9X7X7X7X7X7X7X",
"7X7X7X9X8X[.V.V.x.l...[ &.=.1.<.v.c. ._ ) [ $.*.1.<.h.6X0X0X8X8X7X7X7X7X7X7X7X7X7X7X7X0X7X7X7X0X",
"7XqX7X9X<Xa.p.f.B.z.l. .) ' ;.&.j.x. ._ ) ] $.3.1.<.XX0X7X7X8X7X7X7X0X7X7X7X0X7X7X7X7X7X7X7X7X7X",
"7X7X7X7X].m < C.C.b...| | | _ ( ^ { | ) ) ` $.*.1.1.:X0X7X7X7X7X7X7X7X7X7X7X7X7X7X7X7X7X7X7X7X7X",
"7X7X0X7XA.s.s.g.g.n.l.| | ) ( ( ( ) ^ ^ ^ ' $.*.,.y.>X7X7X7X7X7X7X7X7X7X7X0X7X7X7X7X7X7X7X7X0X7X",
"7X7X0X(.L d.g.g.g.n...| | ) ( ( ( ) ^ ] ` ' #.*.1.y.5X7X7X7X7X7X7X7X7X7X7X7X7X7X8X7X7X7X7X7X7X7X",
"7X7X7XP f L g.g.f.b...| | _ ( ( ( ) ] %.;.=.4.4.,.y.5X7X7X7X7X7X7X7X7X0X7X7X7X7X7X7X7X7X7X7X7X7X",
"7XqX=Xx d k d.C.B.k.l.| _ _ ( ( / &.4.6.7.7.7.7.5.8.'.7XwX7X7X7X7X7X7X7X7X7X7X7X0X7X7X7X7X8X7X8X",
"8XwX%Xh d h n.v.c.z...| | %.#.0.<.7.7.7.7.7.7.7.5.7.9.Z.>XwX8X8X7X7X7X7X7X7X8X7X7X7X7X7X7X7X7X7X",
"8X0X-XY Y Y.{.V.v.0.0.0.<.0.7.7.7.7.7.7.2.2.2.<.7.7.7.7.N.XX7X8X7X7X7X7X7X0X7X7X7X7X7X7X7X7X7X7X",
"8X8X8X8XqXqXqX5XXX].B.B.7.6.6.6.<.4.;.l.' %.$.$.3.5.5.5.5.5.`.6X0X0X7X7X7X7X7X7X7X7X7X8X7X7X7X7X",
"8X8X7X7X7XqXqXqXwXwXwX,XM.[ ] ] ] ^ ^ ` ' ' #.$.-.,.7.5.5.5.5.Z.<XwX7X7X7X7X7X7X7X7X7X7X7X7X8X7X",
"7X7X7X7X7X7X7X7X7X7X7X0X4X).( ( ( ) ^ ` ' ' #.$.-.3.5.5.5.5.>.>.a.XX7X0X7X7X7X7X7X8X7X7X9X7X7X7X",
"7X7X7X7X7X9X7X7X8X7X7X7X0X4X).( ( ) ^ ` ` e.#.$.-.3.6.7.5.5.5.>.>.>.'.6X0X0X7X7X8X8X7X7X7X7X7X0X",
"7X7X7X7X7X7X7X7X7X7X7X7XqX9X9X}.m.( ^ { ' ' #.$.$.*.<.5.9.9.>.>.>.:.:.h.4X0X0X0X8X8X8X7X7X7X7X7X",
"7X7X8X7X7X8X7X7X9X7X7X7XqXqXqXqX1X}.).{ ' e.#.$.-.=.B.].:X Xa.1.<.:.:.o.t.@X9X0X8X8X7X7X7X7X7X7X",
"7X7X7X7X7X7X7X7X7X7X7X7X9X9X9X9X9X9X6X>X.X}.M.$.-.r.@X7X7X7X#XK O.e.@.@.' e._.3X0X8X8X8X7X7X7X7X",
"7X7X7X9X7X7X7X7X7X7X9X7X9X9X7X9X9X7X9X9X0X7X4Xu.> > 5 L.7X7X8XoXG b q.! ) ^ e.M.;X8X0X0X7X7X0X7X",
"7X7X8X7X7X7X7X7X7X7X7X7X7X7X7X7X7X7X9X9X0X9XwXD.5 - 7 OX7X7X7X7X%XH h b X./ ] e.r.`.5X0X8X8X7X7X",
"7X7X7X7X7X8X7X9X7X7X7X7X7X7X7X9X7X7X7X9X9X9XwXG.G.S.7 7X7X7X7X7XwX-XJ g h v X.@.$.;.n.|.3X8X8X7X",
"7X7X7X7X7X7X7X7X7X7X7X7X7X7X7X7X7X7X7X7X7X7X8XOXS.L.7 1X8X7X7X7X0XwX2XJ g g j z b O.:.M J /.3X0X",
"7X7X7X7X7X7X7X7X7X7X7X7X9X7X7X7X7X7X9X7X7X7X7X7XJ.OXL.!.8X7X7X7X0X8XwX-XU l j g l l j g g l U 3X",
"qX7X7X7X7X7X9X7X9X7X7X7X9X7X7X7X7X7X7X7X7X7X7X8X0X6X7X4X7X7X7X7X7X7X7X0X6XY.l g H T.U x l g x -X",
"7X7X7X7X9X7X7X7X7X7X7X7X7X7X7X7X7X7X7X9X7X7X8X8X9X9X7X7X7X7X7X7X7X7X0X0X0X0X/.x l /.7X-X(.T./.3X",
"7X7X7X7X7X7X7X7X7X7X7X7X7X7X7X7X7X7X7X7X7X7X9X7X9X9X9X9X7X7X7XqX7X7X8X7X7X0X8X-XY Y 6X8XwXwXwX0X",
"7X7X7X7X7X7X7X7X7X9X7X7X7X7X7X7X7X7X7X7X7X7X7X7X9X9X9X9X7X7X7X7X7X7X7X7X7X7X0X8X7X3X0X7X0X0X0X0X",
"7XqX7X7X7X7X7X7X7X7X7X7X7X7X7X7X7X7X7X7X7X7X7X7X7X7X9X9X7X7X7X7X7X0X7X7X7X7X7X7X0X0X7X7X7X7X0X7X",
"7X7X7X7X9X7X7X7X7X7X7X7X7X7X9X7X7X7X9X7X7X7X7X7X7X7X7X9X7X7X7X7X7X7X7X7X7X7X7X7X7X7X7X7X7X7X7X7X"
};
