/* XPM */
static char *result[] = {
/* columns rows colors chars-per-pixel */
"48 48 202 2 ",
"   c #6E0101",
".  c #700102",
"X  c #770C0D",
"o  c #71130D",
"O  c #7B1314",
"+  c #7D1A19",
"@  c #66230E",
"#  c #7C5420",
"$  c #70702F",
"%  c #737B44",
"&  c #6E6B6C",
"*  c #8E0B03",
"=  c #900700",
"-  c #950B00",
";  c #990F00",
":  c #8C1605",
">  c #9E1200",
",  c #991A05",
"<  c #A31500",
"1  c #A81700",
"2  c #A41A05",
"3  c #AB1A00",
"4  c #B01A00",
"5  c #922A0A",
"6  c #8D360F",
"7  c #AB230C",
"8  c #B42709",
"9  c #AD2913",
"0  c #A92C1A",
"q  c #B32E14",
"w  c #B63419",
"e  c #842324",
"r  c #882C2D",
"t  c #8E3637",
"y  c #913B3C",
"u  c #AC3B2D",
"i  c #B93C23",
"p  c #CC0E14",
"a  c #CF331E",
"s  c #DA1F20",
"d  c #D82826",
"f  c #CD3A34",
"g  c #8B5517",
"h  c #BD472B",
"j  c #BC4D38",
"k  c #837628",
"l  c #916B30",
"z  c #A77A38",
"x  c #C64526",
"c  c #CA502F",
"v  c #C24C32",
"b  c #E15F37",
"n  c #D73F43",
"m  c #98484A",
"M  c #9F5456",
"N  c #B75143",
"B  c #BD5745",
"V  c #A25A5B",
"C  c #B45952",
"Z  c #A55F61",
"A  c #A96769",
"S  c #B76963",
"D  c #B07475",
"F  c #B27879",
"G  c #DD4748",
"H  c #C45C45",
"J  c #E15A5A",
"K  c #C96948",
"L  c #C56C5C",
"P  c #CA6E5A",
"I  c #C77465",
"U  c #C97D72",
"Y  c #E47476",
"T  c #7A9A3C",
"R  c #7DB33C",
"E  c #7AA942",
"W  c #69B646",
"Q  c #63B74B",
"!  c #69B749",
"~  c #6CB449",
"^  c #65B94C",
"/  c #6CBD4D",
"(  c #74B644",
")  c #7EB841",
"_  c #78A961",
"`  c #73C24E",
"'  c #7AC54E",
"]  c #79C950",
"[  c #BD961B",
"{  c #BBAC1F",
"}  c #938E2C",
"|  c #96952B",
" . c #A88D2A",
".. c #87A938",
"X. c #94A631",
"o. c #8AB73B",
"O. c #82B83E",
"+. c #8AB83B",
"@. c #97B836",
"#. c #AEA726",
"$. c #B7AC24",
"%. c #ACB82D",
"&. c #BDB827",
"*. c #B6B629",
"=. c #BBAF3C",
"-. c #A2B631",
";. c #A5BA31",
":. c #B2B638",
">. c #C6B61F",
",. c #C39A30",
"<. c #C4B522",
"1. c #C5BB25",
"2. c #CABC22",
"3. c #C6B628",
"4. c #CBBE3A",
"5. c #AEC035",
"6. c #899052",
"7. c #88B14E",
"8. c #83BB4A",
"9. c #B0B34E",
"0. c #AD9273",
"q. c #84A86C",
"w. c #99A979",
"e. c #D09E4D",
"r. c #D2AB55",
"t. c #CCBA54",
"y. c #EFB459",
"u. c #F6BC5D",
"i. c #F9BD5E",
"p. c #CD877A",
"a. c #D58A79",
"s. c #95CD4F",
"d. c #B7C756",
"f. c #A8DA55",
"g. c #A9E153",
"h. c #B2E253",
"j. c #89C56C",
"k. c #B8CC6F",
"l. c #BAE47D",
"z. c #CCC458",
"x. c #C8D25C",
"c. c #E8C35D",
"v. c #D0CC6D",
"b. c #8B8986",
"n. c #969495",
"m. c #BA8688",
"M. c #BEBDBD",
"N. c #D48B87",
"B. c #D49589",
"V. c #C39798",
"C. c #D79D92",
"Z. c #EB9E9E",
"A. c #DAB883",
"S. c #DCA59A",
"D. c #C89FA0",
"F. c #CAA4A5",
"G. c #DBAAA0",
"H. c #DDB2AA",
"J. c #D9B8B6",
"K. c #ECAEAF",
"L. c #E7B2AB",
"P. c #E6B9B3",
"I. c #A9D08A",
"U. c #BAD58D",
"Y. c #C7D099",
"T. c #DAD795",
"R. c #F6C793",
"E. c #E1DCA8",
"W. c #E6C4BC",
"Q. c #D0E2BE",
"!. c #E8E3B7",
"~. c #D9BFC0",
"^. c #C5C4C5",
"/. c #DAC8C9",
"(. c #DCDCD7",
"). c #E6CBC6",
"_. c #F0C2C3",
"`. c #F1CACA",
"'. c #ECD4CF",
"]. c #EBD6D3",
"[. c #E8D8D6",
"{. c #EBDDDC",
"}. c #F3DEDD",
"|. c #CAE3C1",
" X c #DCE6C8",
".X c #EAEACC",
"XX c #F5ECCD",
"oX c #E7E5D9",
"OX c #F0E2DF",
"+X c #ECE3E3",
"@X c #E9E8E7",
"#X c #F3E4E4",
"$X c #F2E9E6",
"%X c #F3EDEC",
"&X c #ECF2E8",
"*X c None",
"=X c None",
"-X c None",
";X c None",
":X c None",
">X c None",
",X c None",
/* pixels */
"-X-X-X-X-X-X-X-X-X-X-X-X-X-X-X-X-X-X-X-X-X-X-X-X-X-X;X-X-X-X-X-X-X-X-X-X-X-X-X-X-X-X-X-X-X-X-X-X",
"-X-X-X-X-X;X-X-X-X-X-X;X-X-X-X-X-X;X-X-X-X-X-X-X-X-X-X-X-X-X-X-X-X-X-X-X-X-X-X-X-X-X-X-X-X-X-X-X",
"-X-X-X-X-X-X-X-X-X-X-X-X-X-X-X-X-X-X-X-X-X-X>X-X-X-X-X-X-X>X-X-X-X-X-X-X-X-X-X-X-X-X-X-X-X-X-X-X",
"-X-X-X-X-X-X-X-X-X-X-X-X-X-X-X-X-X-X-X-X-X-X-X-X-X-X-X-X;X>X-X-X-X-X-X-X-X-X-X-X-X-X-X-X-X-X-X-X",
"-X>X-X-X-X-X-X-X-X;X-X-X-X-X-X-X-X-X-X-X-X-X-X-X-X-X-X>X$X).;X;X-X-X-X-X-X-X-X-X-X-X-X-X-X-X-X-X",
"-X-X-X-X-X:X-X-X-X-X-X-X-X-X;X-X-X-X-X-X>X-X-X-X-X-X-X>X).B +X-X-X-X-X-X-X-X-X-X-X-X-X-X-X-X-X-X",
"-X-X-X-X-X-X-X-X-X-X-X-X-X-X-X-X-X-X-X-X-X-X-X-X-X-X-X>X).0 J.>X-X-X-X-X-X-X-X-X-X-X-X-X-X-X-X-X",
"-X-X-X-X-X-X-X-X-X-X-X-X-X-X-X-X-X-X-X-X-X-X-X-X-X-X-X-X).7 B.,XOXH.-X-X-X-X-X-X-X-X-X-X-X-X-X:X",
"-X:X-X>X-X-X-X-X-X;X-X-X-X-X-X-X-X-X-X-X>X-X-X-X-X-X>X,XJ.2 p.,XL.H %X-X-X-X-X-X-X-X-X-X-X-X-X-X",
"-X>X$X[.;X-X-X-X-X-X-X-X-X-X-X-X-X-X-X-X-X-X-X-X-X-X>X,XG.< p.,XB.i OX-X-X-X-X-X-X-X-X-X-X-X-X-X",
">X,XF.A -X-X;X;X-X-X-X-X-X-X-X-X-X-X-X-X-X-X-X-X-X-X-X>XB.> N.,XU w {.>X-X-X-X-X-X-X-X-X-X-X-X-X",
">X>XD t %X;X;X;X-X-X-X-X-X;X-X-X-X-X-X-X-X-X-X-X-X-X-X>XI > C.-XH w #X>X-X-X-X-X-X-X-X-X-X-X-X-X",
"-X-XA e +XJ./.>X-X-X-X-X;X-X-X-X-X-X-X-X-X-X-X-X-X-X;X=XN > J.OXi v %X>X=X-X-X-X-X-X-X-X-X-X-X-X",
"-X>XA + [.M m.,X;X-X-X-X-X-X-X-X-X-X-X>X-X-X-X-X;X-X>X[.0 9 ].P.3 P ;X$Xa.].,X-X-X-X-X-X,X-X-X-X",
"-X>XF O J.t F ,X{.-X;X;X-X-X-X-X-X-X-X-X;X-X-X-X-X-X>XN.> j +XL 3 C.,XG.x ].,X-X-X-X-X-X-X-X-X-X",
"-X>Xm.O F.+ D {.Z {.;X;X-X-X-X-X-X-X-X-X-X-X-X-X;X>X).0 ; U G.7 w '.%Xv c =X-X-X-X-X,X-X-X-X-X-X",
";X,XV.X V.e A V.y $X:X-X-X-X-X-X-X-X-X-X-X-X-X;X-X-XI ; 2 L u 1 P -XB.q G.,X-X-X-X-X-X-X-X-X-X-X",
";X,XJ.X F e V V M -X-X-X-X-X-X-X-X-X-X-X-X-X-X-X>XH., ; > 2 < 9 W.).w c $X:X-X-X-X-X-X-X-X-X-X-X",
";X>X/.O m + y t D +Xm.+X:X-X-X-X-X-X-X-X-X-X>X>X[.u - > ; < < H W.v 8 P.,X:X:X:X:X-X-X-X-X-X-X-X",
":X>X[.e . . X X m.D V -X>X:X-X-X-X-X-X-X-X>X>X#XC - ; > < < < 9 q 8 a.%X'.-X:X-X-X-X-X-X:X-X-X-X",
":X>X$Xy   . . . m e m.+X%X:X:X-X-X-X-X-X-X>X+XS - - - > < < < 1 3 I OXa.K =X-X-X-X-X-X-X-X-X-X-X",
";X-X;XM     . .   . y r ~.:X;X;X;X-X-X-X:X+XS = - - - > ; < < 1 i G.P 8 a.-X:X-X-X-X-X-X-X:X-X-X",
"-X-X>Xm.        . .   O /.:X;X;X-X-X-X;X(.6.k # : - ; > < < < 1 9 q 4 v ].,X-X-X-X-X-X-X-X-X-X-X",
"-X-X:X/.O k #         r (.;X-X;X-X-X-X-Xw...@.} : - ; > > < < 3 3 3 x W.>X-X-X-X-X-X-X-X-X-X-X-X",
"-X-X;X%X0.h.h.k $ $ o . t D.-X;X-X-X-XoX7.o.X.6 - - ; > > < < 3 3 8 a.%X>X>X-X-X-X-X-X-X-X-X-X-X",
"-X-X-X:XoXk.h.g.f.f.T @   X F.;X@X@X%X(.E o.X.5 - - ; > > < < 1 3 3 h ].>X:X-X-X-X-X-X-X-X-X-X-X",
"-X-X-X-X;XoXY.x.c.c.d.E $ $ % _ _ _ q.w.E 7.@.g = - ; > > < 1 1 3 h P.-X:X-X-X-X-X-X-X-X-X:X-X-X",
"-X-X-X-X;X,XXXr.z u.c.s.] ` ^ ^ Q Q W ~ R o.| 5 - - ; > > < < 1 j ).,X-X:X:X-X-X-X-X-X-X-X-X-X-X",
"-X-X;X:X-X%XR.e.l i.i.z.] ` ` ^ Q Q Q W ( ..6 * - - ; > > > < B '.,X,X-X-X-X-X-X-X-X-X-X:X-X-X-X",
"-X;X;X:X;XN.f y.i.i.i.z.] ` / ^ Q Q ! ( R ..: - - - ; > > 7 I OX,X:X-X-X-X-X-X:X:X-X-X-X-X-X-X-X",
"-X-X:X:X#Xf p b i.i.i.d.' / / ^ ^ ^ ! W ) } : : , , > , u S.=X:X-X-X-X-X-X-X-X-X-X-X-X-X-X-X-X-X",
"-X-X,X,X#Xn p d r.z.d.s.' ` / ^ ^ ! W ( R X.|  .[ [ [ [ t..X-X-X-X-X-X-X-X-X-X-X-X-X-X-X-X-X-X-X",
"-X-X-X-X-XY G K. Xl.f.s.s.` / ^ ( ( O.+.;.5.1.2.2.2.2.2.<.4.T.*X:X:X:X-X-X-X-X-X-X-X-X-X-X-X-X-X",
";X-X-X-X-X#X#X,X-X=X.XT.x.5.5.%.5.&.1.1.2.2.1.&.&.&.<.2.<.<.>.t.E.=X:X-X-X-X-X-X-X-X-X-X-X-X-X-X",
"-X-X-X-X-X>X>X-X-X;X>X>X&XU.s.R +.@.;.;.;.;.-.%.*.*.&.<.<.<.<.<.$.v..X-X-X-X-X-X-X-X-X-X-X-X-X-X",
"-X-X-X-X-X-X-X-X-X-X-X-X>X;X|.] ^ W R R +.@.-.%.*.*.&.1.>.3.$.<.$.{ =.T.&X>X-X-X-X:X-X-X-X-X-X-X",
"-X-X-X-X-X-X-X-X-X-X-X-X>X;X>X&X|.I.j.8.o.@.-.%.*.*.$.t.v.!.A.,.$.$.$.#.9.].-X-X;X;X:X:X-X-X-X-X",
"-X-X-X-X-X-X-X-X-X;X-X-X>X;X;X;X>X-X*X XY.U.d.:.*.#.-.Q.-X:X%XL.K z ....R 8.I..X;X:X;X:X-X-X-X-X",
":X-X-X-X-X-X>X-X-X-X;X;X;X;X;X;X-X-X:X:X>X-X-XY.9.$ A M.-X-X-X-XW.J a l 6.R R 8.U.].:X:X>X-X-X:X",
"-X-X-X-X-X-X-X-X-X-X;X;X;X;X;X;X-X;X:X-X;X;X,X^.q.n.& &X-X-X-X-X:X}.Y d a h z | X.9.v._.%X>X-X-X",
"-X-X-X-X;X-X-X-X-X-X-X-X-X-X-X-X-X-X-X-X-X-X;X@Xn.^.b.^.>X-X-X-X:X:X%XZ.n s s d x c x d J K.:X:X",
"-X-X-X-X-X-X-X-X-X-X-X;X-X-X-X-X-X-X-X-X-X-X-X;X@X(.&X{.-X-X-X;X:X:X:X:X_.J s s Y Y G d s G #X:X",
"-X;X-X-X-X-X-X-X-X-X-X-X-X-X-X-X-X-X-X-X;X-X-X-X,X,X>X-X-X-X-X-X:X-X:X:X:X%XZ.c J #X$X`.K._.=X:X",
"-X-X-X-X-X-X-X-X-X-X-X-X;X-X-X-X-X-X-X;X-X-X-X-X>X>X-X-X-X-X-X-X-X-X:X:X:X:X:XOXL.XX,X>X,X,X:X:X",
"-X-X-X-X-X-X-X-X-X-X-X-X-X-X-X-X-X-X-X-X-X-X-X-X>X;X;X;X-X-X-X-X-X-X-X-X-X-X-X>X,X:X:X-X,X:X:X:X",
"-X-X-X-X-X-X-X-X-X-X-X-X-X-X-X-X-X-X-X-X-X-X-X-X;X;X;X;X-X-X-X-X-X-X-X:X-X-X-X-X-X-X-X-X,X,X:X:X",
"-X-X-X-X;X-X-X-X-X-X-X;X-X-X-X-X-X-X-X-X-X;X-X-X-X-X-X;X-X-X-X;X-X-X-X-X-X:X-X-X-X-X-X-X-X-X:X-X",
"-X-X-X-X-X-X-X-X-X-X-X-X-X-X-X-X-X-X-X-X-X-X-X-X-X-X-X-X-X-X-X-X-X-X-X-X-X-X-X-X-X-X-X-X-X-X-X-X"
};
