/* XPM */
static char *result[] = {
/* columns rows colors chars-per-pixel */
"48 48 199 2 ",
"   c #6F0000",
".  c #710101",
"X  c #7B0001",
"o  c #770B05",
"O  c #790C0D",
"+  c #791608",
"@  c #7B1415",
"#  c #7D1718",
"$  c #7E1819",
"%  c #783915",
"&  c #70481D",
"*  c #765B24",
"=  c #765B34",
"-  c #7F7E2D",
";  c #6E7536",
":  c #830201",
">  c #8C0400",
",  c #8A0C03",
"<  c #960A00",
"1  c #940C02",
"2  c #871906",
"3  c #971602",
"4  c #9D1300",
"5  c #A1090C",
"6  c #A81602",
"7  c #A51801",
"8  c #B21A00",
"9  c #872709",
"0  c #8F300F",
"q  c #9A380B",
"w  c #A62A04",
"e  c #A43709",
"r  c #B0300D",
"t  c #832324",
"y  c #8E3536",
"u  c #C7151B",
"i  c #D01519",
"p  c #D91C1C",
"a  c #C42310",
"s  c #D8201F",
"d  c #CE3C1D",
"f  c #D72422",
"g  c #D53726",
"h  c #DC3332",
"j  c #DD3C3D",
"k  c #9C470E",
"l  c #865A1E",
"z  c #AA450A",
"x  c #AC5C0E",
"c  c #B25C0F",
"v  c #AA5B11",
"b  c #8D681E",
"n  c #906D1E",
"m  c #A96513",
"M  c #B37916",
"N  c #824D24",
"B  c #BC4C2B",
"V  c #AC5137",
"C  c #867727",
"Z  c #AE7D2D",
"A  c #CA4521",
"S  c #DB6E3A",
"D  c #933E40",
"F  c #984749",
"G  c #A25A5B",
"H  c #9F7E42",
"J  c #A56061",
"K  c #B86C6B",
"L  c #B47879",
"P  c #C94244",
"I  c #DF4C4C",
"U  c #E05151",
"Y  c #E87C42",
"T  c #E46767",
"R  c #E56E70",
"E  c #E57575",
"W  c #77923B",
"Q  c #7EB63E",
"!  c #7E8B51",
"~  c #7B9B55",
"^  c #6DB747",
"/  c #6EBA45",
"(  c #64B74B",
")  c #69B74A",
"_  c #66BA4D",
"`  c #6CBE4D",
"'  c #73B744",
"]  c #7BB741",
"[  c #7DB948",
"{  c #77BC54",
"}  c #7F856A",
"|  c #76C34E",
" . c #7FC94F",
".. c #A2801B",
"X. c #B48C1A",
"o. c #AF9E1F",
"O. c #BC9A1C",
"+. c #BCA21E",
"@. c #859338",
"#. c #9F9D39",
"$. c #B58929",
"%. c #9EB12E",
"&. c #88AB37",
"*. c #82B43D",
"=. c #86B93C",
"-. c #8CBB3C",
";. c #93B738",
":. c #B4B92A",
">. c #A4B832",
",. c #C3AA1F",
"<. c #C5BC25",
"1. c #C9B922",
"2. c #8D8D57",
"3. c #AE8647",
"4. c #97B644",
"5. c #93B056",
"6. c #BBAC4E",
"7. c #90A675",
"8. c #B2A872",
"9. c #C39E4C",
"0. c #D8B34F",
"q. c #E6AB58",
"w. c #ECB85B",
"e. c #F5B159",
"r. c #F5BD5E",
"t. c #F8BE5E",
"y. c #CB9075",
"u. c #C6BA65",
"i. c #E2B366",
"p. c #88C548",
"a. c #98CD50",
"s. c #9AC956",
"d. c #8CD052",
"f. c #A6CD43",
"g. c #A1D053",
"h. c #96C874",
"j. c #A7C971",
"k. c #C9CB56",
"l. c #EAC05C",
"z. c #C0C562",
"x. c #E2CF62",
"c. c #FAC160",
"v. c #8B8A88",
"b. c #B98585",
"n. c #BF8F90",
"m. c #97BD81",
"M. c #D4948F",
"N. c #E99392",
"B. c #E69698",
"V. c #D5AB89",
"C. c #CDA9AA",
"Z. c #D1A9A8",
"A. c #D2B3B4",
"S. c #EBA2A2",
"D. c #ECB2B3",
"F. c #ADDA8D",
"G. c #B7DBAD",
"H. c #BADDB0",
"J. c #CFCF8E",
"K. c #D5C889",
"L. c #EEDF9A",
"P. c #F5D59E",
"I. c #C5C8B9",
"U. c #C7D5B1",
"Y. c #F0C1B0",
"T. c #E0D7BC",
"R. c #CCE7A7",
"E. c #C5E3BA",
"W. c #CAE4BA",
"Q. c #D4E1B9",
"!. c #D9C0C1",
"~. c #DEC9CA",
"^. c #CED2C3",
"/. c #D7D5D3",
"(. c #DCDBDA",
"). c #E3CDCB",
"_. c #F0C7C7",
"`. c #E3D2D3",
"'. c #EAD6D3",
"]. c #F3DBDB",
"[. c #DBE8CC",
"{. c #E5E5C8",
"}. c #E4F3C9",
"|. c #E8EAD9",
" X c #F9F0DE",
".X c #F0DFE0",
"XX c #ECE4E4",
"oX c #EAEBE4",
"OX c #EEEBEB",
"+X c #F3EDED",
"@X c #EFF3EB",
"#X c #F1F1E4",
"$X c None",
"%X c None",
"&X c None",
"*X c None",
"=X c None",
"-X c None",
";X c None",
/* pixels */
"%X%X%X%X%X%X%X%X%X%X%X%X%X%X%X%X%X%X%X%X%X%X%X%X%X%X%X%X%X%X%X%X%X%X%X%X;X%X%X%X%X%X%X%X%X%X%X%X",
"%X%X%X%X%X%X%X%X%X%X%X%X%X%X%X%X%X%X%X%X%X%X%X%X%X%X%X%X%X%X%X%X%X%X%X%X%X%X%X%X%X%X%X%X%X%X%X%X",
"%X%X%X%X%X%X%X%X%X%X%X%X%X%X%X%X%X%X%X%X%X%X%X%X%X%X%X%X%X%X%X%X%X%X%X%X%X%X%X%X%X%X%X%X%X%X%X%X",
"%X%X%X%X%X%X%X%X%X%X%X%X%X%X%X%X%X%X%X%X%X%X%X%X-X%X%X%X%X%X%X%X%X%X%X%X%X%X%X%X%X%X%X%X%X%X%X%X",
"%X%X%X%X%X%X*X%X%X%X%X%X%X%X&X%X%X%X%X%X%X%X%X%X%X%X%X%X%X%X%X%X%X%X%X%X%X%X%X%X%X%X%X%X%X%X%X%X",
"%X%X%X%X%X%X%X%X%X%X%X%X%X%X%X%X%X%X%X%X%X%X%X%X%X%X%X%X%X%X%X%X%X%X%X%X%X%X%X%X%X%X%X%X%X%X%X%X",
"%X%X%X%X%X%X%X%X%X%X%X%X%X%X%X%X%X%X%X%X%X%X%X%X%X%X%X%X%X%X%X%X%X%X%X%X%X%X%X%X%X%X%X%X%X%X%X%X",
"%X%X%X%X%X%X%X%X%X%X%X%X%X%X%X%X%X%X%X%X%X%X%X%X%X%X%X%X%X%X%X%X%X%X%X%X%X%X%X%X%X%X%X%X%X%X%X%X",
"%X%X%X%X%X%X%X%X%X%X%X%X%X%X%X%X%X%X%X%X%X%X%X%X%X%X%X%X%X%X-X%X%X%X%X%X%X%X%X%X%X%X%X%X%X%X%X%X",
"%X%X%X%X%X%X%X%X%X%X%X%X%X%X%X%X%X%X%X%X%X%X%X%X%X%X%X%X%X%X%X%X%X%X%X%X%X%X%X%X%X%X%X%X%X%X%X%X",
"%X%X%X*X%X%X%X%X%X%X%X%X%X%X&X-X%X%X%X%X%X%X%X%X%X%X%X%X%X%X%X%X%X%X%X%X%X%X%X%X%X%X%X%X%X%X%X%X",
"%X%X%X%X%X%X%X%X%X%X%X%X%X%X-X-X%X%X%X%X%X%X%X%X%X%X%X%X%X%X%X%X%X%X%X%X%X%X%X%X%X%X%X%X%X%X%X%X",
"%X%X%X%X%X%X%X%X%X%X&X=X=X=X&X&X*X*X*X*X*X*X*X%X%X%X%X%X%X%X%X%X%X%X%X%X%X%X%X%X%X%X%X%X%X%X%X%X",
"%X%X%X%X%X%X%X%X%X&X}.R.R.}.&X-X*X=X=X=X*X*X*X*X%X%X%X%X%X%X%X%X%X%X%X%X%X%X%X%X%X%X%X%X%X%X%X%X",
"%X%X%X%X%X%X%X%X$XL.x.k.g.d.F.^.E.E.H.G.E.[.%X=X%X%X%X%X%X%X%X%X%X;X%X%X%X%X%X%X%X%X%X%X%X%X%X%X",
"%X%X%X%X%X%X%X%XP.w.r.r.x.d.p.| ` _ ( ( ( { h.E.@X-X%X-X%X%X%X%X%X%X%X%X%X%X%X%X%X%X%X%X%X%X%X%X",
"%X%X%X%X*X*X*X Xi.= q.t.l.a. .| ` _ ( ( ^ ^ / [ j.oX;X+X%X%X%X%X%X%X%X%X%X%X%X%X%X%X%X%X%X%X%X%X",
"%X%X%X*X*X*X*XY.q.3.w.r.c.s. .| ` _ ( ( ( ^ ' Q ] s.Q.L Z.%X%X%X%X%X%X%X%X%X%X%X%X%X%X%X%X%X%X%X",
"*X&X*X*X*X*X.XP Y t.r.r.l.a. .| _ _ ( ( ) ^ ' ' ] Q 4.9 K %X%X%X%X%X%X%X%X%X%X%X%X%X%X%X%X%X%X%X",
"$X`.*XXX`.;XD.u g e.c.r.k.d.d.| | ( ( ( ( ^ ' Q ] 4.&.2 V #X%X'.XX;X%X%X%X%X%X%X%X%X%X%X%X%X%X%X",
"~.F XX!.L =XB.u i S 0.k.f.f.4.-.[ _ ( ( ( / Q ' 4.*.b , q z.T.V M.;X;X=X%X%X%X%X%X%X%X%X%X%X%X%X",
"!.$ C.!.D OXB.5 5 1 0 W -.;.:.<.<.:.;.4.) ) / Q Q n : : q :.$.6 y.&X;X%X%X%X%X%X%X%X%X%X%X%X%X%X",
").$ J `.t A.C.o X X , 2 - 4.;.>.<.1.1.1.>.=.-.C + o X : k 1.v < y.&X%X%X%X%X%X%X%X%X%X%X%X%X%X%X",
"XXy $ ~.D G A.O X : : > 0 &.;.%.:.:.1.,.X.m X.% . . : : m +.w 7 $.K.).%X%X%X%X%X%X%X%X%X%X%X%X%X",
";XL   b.b.$ n.@ X X : > l 4.&.%.:.:...+ + . o   . X X , X.M < w +.X.B ].*X%X%X%X%X%X%X%X%X%X%X%X",
";X).# $ L @ y @ X . 2 * W ! 2.2.#.#.3.o   .   . . . : k ,.q 4 m +.r z u.|.;X%X%X%X%X%X%X%X%X%X%X",
"-X%XL   o   . . O % ; 7.G.XXOXOX(.(.A.O     .   . X 2 O.m 1 w o.v w M o.6.[.*X%X%X%X%X%X%X%X%X%X",
"-X;XXXG @ O + N H 7.H.OX=X=X*X=X;X;X`.$   . . . . X 2 x 1 > e v w m #.c ..s.U.@X;X%X%X%X%X%X%X%X",
"%X%X=X+X~.A.I./.|.+X=X*X%X%X%X%X&X;XOXy   .   . . X : : > > 3 4 7 r e r W ^ Q j.{.&X&X&X%X%X%X%X",
"%X%X%X&X=X;X;X&X=X%X=X*X%X%X%X%X&X%X%XL   o % * * & % % 9 1 < 4 7 6 8 a V @.Q =.4.J.|.&X%X%X%X%X",
"%X%X%X%X=X%X&X=X%X%X%X%X%X%X%X%X%X%X%X|.b.8.R.W.E.H.m.~ 5.C k 4 7 7 A j s s B Z #.>.9.N.].%X%X%X",
"%X%X%X%X%X%X%X=X%X%X%X%X%X%X%X%X%X%X%X=X;X*X=X;X;X;XXXv.I.} 8.Z w z V._.U s p s g A d s j N.%X%X",
"%X%X%X%X%X%X%X%X%X%X%X%X%X%X%X%X%X%X%X%X%X%X%X%X%X%X&X(./.`./.{.K.J.#X;X].T f p T R j f p h ].=X",
"%X%X%X%X=X%X%X%X%X%X%X%X%X%X%X%X%X%X%X%X%X%X%X%X%X%X%X%X%X=X;X;X;X*X*X=X%X+XN.h I ].].D.N.S.+X=X",
"%X%X%X%X%X%X%X%X%X%X%X%X%X%X%X%X%X%X%X%X%X%X%X%X%X%X%X%X%X%X%X%X%X*X*X*X%X%X%X_.E _.=X;X;X%X=X=X",
"%X%X%X%X%X%X%X%X%X%X%X%X%X%X%X%X%X%X%X%X%X%X%X%X%X%X%X%X%X%X%X%X%X*X*X*X%X%X%X*X%X+X=X%X%X%X%X=X",
"%X%X%X%X%X%X%X%X%X%X%X%X%X%X%X%X%X%X%X%X%X%X%X%X%X%X%X%X%X%X%X%X%X%X%X%X%X%X%X%X%X%X%X%X%X%X%X%X",
"%X%X%X%X%X%X%X%X%X%X%X%X%X%X%X%X%X%X%X%X%X=X&X%X%X%X%X%X%X%X%X%X%X%X%X%X%X*X%X%X%X%X%X%X%X%X%X%X",
"%X%X%X%X%X%X%X%X&X=X%X%X%X%X%X%X%X%X%X%X%X%X%X%X%X%X%X%X%X%X%X%X%X%X%X%X%X%X%X%X%X%X%X%X%X%X%X%X",
"%X%X%X%X%X%X%X%X%X%X%X%X%X%X%X%X%X%X%X%X%X%X%X%X%X%X%X%X%X%X%X%X%X%X%X%X%X%X%X%X%X%X%X%X%X%X%X%X",
"%X%X%X%X%X%X%X%X%X%X%X%X%X%X%X%X%X%X%X%X%X%X%X%X%X%X%X%X%X%X%X%X%X%X%X%X%X%X%X%X%X%X%X%X%X%X%X%X",
"%X%X%X%X%X%X%X%X%X%X%X%X%X%X%X%X%X%X%X%X%X%X%X%X&X%X%X%X%X%X%X%X%X%X%X%X%X%X%X%X%X%X%X%X%X%X%X%X",
"%X%X%X%X%X%X%X%X%X%X%X%X%X%X%X%X%X%X%X%X%X%X%X%X=X%X%X%X%X%X%X%X%X%X%X%X%X%X%X%X%X%X%X%X%X%X%X%X",
"%X%X%X%X%X%X=X%X%X%X%X%X%X%X%X%X%X%X%X%X%X%X%X%X%X%X%X%X%X%X%X%X%X%X%X%X%X%X%X%X%X%X%X%X%X%X%X%X",
"%X%X%X%X%X%X%X%X%X%X%X%X%X%X%X%X%X%X%X%X%X%X%X%X%X%X%X%X%X%X%X%X%X%X%X%X%X%X%X%X%X%X%X%X%X%X%X%X",
"%X%X%X%X%X%X%X%X%X%X%X%X%X%X%X%X%X%X%X%X%X%X%X%X%X%X%X%X%X%X%X%X%X%X%X%X%X%X%X%X%X%X;X%X%X%X%X%X",
"%X%X%X%X%X%X%X%X%X%X%X%X%X%X%X%X%X%X%X%X%X%X%X%X%X%X%X%X%X%X%X%X%X%X%X%X%X%X%X%X%X%X%X%X%X%X%X%X",
"%X%X%X%X%X%X%X%X%X%X%X%X%X%X%X%X%X%X%X%X%X%X%X%X%X%X%X%X%X%X%X%X%X%X%X%X%X%X%X%X%X%X%X%X%X%X%X%X"
};
