/* XPM */
static char *result[] = {
/* columns rows colors chars-per-pixel */
"48 48 213 2 ",
"   c #5F1810",
".  c #6F0005",
"X  c #6B0508",
"o  c #710005",
"O  c #7A0505",
"+  c #74050B",
"@  c #7C0C0D",
"#  c #750A10",
"$  c #780F15",
"%  c #7B141A",
"&  c #5D2916",
"*  c #78270F",
"=  c #672A13",
"-  c #403E34",
";  c #52411E",
":  c #79461B",
">  c #71581F",
",  c #6B542A",
"<  c #5B652C",
"1  c #776626",
"2  c #757529",
"3  c #535254",
"4  c #800703",
"5  c #820A05",
"6  c #8A0E05",
"7  c #881508",
"8  c #921304",
"9  c #981604",
"0  c #9E1904",
"q  c #971B09",
"w  c #851816",
"e  c #941D12",
"r  c #A31C03",
"t  c #A81F04",
"y  c #A01F0A",
"u  c #912910",
"i  c #99261A",
"p  c #AB2103",
"a  c #A82609",
"s  c #B2340D",
"d  c #A62B14",
"f  c #811E23",
"g  c #862529",
"h  c #912723",
"j  c #9A3028",
"k  c #8C3337",
"l  c #973C3B",
"z  c #A93828",
"x  c #C8171B",
"c  c #D71E1D",
"v  c #D82121",
"b  c #D62A25",
"n  c #C93527",
"m  c #DA3534",
"M  c #B04D10",
"N  c #A26D1B",
"B  c #815922",
"V  c #AD4434",
"C  c #B74934",
"Z  c #BC513B",
"A  c #906F38",
"S  c #AF6F32",
"D  c #C3462C",
"F  c #D8442D",
"G  c #933F43",
"H  c #994546",
"J  c #9B4E52",
"K  c #9F5659",
"L  c #AA5C5A",
"P  c #B45C51",
"I  c #BC6758",
"U  c #A35D61",
"Y  c #A96567",
"T  c #BB736D",
"R  c #AC6D71",
"E  c #AF7375",
"W  c #BE7770",
"Q  c #DC4546",
"!  c #DC564F",
"~  c #DF5353",
"^  c #E15E5E",
"/  c #CE6D4E",
"(  c #E77943",
")  c #CC7966",
"_  c #C27F78",
"`  c #E17879",
"'  c #5D8E3C",
"]  c #6B8834",
"[  c #6B963C",
"{  c #73963A",
"}  c #619C42",
"|  c #5FA245",
" . c #66A745",
".. c #61AD49",
"X. c #77A945",
"o. c #63B54C",
"O. c #6AB64A",
"+. c #63B84D",
"@. c #6CBC4D",
"#. c #72B646",
"$. c #7AB644",
"%. c #76B84C",
"&. c #6DBA55",
"*. c #7BBD50",
"=. c #79C54F",
"-. c #7BC550",
";. c #B2811E",
":. c #859737",
">. c #909331",
",. c #B4892F",
"<. c #AB9725",
"1. c #87AD3B",
"2. c #92A53B",
"3. c #88B73E",
"4. c #8CB53C",
"5. c #95B539",
"6. c #94BB3C",
"7. c #9FBA38",
"8. c #B1A32F",
"9. c #B7AA29",
"0. c #B9B42A",
"q. c #BDB92C",
"w. c #A3B534",
"e. c #AAB933",
"r. c #B1BA30",
"t. c #C4B526",
"y. c #CABA27",
"u. c #C2B529",
"i. c #C8BA28",
"p. c #C8BC38",
"a. c #AE8542",
"s. c #83B640",
"d. c #8CBB4D",
"f. c #90BA49",
"g. c #A4A44E",
"h. c #CEB652",
"j. c #E5A452",
"k. c #E7BD5B",
"l. c #F5BA5D",
"z. c #D6856C",
"x. c #C7847B",
"c. c #D2A760",
"v. c #98C74A",
"b. c #87CD55",
"n. c #98D756",
"m. c #A5D04D",
"M. c #A6C957",
"N. c #B7C656",
"B. c #B4EA58",
"V. c #99C970",
"C. c #B4C769",
"Z. c #A6D766",
"A. c #BDEA71",
"S. c #D1C554",
"D. c #CCC766",
"F. c #CFD077",
"G. c #E0D26C",
"H. c #8A8889",
"J. c #BB8687",
"K. c #BFA5A0",
"L. c #B9B7B7",
"P. c #C28B89",
"I. c #CA928C",
"U. c #D1978D",
"Y. c #C79A9A",
"T. c #D39B91",
"R. c #E68789",
"E. c #E99596",
"W. c #DAA59B",
"Q. c #C69EA0",
"!. c #CBA6A8",
"~. c #D5A6A5",
"^. c #C9B0AF",
"/. c #DCB3AC",
"(. c #D8B8B6",
"). c #E1B7AE",
"_. c #EDB4B4",
"`. c #BBD28C",
"'. c #ABD991",
"]. c #BBE38F",
"[. c #DCD48A",
"{. c #CCD394",
"}. c #E2DA97",
"|. c #DCD8A6",
" X c #CFEDA1",
".X c #DEE8B7",
"XX c #EEE3B7",
"oX c #DEC7C8",
"OX c #D5D4D1",
"+X c #E5CCC8",
"@X c #EDCFCD",
"#X c #E7D6D5",
"$X c #EBDDDC",
"%X c #F2D5D5",
"&X c #F3DEDD",
"*X c #D6E7C8",
"=X c #DBECD3",
"-X c #E8E6C8",
";X c #EAECD8",
":X c #EBF3D9",
">X c #EDE4E5",
",X c #EDECE5",
"<X c #F3E4E4",
"1X c None",
"2X c None",
"3X c None",
"4X c None",
"5X c None",
"6X c None",
"7X c None",
"8X c None",
"9X c None",
"0X c None",
/* pixels */
"5X5X6X5X5X5X5X5X5X5X5X5X5X5X6X5X5X5X5X5X5X8X5X5X5X5X5X5X5X5X5X0X9X5X5X5X5X5X5X5X5X5X5X5X5X5X5X5X",
"5X5X5X5X5X5X5X5X5X5X5X6X5X5X5X8X5X5X5X5X5X6X5X5X5X5X5X5X5X5X5X5X5X5X5X5X5X5X5X5X5X5X5X5X5X5X5X5X",
"5X5X5X7X5X6X5X7X5X5X5X5X5X7X5X5X5X5X5X5X7X5X5X5X5X6X5X5X5X5X5X5X5X5X5X9X5X5X5X9X5X5X5X5X5X5X5X5X",
"5X5X5X5X5X5X5X5X5X5X5X6X5X5X5X5X5X6X5X5X5X5X5X5X5X5X5X5X5X5X5X5X5X5X5X9X5X5X5X5X5X9X5X5X5X5X5X5X",
"6X5X5X7X5X5X5X5X5X5X5X5X7X5X5X5X5X5X5X5X5X5X5X5X5X6X5X5X5X5X5X5X9X9X9X9X5X5X6X6X5X5X5X5X5X5X5X9X",
"5X5X5X5X5X5X7X5X5X7X5X8X5X5X5X5X5X5X5X8X5X5X5X5X5X5X5X7X5X5X5X5X9X9X9X9X7X7X6X0X5X5X9X5X5X5X5X5X",
"5X5X5X5X5X5X5X5X5X5X5X5X5X5X6X5X5X5X5X5X5X5X5X5X5X5X7X7X7X7X0X0X9X9X9X3X2X4X0X0X5X5X5X5X5X5X5X5X",
"5X5X5X5X5X5X6X5X5X5X5X6X5X5X5X5X5X7X5X6X5X5X6X5X5X7X9X7X,X;X*X*X=X*X'.V.Z.F..X0X5X5X5X5X5X5X5X5X",
"5X7X5X5X7X5X5X5X5X5X6X5X5X5X7X5X5X5X5X6X6X6X7X7X9X3X.X`.V.d.%.O.&.&.+.M.k.k.G.2X7X5X0X5X5X7X5X5X",
"5X5X5X5X5X5X5X5X5X5X5X5X5X5X5X5X5X5X7X5X5X7X7X5X.XC.f.4.1.$.#.o.o.+.=.h.l.A j.XX0X5X5X5X5X5X6X5X",
"5X5X5X6X5X5X5X5X5X5X7X5X5X5X5X5X5X5X5X5X7X5X-XD.e.w.5.5.s.$.#.O.o.+.*.k.l.a.j.z.<X5X5X5X5X5X5X5X",
"5X5X5X5X6X5X5X5X5X5X5X5X5X5X5X5X5X5X7X9X3X}.p.0.0.w.5.1.s.$.O.O.+.+.*.k.l.l.( x ~.0X5X5X5X5X5X5X",
"5X7X5X7X5X5X5X5X5X5X5X5X5X5X5X7X5X5X9X;XG.u.y.y.i.r.e.6.s.$.O.O.+.+.=.N.l.l.F x ` 0X7X7X5X7X5X5X",
"5X5X5X5X5X5X5X7X6X5X5X5X5X6X7X0X7X5XXXS.t.i.y.y.y.y.y.i.e.6.$.O.+.+.+.-.M.N./ Q R.7X5X7X5X6X5X5X",
"5X5X6X5X5X6X5X5X5X5X5X5X7X5X5X0X4X[.t.t.i.y.y.y.y.y.y.y.y.y.u.r.7.6.6.v.M.].;X<X&X5X5X5X5X5X5X5X",
"5X5X5X5X5X5X5X5X5X7X5X5X5X7X7X-XD.t.t.t.y.y.t.u.q.q.r.r.r.r.r.e.e.w.6.C.:X6X7X7X5X7X5X5X5X5X5X5X",
"5X5X5X5X7X5X5X5X5X5X8X8X7X1X|.p.t.t.t.t.t.u.;.8.e.w.w.4.3.$.#.O.o.+.@.-.=X0X5X5X6X5X5X5X5X5X5X5X",
"5X5X7X5X5X5X5X5X5X8X8X8X>X[.9.t.9.t.t.t.u.r.M N r.>.{ 4.3.$.#.O...+.@.=.'.7X5X5X5X5X5X5X6X5X7X5X",
"5X5X5X5X5X5X5X5X5X8X8X-Xg.u.9.9.t.i.t.t.q.9.M u >.> 2 6.$.$.#.O...o.@.=.n.=X0X5X6X5X5X5X5X5X5X5X",
"5X5X5X5X5X5X7X7X7X1X{.8.8.9.9.u.c.|.[.S.u.9.s r u * > 4.3.$.#.O.....@.=.b.].5X5X5X5X5X5X5X5X5X5X",
"5X5X7X5X5X5X7X7X*XV.s.1.f.2.S z.&X8X0XOXg.<.s t 0 8 : 4.$.{  .#...| @.=.b.Z.:X0X5X5X5X5X5X5X5X7X",
"5X5X5X5X7X7X;X`.d.$. .X.A n ` <X8X7X1XH.- , a t 0 8 * ] { ; [ O.o.| =.=.b.n. X0X5X5X6X5X5X5X5X5X",
"7X9X9X9X<X|.N.5.s.:.Z n b R.1X7X7X7X5XOX3 K.d t 0 8 6 = =   ' O.o. .#.=.$.n.A.4X5X5X5X5X5X5X5X5X",
"7X9X&XE.! ,.,.S D b c m E.1X7X5X7X7X7XL.H.K.d t 0 9 8 O o X < O.o.{ @.#.< m.B..X7X5X5X5X5X5X5X6X",
"9X&X~ v c b m m v v Q _.5X5X5X5X5X5X5XL.OXL./ p 0 8 6 5 O o & ' } B #.{ * :.B.{.5X5X5X5X5X5X5X5X",
"9X%XQ Q ^ E._.~ b ~ @X0X5X5X5X5X5X5X5X5X5X5X@Xz 0 9 6 5 O o X   = a 1 > 9 : m.C.>X0X5X5X5X5X5X5X",
"6X5X<X<X5X0X_.Q R.<X9X5X5X5X5X5X5X5X5X5X5X5X5XU.y 9 6 5 + o o o O p 0 q 9 7 B A oX0X5X5X5X5X5X7X",
"6X5X5X7X6X6X%X%X5X7X5X5X5X5X5X5X5X5X5X5X5X0X5Xx.0 i u 5 + o o . O p p r 9 8 6 @ ^.0X7X5X5X6X5X5X",
"5X5X5X5X6X5X6X6X5X5X5X5X5X5X5X5X5X5X5X5X6X<X) a d I.j 4 O o o o O p p y 9 6 6 4 P.0X0X8X5X5X5X5X",
"5X5X5X5X6X5X6X6X5X5X5X5X5X5X5X5X5X5X5X5X0X+XD I /._ e h O o o o O p p 0 9 8 6 4 Y 0X5X8X5X5X5X5X",
"5X5X5X5X5X5X5X5X5X5X5X5X5X5X5X5X5X5X5X5X5X1X<X1X/.i P.x.+ o . . o t t y 9 8 6 4 l 1X6X5X5X5X5X5X",
"6X5X6X5X5X5X5X5X5X5X5X5X5X5X5X5X5X5X5X5X0X0X0X+XV x.#XH O + o . @ a t 0 9 8 6 O w +X0X5X5X5X5X5X",
"5X5X5X5X6X5X5X5X5X7X5X7X5X5X5X5X5X6X5X5X5X9X$X/ _ 5X_ 5 l G . . k C r r 9 6 6 5 O J.9X7X5X5X6X5X",
"5X5X5X5X5X5X5X5X5X5X5X5X5X5X5X5X5X5X5X5X7X0X).T.1X(.e h !.k . . J ) r d y 6 6 5 O k >X9X5X7X5X5X",
"6X5X5X7X5X5X5X5X5X5X5X5X5X7X6X5X5X5X5X5X5X5X5X5X1XP 7 Y.!.o % # U W.C Z V e h O O + Q.9X5X5X5X5X",
"5X5X5X5X5X5X7X5X5X5X6X5X5X5X5X5X5X7X5X5X5X5X5X5X).e W <XH . U % R 5XW.C I i x.$ O . H 1X9X5X5X5X",
"5X5X5X5X5X5X5X5X5X7X5X6X5X5X5X5X5X5X5X5X5X5X5X5X) P 1X/.# f J.$ Y.0X@XV x.e ~.V w H # ^.9X7X5X5X",
"5X5X6X5X5X5X5X5X5X5X5X5X5X5X6X5X5X5X6X5X5X5X6X1XI.$X5XL O E Y % #X0X5XI T.j I.P.% Y.% J 1X9X5X5X",
"5X7X5X5X5X5X5X6X5X5X5X5X5X5X5X5X7X5X5X5X5X5X5X5X7X0X#Xh g (.g J 3X9X9X+X#XT T #Xg R J.# Q.0X5X5X",
"5X5X5X5X7X5X5X5X5X5X5X5X5X5X7X5X5X5X5X5X5X5X5X5X7X0X(.w Y.!.# !.0X9X7X0X0X+XY.5XJ.g oXK g oX9X5X",
"5X5X0X5X5X7X5X5X5X5X5X5X5X6X5X7X5X5X5X5X5X5X5X5X9X9XoXW 1XE k >X5X5X5X5X5X5X5X0X>XK !.$XJ J 1X7X",
"5X5X5X5X5X5X6X5X5X5X5X5X5X5X5X5X5X5X5X5X5X5X5X5X5X5X5X5X5XR !.0X5X5X5X5X5X5X5X5X0X$X#X0X>X^.1X7X",
"5X5X5X5X5X5X5X5X6X7X5X5X5X5X5X5X5X5X5X5X5X5X6X5X5X5X5X5X5X#X1X0X5X5X5X5X5X5X5X5X0X0X0X5X0X0X7X7X",
"5X5X5X5X5X5X5X5X5X5X5X5X5X5X5X5X9X5X5X5X7X5X5X5X5X7X7X7X7X9X5X0X5X5X5X5X5X5X5X5X7X5X5X5X5X5X7X7X",
"5X5X5X5X5X5X5X5X5X5X5X5X5X5X5X5X5X5X5X5X7X5X5X5X5X5X5X5X5X5X5X5X5X5X5X5X5X5X5X5X5X5X5X5X5X5X5X5X",
"5X5X5X5X5X5X5X5X5X5X5X5X5X0X5X5X5X7X5X5X5X5X6X5X5X5X5X5X5X5X5X5X5X5X5X5X7X5X5X6X7X5X5X5X5X5X5X5X",
"5X5X5X5X5X5X5X5X5X0X5X5X5X5X5X5X6X5X5X5X5X5X5X5X5X5X6X5X5X5X5X6X5X5X5X5X5X5X5X5X5X5X5X5X7X5X5X5X",
"5X5X5X5X5X5X5X5X5X5X5X5X5X5X5X5X5X5X5X5X5X5X5X5X5X7X5X5X5X5X7X5X5X5X5X5X5X5X5X5X6X5X5X5X5X5X5X5X"
};
