/* XPM */
static char *result[] = {
/* columns rows colors chars-per-pixel */
"48 48 213 2 ",
"   c #6E0101",
".  c #670A05",
"X  c #710101",
"o  c #7F0101",
"O  c #770A08",
"+  c #631B0B",
"@  c #7D1909",
"#  c #7B1314",
"$  c #7E1719",
"%  c #5E2E13",
"&  c #75250E",
"*  c #58431C",
"=  c #72471B",
"-  c #414D26",
";  c #545325",
":  c #735230",
">  c #5F6E2D",
",  c #756827",
"<  c #74702A",
"1  c #5D595C",
"2  c #625E61",
"3  c #646161",
"4  c #860301",
"5  c #8F0600",
"6  c #860A03",
"7  c #8F0901",
"8  c #9B0E00",
"9  c #881607",
"0  c #9B1000",
"q  c #861C1D",
"w  c #921C19",
"e  c #A91700",
"r  c #AA1A01",
"t  c #B61F00",
"y  c #B81F00",
"u  c #8E2C12",
"i  c #AE250C",
"p  c #B72100",
"a  c #B92503",
"s  c #BB2B09",
"d  c #BC300F",
"f  c #A52818",
"g  c #BA391D",
"h  c #842425",
"j  c #8A2F30",
"k  c #8E3536",
"l  c #CF1016",
"z  c #D81B1C",
"x  c #D6211B",
"c  c #C13D1D",
"v  c #CC2C21",
"b  c #DA2929",
"n  c #C43B23",
"m  c #DA393C",
"M  c #8F5017",
"N  c #A75F31",
"B  c #8F6D3B",
"V  c #B4612C",
"C  c #C34628",
"Z  c #CE4833",
"A  c #C8563A",
"S  c #E6743F",
"D  c #984849",
"F  c #9C4F50",
"G  c #9D5152",
"H  c #A25C5D",
"J  c #A86668",
"K  c #AD6F70",
"L  c #B27678",
"P  c #DD4544",
"I  c #E15555",
"U  c #CC654C",
"Y  c #CC6B55",
"T  c #CF725C",
"R  c #D0735C",
"E  c #D47D67",
"W  c #E46868",
"Q  c #E57373",
"!  c #788632",
"~  c #758B33",
"^  c #759539",
"/  c #77A73D",
"(  c #73AB3C",
")  c #6A9D48",
"_  c #759B59",
"`  c #5FAD48",
"'  c #62A344",
"]  c #6AA846",
"[  c #65B144",
"{  c #6DB746",
"}  c #6EB947",
"|  c #63B74B",
" . c #69B749",
".. c #65BA4D",
"X. c #6CBB4B",
"o. c #72B643",
"O. c #7AB541",
"+. c #73B945",
"@. c #7CB942",
"#. c #76B849",
"$. c #6EC04E",
"%. c #76C34E",
"&. c #7EC94F",
"*. c #7BC652",
"=. c #BCAD1F",
"-. c #928B35",
";. c #B18E2E",
":. c #A69828",
">. c #80AA3F",
",. c #83B73E",
"<. c #8AB73B",
"1. c #96B738",
"2. c #A9A829",
"3. c #B7A920",
"4. c #ACB82E",
"5. c #BBB927",
"6. c #B3BA2B",
"7. c #B8AD36",
"8. c #A5B931",
"9. c #C4B41F",
"0. c #C0AF21",
"q. c #C3B522",
"w. c #C5BA24",
"e. c #C8BB39",
"r. c #99BE48",
"t. c #83BC51",
"y. c #BDB246",
"u. c #899C72",
"i. c #97A775",
"p. c #B5BE6E",
"a. c #CD9A56",
"s. c #E58B46",
"d. c #DEAA56",
"f. c #EFBF5D",
"g. c #F4BB5D",
"h. c #F9BE5E",
"j. c #D6816A",
"k. c #D68874",
"l. c #E79C7A",
"z. c #D6A66B",
"x. c #8AC84B",
"c. c #8BCF51",
"v. c #9CCD52",
"b. c #98D755",
"n. c #AACC50",
"m. c #BFE05A",
"M. c #95D268",
"N. c #99CC7D",
"B. c #B4D36F",
"V. c #BAE37E",
"C. c #D2C859",
"Z. c #E8C25C",
"A. c #F2C25E",
"S. c #CDCC6F",
"D. c #F0C36B",
"F. c #888586",
"G. c #BA8989",
"H. c #B1BA9F",
"J. c #BFBAAC",
"K. c #B6B4B5",
"L. c #DA9685",
"P. c #C39698",
"I. c #DD9F90",
"U. c #E68D8A",
"Y. c #DEA394",
"T. c #E1AB9E",
"R. c #CCA5A6",
"E. c #D6ABA8",
"W. c #D4B7B7",
"Q. c #EBA2A3",
"!. c #E3B4A8",
"~. c #EAB7B5",
"^. c #ADCE82",
"/. c #A9D68F",
"(. c #BCE397",
"). c #B8DBAA",
"_. c #CACE80",
"`. c #E0DA9F",
"'. c #DBDAA8",
"]. c #CFC7B4",
"[. c #E7C3BA",
"{. c #D9E7AB",
"}. c #C8E4BD",
"|. c #D5EEB7",
" X c #F5E2B9",
".X c #C9C8C6",
"XX c #DDC7C8",
"oX c #D4D4D1",
"OX c #E6C9C8",
"+X c #EDD3CD",
"@X c #EAD9D6",
"#X c #F2D9D8",
"$X c #D8E9CA",
"%X c #D8E9D2",
"&X c #E8E7C9",
"*X c #EEECD6",
"=X c #F1E1DD",
"-X c #F8EDDA",
";X c #E8F1DA",
":X c #EBE4E4",
">X c #EDECEC",
",X c #F3E5E3",
"<X c #F3E9E6",
"1X c None",
"2X c None",
"3X c None",
"4X c None",
"5X c None",
"6X c None",
"7X c None",
"8X c None",
"9X c None",
"0X c None",
/* pixels */
"5X5X5X5X5X5X5X5X7X5X5X5X5X5X7X5X5X5X5X5X5X5X5X5X5X5X5X9X5X5X5X8X9X9X9X5X9X5X5X5X5X5X5X5X5X5X5X5X",
"5X5X5X5X9X5X5X5X5X5X5X5X5X5X5X5X5X5X7X5X5X5X9X5X5X5X5X5X5X5X5X5X#X1X5X5X5X5X5X5X5X5X5X9X5X5X5X5X",
"5X5X7X5X5X5X5X5X5X5X5X7X7X5X5X5X5X5X5X5X5X5X9X5X5X5X9X5X5X5X@XE T.5X5X5X5X5X5X9X5X5X5X8X5X5X5X9X",
"5X5X5X5X5X9X5X5X5X5X5X5X5X5X5X5X5X5X5X5X5X5X5X5X5X5X5X9X5X!.C R 3X5X5X5X5X5X5X5X5X5X5X5X5X0X5X5X",
"5X5X5X5X5X5X5X5X7X5X5X5X5X5X7X5X5X7X5X5X5X5X5X5X5X0X0X:Xj.s Y <X0X6X5X5X5X5X5X5X5X5X5X5X5X5X5X5X",
"5X5X7X:XR.6X5X5X6X9X5X5X5X5X5X5X5X5X5X5X5X5X5X5X5X0X[.A a T ,X<X#X4X5X5X5X5X5X5X5X5X5X5X5X5X5X5X",
"5X5X7X6XL P.5X@XG.7X9X0X7X5X5X5X5X5X5X5X5X5X5X5X0XE.g a U !.k.Z Y <X0X5X5X5X5X5X5X5X5X0X5X5X5X5X",
"5X5X7X9XXXk XX@Xk XX0XXXOX8X8X8X5X5X5X9X7X5X5X9XE.f r d C d a A +X5X5X5X5X5X5X5X5X5X5X5X5X5X5X5X",
"5X5X5X5X5XG F @Xh G.9XJ G.0X9X8X5X5X5X5X5X5X5XE.f 8 e p p s E #X0X5X5X5X5X5X5X5X5X5X5X5X5X5X5X0X",
"7X5X5X5X9XW.$ L j D :Xk J 7X:X4X5X5X9X5X5X5XE.w 6 8 e t C Y.6X0X0X5X5X5X5X5X5X5X5X5X5X5X5X5X5X5X",
"5X5X5X5X5X6XH # $ $ R.$ H XXJ :X9X5X5X9X8XR.q 4 7 0 r U [.,X#X@X+X<X5X5X5X5X5X5X5X0X5X5X5X5X5X5X",
"5X5X5X7X5X5XXX#   X G O F J D 6X5X5X9X5XJ.: O 4 7 0 i A A C c c A T.5X5X5X5X5X0X5X5X5X5X5X5X9X5X",
"5X5X7X5X5X5X5XG   X O X h # K 9X0X5X6XH.] ( + 4 7 0 e y a C Y I.+X5X5X5X5X5X5X5X5X5X5X5X5X5X5X5X",
"5X5X5X5X5X5X0XG.X X X   X   R.:XW.5X.X]  .~ O 4 7 0 i R !.=X6X0X0X5X5X5X5X5X0X9X5X5X5X5X5X5X5X5X",
"7X5X5X5X5X7X9X@Xh     X   $ E.G D >Xi.[ } , o 4 7 0 i C j.~.3X5X9X5X5X5X5X5X5X5X5X5X5X5X5X5X5X5X",
"5X5X5X5X5X5X5X5XF . .     h D   K :X_  .o.~ , 9 7 0 r p p s A I.=X5X5X5X5X5X5X5X5X5X5X5X5X5X5X5X",
"5X9X5X5X5X5X9X9XG.< , .   O X O E.oX) ..{ +.( u 7 0 e d A A C C j.1X5X5X5X5X5X5X5X5X5X5X5X0X5X5X",
"5X5X5X5X5X5X9X9X.Xv.x.=       O G.].' ..{ +./ 9 7 0 e s U OX=X=X=X5X5X5X5X5X5X5X5X5X5X5X5X5X5X5X",
"5X5X5X5X5X8X5X7X4XV.b.^ . X   X . D ' ..{ +.! 6 7 0 e a p C [.6X0X5X5X0X5X5X5X5X5X5X5X9X5X5X5X5X",
"5X5X5X5X5X5X5X9X0X$Xb.x.: % +     + ' ..+.+.~ @ 7 0 r c R A R 3X6X5X5X5X5X5X5X5X5X5X5X5X5X5X5X5X",
"5X5X9X5X5X5X5X5X0X6X(.c.#.#.> . X + ' X.{ +.( u 5 0 r a I.1X1X8X5X5X5X5X5X8X5X5X5X5X9X5X5X5X5X5X",
"5X5X5X5X5X5X5X5X6X0X;XM.&.%.X.% X + '  .{ +.( M 5 0 r y U 4X8X8X5X5X5X5X6X5X5X5X5X5X5X5X0X5X5X5X",
"9X5X5X5X5X5X5X5X9X9X6X(.*.%.X.>   + '  .{ +./ u 5 0 r y R 5X8X8X8X5X5X5X5X5X5X5X9X5X5X5X5X5X5X5X",
"5X5X5X5X9X5X5X5X5X9X9X;XM.*.X.' ; * ]  .{ +.< 7 7 0 r a T.0X5X5X6X5X5X5X8X5X5X8X5X5X5X5X5X5X5X5X",
"5X5X5X5X5X5X8X5X5X5X5X5X/.%.$.X.| ` |  .{ ( u 4 7 0 e A 1X5X5X5X8X5X5X5X5X5X5X6X5X5X5X5X5X6X5X8X",
"5X5X5X5X5X5X5X9X9X9X9X0X}.*.$...| | |  .{ ^ O 4 7 0 e Y 5X5X5X5X6X5X5X5X5X8X5X5X5X5X5X8X8X5X5X5X",
"5X5X5X5X6X6X5X*X|.{.|.;X$X*.$...| |  . .{ / @ 4 7 0 e R 5X5X5X5X5X5X5X5X5X5X8X5X5X8X5X6X5X5X5X5X",
"5X5X9X5X5X6X XD.A.C.v.M.M.*.$.X.| | |  .{ / & 4 7 0 e L.9X5X5X8X5X5X5X5X6X5X5X5X6X5X5X5X5X5X5X5X",
"5X7X7X7X5X-XD.B a.h.Z.v.&.%.$...| | | | X.~ O 4 5 0 i [.9X9X5X5X5X5X5X5X5X5X5X5X5X5X5X5X5X5X5X5X",
"5X7X7X7X1Xl.g.a.d.h.f.n.&.%.$...| | ....^ & 4 4 5 8 Y 1X9X9X5X5X5X0X5X5X5X5X5X0X5X8X5X5X5X5X6X8X",
"5X7X7X7X!.v S g.h.h.A.v.&.%.$...| | .. .( = o 4 5 f ].4X0X5X5X9X5X5X5X5X5X5X5X5X5X5X5X6X5X5X5X5X",
"5X5X7X7XQ.l l s.A.g.C.c.&.%.$...| | | { $.< o 4 u -.v._.&X5X9X5X5X5X5X5X5X5X5X5X5X5X5X8X5X5X5X5X",
"5X5X5X9XOXm m a.m.n.b.c.&.%.$.$.| | | ..} ^ 9 9 M 6.5.9.e.S.-X8X8X8X8X5X5X5X8X5X5X5X5X5X5X5X7X5X",
"5X5X7X7X5X#X,X<X{.(.B.v.x.<.@.$.+.+.+.@.,.1.:.3.w.w.w.w.q.q.e.`.4X0X5X5X5X5X5X5X5X5X5X5X5X5X5X5X",
"7X5X5X5X5X9X9X9X0X6X-X&X{.V.8.8.4.4.6.6.5.w.w.5.6.4.5.w.w.q.0.q.z. X5X0X5X5X5X5X5X5X8X5X7X5X5X5X",
"5X5X5X5X5X5X5X5X6X6X0X0X5X2X$XN.X.{ +.o.@.t.( <.,.<.1.8.q.q.q.0.=.e._.*X8X8X5X8X5X5X5X5X5X5X5X5X",
"5X5X5X5X5X5X5X5X5X5X5X5X6X5X5X2X$XN...| { [ ( x.,.<.1.1.w.d.e.0.5.3.3.y.'.4X8X8X5X5X5X5X5X5X5X5X",
"5X5X5X5X5X9X5X7X5X5X5X5X5X5X5X5X9X2X%X)./.^.x./ ,.<.1.1.{.;X&Xz.3.2.2.:.:.p.$X5X5X5X5X5X5X5X5X5X",
"5X5X7X5X5X5X5X5X5X5X5X5X5X5X5X5X5X5X7X5X5X6X%Xu.- - ; i.3X0X0X1XL.A -.>.o.o.t.^.$X4X5X5X5X7X7X5X",
"5X5X5X5X5X5X5X5X5X5X5X5X5X5X5X5X5X5X5X5X5X5X0XK.2 1 1 .X2X6X6X0X7X~.P n N -.O.,.r.B.&X5X9X7X5X5X",
"5X5X5X5X5X5X5X5X9X5X5X5X5X5X5X5X5X5X5X5X7X5X5XoXF.K.3 :X0X5X5X5X8X0X#XW b z n V ;.:.7.E Q.#X8X8X",
"5X5X5X5X5X5X9X5X5X5X5X5X5X5X5X9X5X5X5X5X5X5X5X5XK..XK..X5X9X5X5X8X8X0X1XQ.m z z b m n x z m Q.8X",
"5X9X9X5X5X5X5X5X5X5X5X9X5X5X5X5X9X5X5X5X5X5X5X5X2X>X5X1X5X5X5X5X8X8X5X8X8X#XQ b b Q.Q.Q I P U.5X",
"5X5X5X5X5X5X5X5X5X5X5X5X5X5X5X5X5X5X5X5X5X5X5X9X7X7X5X5X5X5X5X5X8X5X5X5X5X8X1X~.W U.7X7X1X,X1X5X",
"5X5X5X5X5X5X9X5X5X5X5X5X5X5X5X5X5X5X7X5X5X7X5X5X7X5X5X5X5X5X5X5X5X5X5X5X5X5X5X8X5X,X5X5X8X8X8X5X",
"8X5X5X5X5X5X5X5X5X5X9X5X9X5X5X5X5X5X5X5X5X5X5X5X7X5X5X7X5X5X5X5X5X5X5X5X5X5X5X5X5X8X5X5X8X8X5X5X",
"5X5X5X5X5X5X9X5X5X5X5X5X5X5X5X5X5X5X7X5X5X5X5X5X5X5X5X5X5X5X0X5X5X5X5X5X5X5X5X5X5X5X5X5X5X5X5X5X",
"5X5X5X5X5X5X5X5X5X5X5X5X5X9X5X5X5X5X5X5X5X5X5X5X7X5X5X5X5X5X5X5X5X5X0X5X5X5X5X5X5X5X5X5X5X5X8X5X"
};
