/* XPM */
static char *result[] = {
/* columns rows colors chars-per-pixel */
"48 48 200 2 ",
"   c #6F0004",
".  c #710106",
"X  c #7B0505",
"o  c #7F0A06",
"O  c #74060B",
"+  c #780C0A",
"@  c #79170B",
"#  c #770D12",
"$  c #771811",
"%  c #7D161B",
"&  c #7D191E",
"*  c #7B3817",
"=  c #764019",
"-  c #6F4B22",
";  c #765D27",
":  c #785E38",
">  c #6D7639",
",  c #800604",
"<  c #830905",
"1  c #8C0D04",
"2  c #8A1607",
"3  c #851C0A",
"4  c #931405",
"5  c #961407",
"6  c #9C1B05",
"7  c #9F0E12",
"8  c #801619",
"9  c #A31B03",
"0  c #A81D06",
"q  c #B11F04",
"w  c #A10F11",
"e  c #85240C",
"r  c #842A0E",
"t  c #9D340C",
"y  c #8A2F16",
"u  c #A92908",
"i  c #A4380B",
"p  c #AF3A1A",
"a  c #801D22",
"s  c #8D353A",
"d  c #CF1B1E",
"f  c #D71E1F",
"g  c #C32815",
"h  c #D91F20",
"j  c #D82323",
"k  c #D62926",
"l  c #D43B2A",
"z  c #DB3939",
"x  c #9B420F",
"c  c #954012",
"v  c #9C4C12",
"b  c #AE470E",
"n  c #AB5C15",
"m  c #AB6416",
"M  c #A76718",
"N  c #B27B1B",
"B  c #835625",
"V  c #BE492D",
"C  c #B64E37",
"Z  c #AB5E32",
"A  c #8E6C22",
"S  c #85782A",
"D  c #A16825",
"F  c #AA7E33",
"G  c #CB4424",
"H  c #DA703D",
"J  c #923F44",
"K  c #98484C",
"L  c #9F7E46",
"P  c #A25C60",
"I  c #B47879",
"U  c #B37A7D",
"Y  c #DD4646",
"T  c #D44E4E",
"R  c #E77D44",
"E  c #E36969",
"W  c #E47475",
"Q  c #7C9439",
"!  c #7C9356",
"~  c #64B64C",
"^  c #6CB649",
"/  c #66B94E",
"(  c #6CBC4E",
")  c #72B646",
"_  c #7BB643",
"`  c #7EBA46",
"'  c #6EBE50",
"]  c #77BB55",
"[  c #75C24F",
"{  c #7EC84F",
"}  c #75C350",
"|  c #B58B1E",
" . c #9D8524",
".. c #85933B",
"X. c #9E9F35",
"o. c #A18020",
"O. c #B38B29",
"+. c #A89E29",
"@. c #B99B24",
"#. c #83AD3C",
"$. c #89A938",
"%. c #89B83E",
"&. c #98B638",
"*. c #BBA324",
"=. c #BFA925",
"-. c #B6B62C",
";. c #A8A63D",
":. c #A6B634",
">. c #B4BB30",
",. c #C2A924",
"<. c #CABA27",
"1. c #C4BB2A",
"2. c #919047",
"3. c #8D8D5B",
"4. c #AF8749",
"5. c #91AF44",
"6. c #85B840",
"7. c #95B353",
"8. c #BAAB52",
"9. c #80866C",
"0. c #8FA677",
"q. c #B2A874",
"w. c #D7B250",
"e. c #E6AB58",
"r. c #ECB95C",
"t. c #F5B15A",
"y. c #F5BC5E",
"u. c #F8BD5E",
"i. c #CA9277",
"p. c #C6B968",
"a. c #E2B266",
"s. c #8FC044",
"d. c #8DCF52",
"f. c #99C857",
"g. c #A5CC45",
"h. c #A2CA54",
"j. c #95CD6B",
"k. c #B3C66C",
"l. c #CBC854",
"z. c #C7CD58",
"x. c #FAC05F",
"c. c #E2CE62",
"v. c #8C8C8A",
"b. c #B98587",
"n. c #BF9092",
"m. c #97BD82",
"M. c #CE8E84",
"N. c #D1978E",
"B. c #DA9D9F",
"V. c #E99594",
"C. c #E6989A",
"Z. c #D5AB8A",
"A. c #CEABAD",
"S. c #D0A6A3",
"D. c #D1B2B4",
"F. c #D4B7B8",
"G. c #EBA4A4",
"H. c #EBB3B4",
"J. c #AAD488",
"K. c #B7DBAD",
"L. c #BADCB0",
"P. c #CECE8F",
"I. c #D5C88B",
"U. c #EEDE99",
"Y. c #F5D49E",
"T. c #C5C8BA",
"R. c #C1DFB7",
"E. c #CBE7A7",
"W. c #C6E3BB",
"Q. c #CAE4B8",
"!. c #D3E1BA",
"~. c #D9C0C1",
"^. c #DECACB",
"/. c #CED2C3",
"(. c #D7D5D3",
"). c #DDDBDA",
"_. c #E8CBC9",
"`. c #F1C8C9",
"'. c #E3D2D3",
"]. c #EAD7D3",
"[. c #F3DBDB",
"{. c #DBE8CC",
"}. c #E5E5C9",
"|. c #E4F2C9",
" X c #E8EADA",
".X c #F9EFDE",
"XX c #ECE4E4",
"oX c #EAEAE4",
"OX c #EEEBEB",
"+X c #F0E0E0",
"@X c None",
"#X c None",
"$X c None",
"%X c None",
"&X c None",
"*X c None",
"=X c None",
"-X c None",
";X c None",
":X c None",
/* pixels */
"&X&X&X&X&X&X&X&X&X&X&X&X&X&X&X&X&X&X&X=X&X&X&X&X&X&X&X&X=X&X&X&X&X&X&X&X&X&X&X&X&X&X&X&X&X*X=X&X",
"&X&X&X&X&X&X&X&X&X&X&X&X&X&X&X&X&X&X&X&X&X&X&X&X&X&X&X&X&X&X&X&X&X&X&X&X&X&X&X&X&X&X&X&X&X&X&X&X",
"&X&X&X&X&X&X&X&X&X&X&X&X&X&X&X&X&X&X&X&X&X&X&X&X&X&X&X&X&X&X&X&X&X&X&X&X&X=X&X&X&X&X&X&X&X&X&X&X",
"&X&X&X&X&X&X&X&X&X&X&X=X&X&X&X&X&X&X&X&X&X&X&X&X&X&X&X&X&X&X&X&X&X&X&X&X&X&X&X&X&X&X&X&X&X&X&X&X",
"&X&X&X&X&X&X=X&X&X&X&X&X&X&X&X&X&X&X&X&X&X&X&X&X&X&X=X&X&X&X&X&X&X&X&X&X&X&X&X&X&X&X&X&X&X&X&X&X",
"&X&X&X&X&X&X&X&X&X&X&X&X&X&X&X&X&X&X&X&X&X&X&X&X&X&X&X&X&X&X&X&X&X&X&X&X&X&X&X&X&X&X=X&X&X&X&X&X",
"&X&X&X&X&X&X&X&X&X&X&X&X&X&X&X&X&X&X&X&X&X&X&X=X&X&X&X&X&X&X&X&X&X&X=X&X&X&X&X&X&X&X&X&X&X&X&X&X",
"&X&X&X&X&X&X&X&X&X&X&X&X&X&X&X&X&X&X&X&X&X&X&X&X&X&X&X&X&X&X&X&X&X&X&X&X&X&X&X&X&X&X&X&X&X&X&X&X",
"&X&X&X&X&X&X&X&X&X&X&X&X=X&X&X&X&X&X&X&X=X&X&X&X&X&X&X&X&X&X&X&X&X&X&X&X&X&X&X&X&X&X=X&X&X&X&X&X",
"&X&X&X&X&X&X&X&X&X&X&X&X&X&X&X&X&X&X&X&X&X&X&X&X&X&X&X&X&X&X&X&X&X&X&X&X&X&X&X&X&X&X&X&X&X&X&X&X",
"&X&X&X=X&X&X&X&X&X&X&X&X&X&X&X&X&X&X&X&X&X&X&X&X&X&X&X&X&X&X&X&X&X&X;X*X&X&X*X&X&X&X&X&X&X&X&X&X",
"&X&X&X&X&X&X&X&X&X&X&X&X&X&X&X&X&X&X&X&X&X&X&X&X&X&X&X&X&X=X&X&X*X;X;X*X&X&X=X&X&X&X&X&X&X&X=X&X",
"&X&X&X&X&X&X&X=X&X&X&X&X&X&X&X&X&X&X&X&X&X&X&X&X-X-X:X:X&X=X&X&X*X*X=X*X-X-X&X&X&X&X&X&X&X&X&X&X",
"&X&X&X&X&X&X&X&X&X&X&X&X&X&X&X&X&X&X&X&X&X&X&X&X=X-X:X:X:X:X:X:X*X*X XE.E.|.*X&X&X&X&X&X&X&X&X&X",
"&X&X&X&X&X&X&X&X=X&X&X&X&X&X&X&X&X&X&X&X=X=X-X-X-X%X{.L.K.L.W.W.W.J.f.h.z.c.U.%X=X&X&X&X&X&X&X&X",
"&X&X&X&X&X&X&X&X&X&X&X&X&X&X&X&X&X&X&X&X=X-X=X&XR.j.] ~ ~ ~ / } } d.d.l.u.u.e.Y.&X&X&X&X&X&X&X&X",
"&X&X&X&X&X&X&X&X&X&X&X&X&X&X&X&X=X&X&X@X%X=X XJ._ ) ^ ^ ~ ~ ~ ( [ { f.r.u.e.: a..X=X&X&X-X-X-X&X",
"&X&X&X&X&X&X&X&X&X&X&X&X&X&X&X&X&X&X:XS.I !.f._ _ ^ ^ ~ ~ ~ / ( [ [ h.y.u.r.4.t.H.&X&X&X-X;X&X&X",
"&X&X&X&X&X&X&X&X&X&X&X&X&X&X*X:X;X=X=XI y 5.%.6._ ) ^ ^ ~ ~ / ( ' d.f.c.u.y.x.R T  X=X:X;X;X;X;X",
"&X&X&X&X&X&X&X&X&X&X&X&X&X&X*XXX].;XoXC e $.%._ _ ^ ^ ~ ~ ~ / ( ' d.d.z.y.u.t.G d H.:X].XX;X'.@X",
"&X&X&X&X&X&X&X&X&X&X&X&X&X&X:XN.C /.k.x 2 A #.` _ ) ^ ( ~ ~ ( ` s.s.g.g.h.w.H d d B.-XI ~.+XK ^.",
"&X&X&X&X&X&X&X&X&X&X&X&X&X*X:XM.6 O.=.x < < A #.) ) ^ ^ ) &.>.1.1.>.:.%...c 4 w 7 B.OXK ~.A.& ~.",
"&X&X&X&X&X&X&X&X&X&X&X&X&X:X&Xi.6 n 1.v < X o $ S 6.6.:.1.<.<.1.:.&.6.S e 1 o X O A.D.a ^.P & _.",
"&X&X&X&X&X&X&X&X&X&X&X&X&X_.I.O.6 i =.m < o X   r O.M | ,.,.1.>.:.%.#.y 1 < o X O A.P J ^.a J XX",
"&X&X-X-X&X&X&X&X&X&X&X:X XG N @.i 6 N | 2 X X . . + . @ e o.>.-.&.$.#.B 1 < , X % n.& n.b.. U *X",
"&X&X-X-X*X&X&X&X&X=X=X Xp.b b =.M 5 t *.v X X .     .   O L ;.2.3.3.! Q ; 3 o . 8 s # U & & ^.:X",
"&X=X&X-X&X&X&X&X*X*X}.8.+.N u m @.t 4 m @.3 O X   .     $ F.).].OX%XXXT.0.> = # O .   O . I &X&X",
"&X&X*X*X&X&X&X-X#XK.7. .m X.D u n i 1 2 m e O   .   .   & '.*X*X=X=X=X=XoXT.0.2.B $ O % P  X:X&X",
"-X-X:X:X&X:X-X}.k.) ( Q u i p 0 6 5 1 1 < o X           s XX=X&X&X&X&X&X=X=X@X X/.T.F._.@X&X&X&X",
"-X-X-X:X&X XP.5.%._ 2.Z g q 0 9 6 4 4 e * * - ; ; * O   U &X&X&X&X&X&X&X-X-X-X-X:X:X-X-X:X&X&X&X",
"-X-X:X[.V.8.:.X.F V k j Y G 9 9 6 c S 7.! m.L.W.Q.E.q.b.XX=X&X&X&X&X&X&X-X-X&X&X&X&X-X-X&X&X&X&X",
"-X@XC.G h G G l j j j T ].Z.i i F q.9./.v.OX:X:X:X:X&X=X&X&X&X&X&X&X&X&X&X-X&X&X&X&X&X&X&X&X&X&X",
"-X[.z f k Y W E j j E [.:X$XI.I.}.(.).(.).&X&X&X&X&X&X&X&X&X&X&X&X&X&X&X&X&X&X&X&X&X&X&X&X&X&X&X",
"-X@XG.V.H.[.[.Y z V.@X&X*X-X-X-X&X&X&X&X=X&X&X&X&X&X&X&X&X&X&X&X&X&X&X&X&X&X&X&X=X&X&X&X&X&X&X&X",
"&X&X&X&X&X*X`.W `.&X&X&X&X&X-X-X&X&X&X&X&X&X&X&X&X-X&X&X&X&X&X&X&X&X&X&X&X&X&X&X&X&X&X&X&X&X&X&X",
"&X&X&X&X&X&X&X-X&X&X&X&X&X&X&X&X&X&X&X&X&X&X&X&X&X&X&X&X&X&X&X&X&X&X&X&X&X&X&X&X&X&X&X&X&X&X&X&X",
"&X&X&X&X&X&X&X&X&X&X&X&X-X-X-X&X&X&X&X&X&X&X&X&X&X&X&X&X&X&X&X&X&X&X&X&X&X&X&X&X&X&X&X&X&X&X&X&X",
"&X&X&X&X&X&X&X&X&X&X&X&X-X-X&X&X&X&X&X&X&X&X&X&X&X&X&X&X&X&X&X&X&X&X=X&X&X&X&X&X&X&X&X&X&X&X&X&X",
"&X&X&X&X&X&X&X&X&X&X&X&X&X&X&X&X&X&X&X&X&X&X&X&X&X&X&X&X&X&X&X&X&X&X&X&X&X&X&X&X&X&X&X&X&X&X=X&X",
"&X&X&X&X&X&X&X&X&X&X&X&X&X&X&X&X&X&X&X&X&X&X&X-X&X&X&X&X&X&X&X&X&X&X&X&X&X&X&X&X&X&X&X&X&X&X&X&X",
"&X&X&X&X&X-X&X&X&X&X&X&X&X&X&X&X&X&X&X&X&X&X*X&X&X&X&X&X&X&X&X&X&X&X&X&X&X=X&X&X&X&X=X&X&X&X&X&X",
"&X&X&X&X&X&X&X&X&X&X&X&X&X&X&X-X&X&X&X&X&X&X&X&X&X&X&X&X&X&X&X&X&X&X&X&X&X&X&X&X&X&X&X&X&X&X&X&X",
"&X&X&X&X&X&X&X&X&X&X&X&X&X&X&X&X&X&X&X&X&X&X&X&X&X&X&X&X&X&X&X&X&X&X&X&X&X&X&X&X&X&X&X&X&X&X&X&X",
"&X&X&X&X&X&X&X&X&X&X&X&X&X&X&X&X&X&X&X&X&X&X&X&X&X&X&X&X&X&X&X&X&X&X&X&X&X&X&X&X&X&X&X&X&X&X&X&X",
"&X&X&X&X&X&X&X&X&X&X&X&X&X&X&X&X&X&X&X&X&X&X&X&X&X&X&X&X&X-X&X&X&X&X&X&X&X&X&X&X&X&X&X&X&X&X&X&X",
"&X&X&X&X&X&X&X&X&X&X&X&X&X&X&X&X&X&X&X&X&X&X&X&X&X&X&X&X&X&X&X&X&X&X&X&X&X&X&X&X&X&X&X=X&X&X&X&X",
"&X*X&X&X&X&X&X&X&X&X&X&X&X&X&X&X&X&X&X&X&X&X&X&X&X&X&X&X&X&X&X&X&X&X&X&X&X&X&X&X&X&X&X&X&X&X&X&X",
"&X&X&X&X&X&X&X&X&X&X&X&X&X&X&X&X&X&X&X&X&X-X&X&X&X&X&X&X&X&X&X&X=X&X&X&X&X&X&X&X&X&X&X&X&X&X&X&X"
};
