/* XPM */
static char *result[] = {
/* columns rows colors chars-per-pixel */
"48 48 216 2 ",
"   c #6E0004",
".  c #680909",
"X  c #700006",
"o  c #73050B",
"O  c #7B0808",
"+  c #6C100C",
"@  c #79140A",
"#  c #770B11",
"$  c #631B11",
"%  c #791117",
"&  c #7B151B",
"*  c #5F3019",
"=  c #7D220E",
"-  c #642114",
";  c #742913",
":  c #7F1B20",
">  c #6C431F",
",  c #5A4A23",
"<  c #48532C",
"1  c #715429",
"2  c #5F622C",
"3  c #6F6C2C",
"4  c #787A30",
"5  c #605D5F",
"6  c #666364",
"7  c #850B04",
"8  c #8E0F04",
"9  c #8E1105",
"0  c #851408",
"q  c #9A1603",
"w  c #9A1804",
"e  c #A91E01",
"r  c #88230D",
"t  c #862915",
"y  c #95261D",
"u  c #8F3C18",
"i  c #A92003",
"p  c #AB250A",
"a  c #B62501",
"s  c #B82905",
"d  c #B92D09",
"f  c #BB320F",
"g  c #AA2C15",
"h  c #BB3412",
"j  c #801E23",
"k  c #842429",
"l  c #8A2F34",
"z  c #8D353A",
"x  c #CE181C",
"c  c #D5251E",
"v  c #D91F20",
"b  c #D72524",
"n  c #C53528",
"m  c #D4362A",
"M  c #D9393A",
"N  c #BF401F",
"B  c #98621C",
"V  c #906F3E",
"C  c #A66134",
"Z  c #B96337",
"A  c #C14424",
"S  c #C24A2B",
"D  c #D54538",
"F  c #C65639",
"G  c #D53F44",
"H  c #97474B",
"J  c #9B4E52",
"K  c #9D5155",
"L  c #A15A5D",
"P  c #A35D61",
"I  c #A8666A",
"U  c #AD6F73",
"Y  c #B1777A",
"T  c #DC4645",
"R  c #E05858",
"E  c #CB664D",
"W  c #CD6C53",
"Q  c #C36B5B",
"!  c #CF735B",
"~  c #D0765F",
"^  c #E67642",
"/  c #CF7761",
"(  c #D17A64",
")  c #E36A6B",
"_  c #E57575",
"`  c #788634",
"'  c #6E913A",
"]  c #73943B",
"[  c #77A53F",
"{  c #73AA3F",
"}  c #689D49",
"|  c #789C4E",
" . c #5FAD49",
".. c #62A345",
"X. c #79A841",
"o. c #69B446",
"O. c #63B64D",
"+. c #6BB649",
"@. c #67BA4E",
"#. c #6EBC4D",
"$. c #73B645",
"%. c #7BB543",
"&. c #73B947",
"*. c #75B949",
"=. c #6FBB58",
"-. c #75C24F",
";. c #7DC84F",
":. c #76C351",
">. c #7BC457",
",. c #7DC850",
"<. c #BB931F",
"1. c #918C38",
"2. c #AA932F",
"3. c #84B63F",
"4. c #8BB53D",
"5. c #96B63B",
"6. c #A8A72D",
"7. c #B4A525",
"8. c #BBAD26",
"9. c #BBB82C",
"0. c #B1A73D",
"q. c #A8B833",
"w. c #B7B533",
"e. c #C3B426",
"r. c #C6B728",
"t. c #C6B93A",
"y. c #82B641",
"u. c #98BD4B",
"i. c #82BB53",
"p. c #8A9D74",
"a. c #B4BD70",
"s. c #CD9B57",
"d. c #DD995B",
"f. c #C9BC42",
"g. c #DEAA57",
"h. c #EFBE5D",
"j. c #F4BA5D",
"k. c #F9BD5E",
"l. c #D5826C",
"z. c #D68976",
"x. c #E79D7B",
"c. c #89C64B",
"v. c #89CE51",
"b. c #9BCC53",
"n. c #98D656",
"m. c #A5C850",
"M. c #B9DA57",
"N. c #94D06C",
"B. c #B3D270",
"V. c #B9E27F",
"C. c #D2C75A",
"Z. c #E8C15C",
"A. c #F2C15E",
"S. c #CCCC71",
"D. c #F0C26B",
"F. c #898788",
"G. c #B9898B",
"H. c #95A980",
"J. c #B8BBA7",
"K. c #B4B2B3",
"L. c #D99787",
"P. c #C3979A",
"I. c #E58F8B",
"U. c #DEA495",
"Y. c #E0AD9F",
"T. c #CBA6A7",
"R. c #D3ACA9",
"E. c #DAB0A9",
"W. c #D4B7B8",
"Q. c #E7A3A5",
"!. c #EBA3A4",
"~. c #E3B5A9",
"^. c #EBB6B7",
"/. c #96CA80",
"(. c #A9D28B",
"). c #BCE297",
"_. c #B8DAAA",
"`. c #BCE1A1",
"'. c #D3CFB0",
"]. c #E0DAA1",
"[. c #E7C2B9",
"{. c #CFEAAA",
"}. c #DDE6AC",
"|. c #C8E4BD",
" X c #D5EDB7",
".X c #F5E2B9",
"XX c #C0BEC0",
"oX c #C9C9C6",
"OX c #DDC7C8",
"+X c #D5D5D1",
"@X c #E6C9C7",
"#X c #EDD4CD",
"$X c #EED9D4",
"%X c #E6D9D9",
"&X c #F2D9D9",
"*X c #D4E8CC",
"=X c #DAE9CA",
"-X c #E8E7C9",
";X c #EEEBD6",
":X c #F0E1DD",
">X c #F8EDD9",
",X c #E8F1DA",
"<X c #EBE4E4",
"1X c None",
"2X c None",
"3X c None",
"4X c None",
"5X c None",
"6X c None",
"7X c None",
"8X c None",
"9X c None",
"0X c None",
"qX c None",
"wX c None",
"eX c None",
/* pixels */
"8X8X8X8XwX8X8X8X8X8X8X8X8X8X8X8X8X8XqX8X8XwX8X8X8X8X8X8XwX8X8X8XqX8X8X8X8X8X8X8XwX8X8X8X8X8X8X8X",
"8X8X8X8X8X8X8X8X8X8X8X8X8X8X8X$X7XeX8X8X8X8X8X8X8X8X8X8X8X8X8X8X8X8X8X8X8X8X8X8X8X8X8X8X8X8X8X8X",
"8X0X8X8X8X8X8X8X8X8X8X8X8XwX8XY.( $XeXqX8X8X8X8X8X8X8X8X8X8X8X8X8X8X8X8X8X8X8X8X8X8X8X8X8X8X8X8X",
"8X8X8X8X8X8X8XwX8X8X8X8X8X8X8X4X/ S ~.8XeX8X8X8X8XwX8X8X8X8XwX8X8X8X8X8X8XwX8X8X8X8XwX8X8X8X8X8X",
"wX8X8X8X8X8X8XwX8X8X8X8X8X8XwXeX3XW f l.:XeX9XwXwX8X8X8X8X8X8XwX8X8X8XwX8X8X8XqX8X8X8X8X9X8X8X8X",
"8X8X8X8X8X8X8X8X8X8X8X8X8X8X8X$X4X3X! s E [.eXeX8X8X8X8X8X8X8X8X8X0X8X8X8X8X8X8X8XwX9XT.<X8X8X8X",
"8X8X8X8X8X8X8X8X8X8X8X8X8X8X3XW F z.~.E s h E.eX8X8X8X8X8X8X8X8XqX0XwXeX0X8X8XG.%XeXP.Y 9X8X8X8X",
"8X8X8X8XwX8X8X8X8X8X8X8X8X8X8X#XF a n S f i y E.wX8X8XwX8X8X8X8XwXwXeXOXOXwX@Xz %X@Xz OXqX8X8X8X",
"8X8XqX8XwX8X8X8X8X8X8XwX8X8X8XeX:X( d a s i q y R.wX9X9X9XwX9XwXqXqXeXG.I eXG.k #XH L 8X8X8X8X8X",
"8X8X8X8X8X8X8X8X8X8X8X8X8X8X8X8XeX8XY.A a i w 8 y R.wXwX9X9X0X0X7X<XqXI z <XH l Y j W.eX8XwX8X8X",
"8X8X8X8X8X8X8X8X8X8X8X8X8X8X2X$X$X&X:X[.E p q 9 7 t T.wX0X0X0X9X1XP OXP & T.j & & P 8X8X8X8X8X8X",
"8X8X8X8X8X8X8XwXwX8X8X8X8X8XY.F N A S F F p q 9 7 + 1 W.8XwX0X0X8XH I K o L o X j XXeX8X8X8X8X8X",
"wX8X8X8X8X8X8X8X8X8X8X8X8X8X8X#XY.W A s a e w 9 7 ; { } J.8X8XwXwXU % k X #     J 4XqXqX8X8X8X8X",
"8X8X8X8X8X8X8X8X8X8X8X8X8X8X8XeX8X7X:X^.~ g q 9 7 @ ' #...oX9XW.1XP.X X X     X P.qXqXqX8X8X8XwX",
"8X8X8XwX8X8X8X8X8X8X8X8X8X8X8XwXeX4X[.l.S p q 8 7 O 1 &.O.H.3XH K W.& X X X   : #XeXqXqX8X8X8X8X",
"8X8X8X8XwX8X8X8X8X8X8XqX8XwX8X:XU.F d a a i w 8 0 3 ' o.O.| <XU   H k   X . . J 8X8X8XqX8X8XwX8X",
"8X8X8X8X8X8X8X8X8X8X8X8X8XwX4Xl.A A F E h i w 8 t { &.+.+.} +XW.o   #   . 3 3 G.eXwXwXwX8X8X8X8X",
"8X8X8X8X8XwX8X8X8X8X8XwX8X8X8X2X:X2X[.E s e w 9 r [ &.+.+...W.P.#       > c.n.'.eXeX8XwXwX8X8X8X",
"8X8XqX8X8X8X8X8X8X8X8X8X8X8X8XwXeX[.S s a p w 9 0 ` *.&.@...1 #       + | n.V.7XwX8X8X8X8X8X8X8X",
"wX8X8X8X8X8X8X8X8XwX8X8X8X8X8XwX7X( F ! A e w 9 0 ` &.&.O...$ X   $ * 1 c.n.=X8X8X8X8XwX8X8X8X8X",
"8X8X8X8X8X8X8X8X8X8X8X8X8X8X8X8X8X3X4XL.d i w 8 u %.$.+.+...- X + 3 @.-.v.).8X8X8X8X8X8X8X8X8X8X",
"8X8X8X8X8X8X8XwX8X8X8X8XwX8X8X8X8X8X8XW a i w 8 > %.$.$.+...- X * +.:.;.N.,XwX8X8X8X8X8X8XwXqX8X",
"8X8X8XwX8X8X8X8X8X8X8XwX8X8X8X8X8X8X8X! a i w 8 r [ &.+.@...$ X 2 @.-.;.`.8X8X8X8X8XwX8X8X8X8X8X",
"8X8X8X8X8X8XwX8X8X8X8X8X8X8X8X8X8X8XeXY.d i w 9 9 ` &.+.+..., , ..-.-.N.,X8X8XwX8X8X8X8X8X8X8X8X",
"8X8XwX8X8X8X8X8X8X8X8X8X8X8XwX8X8X8X8X3XF e q 9 7 ; X.+.+.O. .O.@.-.-.(.9XwXwXwX8X8X8X8X8X8X8X8X",
"8X8X8X8X8X8X8X8XwX8X8X8X8X8X8X8X8X8X8X8X! e w 9 7 0 ] +.+.O.O.O.@.@.:.|.eXeXwXeXwX8X8X8X8XeX8X8X",
"wX8X8X8X8X8XwX8X8X8X8X8XwX8X8X8X8X8X8X8X/ e w 9 7 = [ +.+.O.O.O.@.-.>.*X,X X{.}.;X9X8X8X8X8X8X8X",
"8X8X8X8X8X8X8X8X8X8X8X8X8X8X8X8X8X8X8X0XL.e w 9 7 = X.+.O.O.O.O.O.-.>.N.N.n.C.A.D..X8X8X8X8X8XwX",
"8X8X8X8X8XwX8X8X8X8X8X8X8X8X8X8X8X8X8XwX[.g w 9 7 @ ` +.+.O.O.O.@.-.:.;.b.Z.k.s.V h.>X8X8X8X8X8X",
"8X8X8X8X8X8X8X8X8X8XqX8X8XwX8X8X8X8XwXwX4XQ q 9 7 O ; ' +.O.O.O.@.#.:.:.m.j.k.g.s.j.x.1XwX8X8X8X",
"8X8X8X8X8X8X8X8X8X8X8X8X8X8X8X8XqXwXwXwXeX'.u 9 7 7 1 { O.@.O.O.@.#.-.;.b.h.k.k.h.^ x ^.eXwXwX8X",
"8X8X8X8X8XeX8X8X8X8XwX8X8X8X8X0X8XwX0X-XS.m.1.0 7 O 4 &.+.O.O.O.@.#.-.;.v.C.j.h.d.c x Q.eX8X8X8X",
"8X8X8XqX8X8X8X8X8X8X8X8X8X8X8X8XqX;XS.t.e.9.q.B 0 = ] &.+.O.O.O.@.-.:.,.v.n.M.M.s.T G @XqX8X8X8X",
"wX8X8X8X8X8XqX8X8X8X8X8X8X8XqX7X].f.e.e.r.r.r.e.<.2.5.3.y.$.+.&.*.*.c.c.b.B.V.{.6X3X&X8XqXqX8X8X",
"8X8X8X8X8X8XqXqX8XqX8X8XqXqX.XS.9.e.e.r.r.w.w.w.9.9.9.9.w.w.q.q.q.u.B.].-X6X9XqXqXwXwX8X8X8X8X8X",
"8X8X8X8X8X8XqXqX8X9X8X8X:XS.w.7.e.8.e.8.q.4.3.3.y.y.y.y.*.*.+.O.N.*X8XeXqX8X8X8X8X8X8X8X8X8X8X8X",
"8X8X8X8X8X8XqXqX8XwX4X'.f.7.7.8.8.f.f.t.5.4.4.y.;.{ +.+.O.=.N.|.9X0X8X8X8X8X8X8X8X8X8X8X8X8X8X8X",
"8X8X8XwX8X8XqXqX9X=Xa.6.6.6.0.2.d.;X6X}.q.5.4.[ { c./.(._.=X9XqX0X8X8X8X0X8X8X8X8X8X8X8X8X8X8X8X",
"8X8X8X8XwXwX9X=X(.i.$.$.4.V Z U.3XeXwX5Xp.2 < < p.*X9XwXeXeXqX8X8X8X8X8X8X8X8X0X8X8X8X8X8X8X8X8X",
"8XeXwXwX7X-XB.u.3.3.1.C n T ^.qXwX0X0X9XoX5 5 6 '.eXwX9XqX0XqXqX8X8X8X0X8X8X8X8X8X8X8X8X8X8X8X8X",
"qXqX&X!.l.0.2.2.Z n b b _ &XeX8X8X8X8XeX<X6 K.F.+XeX8X8X8X8X8X8X8X8X8X8X8X8XeX8X8X8X8X8X8X8X8XqX",
"qX!.M b v m D b v x M !.4XeX8X8X8X8X8X8XoXK.oXK.8X8X8X8X8X8X8X8X8X8X8X8X8X8X8X8XqX8X8X8X8X8X8X8X",
"8XI.T R _ !.!.m b _ #XqXeX8XeX8X8X8X8X8X1X8X1X8X8X8X8X8X8XqX8X8X8X8X8X8X8X8X8X8X8X8X8X8X8X8X8X8X",
"qX4X3X7XwXwXI.) ^.8XeXqX8X8X8X8X8X8X8X8X8X8XwX8X8X8X8X8X8X8XqX8X8XeX8X8X8X8XwX8X8X8X8X8X8X8X8X8X",
"qX8XqXqX8X8X:X7XeX8X8X8X8X8X8X8X8X8X8X8X8X8X8X8X8X8X8X8X8X8X8X8X8X8X8X8X8X8X8X8X8X8X8X8X8X8X8X8X",
"qXqX8X8X8X8XeXeX8X8XeX8X8X8X8X8X8X8X8XqX8X8X8X8X8X8X8X8X8X8X8X8X8X8X8X8X8X8X8X8X8X8X8X8X8X8X8XeX",
"8X8X8X8X8X8XeX8X8X8X8X8X8X8X8X8X8X8X8X8X8X8X8X8X8X8X8X8X8X8X8X8X8X8X8X8X8X8X8X8X8XeX8X8X8X8X8X8X",
"8X8X8X8X8X8X8X8X8X8X8X8X8X8X8X8X8X8X8X8X8X8X8X8X8X8X8X8XqX8X8X8X8X8X8X8X8X8X8X8X8X8X8X8X8X8X8X8X"
};
