/* XPM */
static char *result[] = {
/* columns rows colors chars-per-pixel */
"48 48 210 2 ",
"   c #6E0000",
".  c #6E0B05",
"X  c #720102",
"o  c #7C0101",
"O  c #740C07",
"+  c #740708",
"@  c #6C1409",
"#  c #7C1416",
"$  c #70290F",
"%  c #6C3817",
"&  c #6B4A1F",
"*  c #764D1C",
"=  c #6B6D2C",
"-  c #6D7A56",
";  c #696567",
":  c #810404",
">  c #970C00",
",  c #9A0D00",
"<  c #9D1101",
"1  c #991606",
"2  c #8C1212",
"3  c #A21400",
"4  c #AA1700",
"5  c #AA1B02",
"6  c #942508",
"7  c #913413",
"8  c #AC2109",
"9  c #A82816",
"0  c #B52D12",
"q  c #B6361E",
"w  c #842325",
"e  c #8A2E30",
"r  c #8C3234",
"t  c #913B3C",
"y  c #B63E28",
"u  c #AB3C30",
"i  c #CB0D13",
"p  c #D91D1C",
"a  c #DA2A2A",
"s  c #CB3223",
"d  c #D33327",
"f  c #DC3333",
"g  c #8E4F18",
"h  c #8A541B",
"j  c #8D5A1C",
"k  c #99661C",
"l  c #B5512D",
"z  c #AF4032",
"x  c #B94C39",
"c  c #8D6A2C",
"v  c #A27E32",
"b  c #D24A2A",
"n  c #954244",
"m  c #99494B",
"M  c #9D5253",
"N  c #A24949",
"B  c #BD5949",
"V  c #A25A5B",
"C  c #BB6359",
"Z  c #A96769",
"A  c #BF6C63",
"S  c #B27879",
"D  c #C55C45",
"F  c #E04E4E",
"G  c #E05252",
"H  c #C76753",
"J  c #DC5F63",
"K  c #CA7566",
"L  c #DE7665",
"P  c #C87D72",
"I  c #E46D6D",
"U  c #5F8135",
"Y  c #768734",
"T  c #7D9034",
"R  c #6FAD3E",
"E  c #7CA83C",
"W  c #7FB73F",
"Q  c #619F41",
"!  c #779E4A",
"~  c #79845A",
"^  c #69AB47",
"/  c #78A74B",
"(  c #6CB647",
")  c #6DB947",
"_  c #63B74B",
"`  c #68B749",
"'  c #64B94C",
"]  c #69BC4D",
"[  c #73B543",
"{  c #72B844",
"}  c #6DBB52",
"|  c #71C14E",
" . c #7AC64F",
".. c #7BC750",
"X. c #79C064",
"o. c #8D8B34",
"O. c #B38F31",
"+. c #92A92E",
"@. c #93AD37",
"#. c #84B43C",
"$. c #8AB53B",
"%. c #86B93D",
"&. c #96B837",
"*. c #9EBA33",
"=. c #B5A722",
"-. c #BBAB22",
";. c #ABB92F",
":. c #BCB525",
">. c #B3BB2C",
",. c #A5BA32",
"<. c #C3B31F",
"1. c #C4B522",
"2. c #C4B924",
"3. c #CABA22",
"4. c #C7B82E",
"5. c #C7BA32",
"6. c #AB9A4F",
"7. c #83BD47",
"8. c #97B142",
"9. c #8ABD50",
"0. c #928562",
"q. c #AE8C79",
"w. c #8EAD70",
"e. c #BFB866",
"r. c #C3B947",
"t. c #C9B953",
"y. c #EBA854",
"u. c #F7B95C",
"i. c #F7BD5E",
"p. c #CB857B",
"a. c #D08475",
"s. c #D48C7E",
"d. c #C0BF74",
"f. c #ECBC69",
"g. c #87C347",
"h. c #9EC64B",
"j. c #85CC50",
"k. c #9CCA52",
"l. c #91D453",
"z. c #9EDD52",
"x. c #A9CB54",
"c. c #ACE456",
"v. c #BDF159",
"b. c #A6D967",
"n. c #B5D678",
"m. c #CACC5B",
"M. c #EAC05D",
"N. c #D6CB67",
"B. c #D5CC77",
"V. c #C5EE77",
"C. c #868385",
"Z. c #BC8A8B",
"A. c #BF8F90",
"S. c #B9B7B8",
"D. c #D78B86",
"F. c #CE9088",
"G. c #D69689",
"H. c #C29596",
"J. c #E58486",
"K. c #EA9798",
"L. c #DDA582",
"P. c #D7A29A",
"I. c #DBA59B",
"U. c #CDA6A6",
"Y. c #DBB0AB",
"T. c #D7B7B6",
"R. c #EDADAD",
"E. c #E5B8AB",
"W. c #99D089",
"Q. c #B1D68F",
"!. c #BFE48C",
"~. c #D1D794",
"^. c #C9E994",
"/. c #C8C5B7",
"(. c #C5DCB5",
"). c #E5D3B2",
"_. c #D5E7B6",
"`. c #DFF2BC",
"'. c #E5EEB7",
"]. c #C7C6C6",
"[. c #DBC3C4",
"{. c #DFCBCC",
"}. c #D0D2C4",
"|. c #E7CAC4",
" X c #E7C8C6",
".X c #F1C7C7",
"XX c #EBD2CD",
"oX c #E9D7D5",
"OX c #EBDBDC",
"+X c #F3D8D8",
"@X c #CEE6C8",
"#X c #D4E7CA",
"$X c #EAE7C8",
"%X c #ECEACB",
"&X c #E2F0C0",
"*X c #E8E8DB",
"=X c #F3E5DC",
"-X c #E6F2D6",
";X c #EDE3E2",
":X c #EBE8E8",
">X c #F2E7E4",
",X c #F3EDED",
"<X c #E6F0E3",
"1X c None",
"2X c None",
"3X c None",
"4X c None",
"5X c None",
"6X c None",
"7X c None",
/* pixels */
"3X3X3X3X3X3X3X3X3X3X3X6X3X3X3X6X3X3X3X3X3X3X3X3X3X3X3X3X3X3X3X3X3X3X3X3X3X3X3X3X3X3X3X3X3X3X3X3X",
"3X3X3X3X3X4X3X3X3X3X3X3X3X3X3X3X3X3X3X3X3X3X3X3X3X3X3X3X3X3X3X3X3X3X3X3X6X3X3X3X6X3X3X3X3X3X3X3X",
"3X3X3X3X3X3X3X3X3X3X3X3X3X3X3X3X3X3X3X3X3X3X3X3X3X3X3X3X3X3X3X3X6X3X3X3X3X3X3X3X6X3X3X3X6X3X3X3X",
"3X3X4X3X3X3X6X3X3X3X3X3X3X3X3X3X3X3X3X3X3X3X3X3X3X3X3X3X3X3X3X3X3X3X3X3X3X3X3X3X3X3X3X3X3X3X3X3X",
"3X3X3X3X3X3X3X6X3X3X3X6X3X3X3X3X6X3X3X3X6X3X3X3X3X=XY.3X3X3X3X3X3X3X3X3X3X3X3X3X3X3X3X3X3X3X3X3X",
"3X3X3X3X3X3X4X,X3X6X3X3X3X4X3X3X3X3X3X3X3X3X3X3X4XT.p.3X3X3X3X3X3X5X3X3X6X3X3X3X3X3X3X3X3X3X3X3X",
"3X3X3X3X3X3X3XA.OX6X3X3X3X3X3X3X3X3X3X3X3X3X3X3X4XF.K 6X3X4X3X3X3X3X3X3X3X3X3X3X3X3X3X5X3X3X3X3X",
"3X3X3X3X3X3X3XM U.7X7X7X3X3X3X3X3X3X3X3X3X3X3X3X3XC P 4X3XXX3X3X3X3X3X3X3X3X3X3X3X3X3X3X3X3X6X3X",
"3X3X3X3X3X3X3Xn S 7XOX:X7X3X3X3X3X3X3X3X3X3X4X5X>Xz p.7X Xa.3X4X3X3X3X3X5X3X6X3X3X3X3X3X3X3X3X3X",
"3X3X3X3X3X3X,Xr m ,XV T.7X3X3X3X3X3X3X5X4X3X4X6XXX9 G.6XH G.4X4X3X3X3X3X3X3X3X3X3X3X3X3X3X3X3X3X",
"3X3X3X3X3X3X,Xt r T.# [.7X4X3X3X3X3X3X3X3X3X5X5XT.1 P.T.y |.4X4X3X3X3X3X3X3X3X3X5X3X3X3X3X3X3X3X",
"3X3X3X3X3X3X,Xt # M # {.7X4X4X4X3X3X3X3X3X3X5X5XF.1 P.D x 2X4X4X5X3X3X3X3X3X3X3X3X3X3X3X3X5X3X5X",
"3X3X3X3X3X3X,Xn . + # :X{.U.4X4X3X3X3X3X4X3X3X3XA 3 K 5 D.4X4XOX=X5X3X3X3X3X3X3X3X3X3X3X3X3X3X3X",
"3X3X3X3X3X3X3Xn     t T.w Z 4X4X3X4X3X3X4X4X5X;Xu 1 9 9 |.,XL.D XX6X3X3X3X3X5X3X3X3X3X3X3X3X3X3X",
"3X3X3X3X3X3X3Xm     r r   U.7X4X3X3X3X3X4X4X5XY.1 1 < B |.H 0 I.3X3X3X3X3X3X3X3X3X3X3X5X3X3X3X3X",
"3X3X3X3X3X3X3XV     +   e {.A.{.6X3X6X3X4X4X4XC , 1 3 x y 5 G.3X6X5X3X3X3X3X3X3X3X3X3X3X3X3X3X3X",
"3X3X7X3X4X4X4XZ   X   X n n # [.6X3X3X3X5X7X|.9 > , 3 3 8 s.,X3X3X3X3X5X3X3X3X3X3X5X3X3X3X3X3X5X",
"3X3X3X3X4X4X7XZ.    X   +   V >X3X3X3X3X5X5Xq.$ > , 3 3 x s.K H ).7X3X3X3X3X3X3X3X3X3X3X3X3X3X3X",
"3X3X3X3X3X3X7XT.O .   X   + m V OX6X3X3X7X}.! * > < < 3 5 5 q s.>X3X3X3X3X3X3X3X3X3X3X3X3X3X3X3X",
"3X3X4X3X3X3X3X*X6.8.*     X + S 3X6X3X6X7Xw.E % , < 3 3 5 D E.2X7X3X3X3X3X3X3X3X3X3X3X3X3X3X3X3X",
"3X3X3X3X3X3X3X3X`.v.h.$ X X + n H.;X4X4X3Xw.( o.1 < 3 3 5 0 s D |.7X3X3X5X3X3X3X3X3X3X3X3X3X3X3X",
"3X3X3X3X3X3X3X7X2XV.c.8.= @ X   o N oX3X3Xw.[ E 7 , 3 3 5 5 0 H XX7X3X7X3X3X3X3X3X3X3X3X3X3X3X3X",
"3X3X3X3X3X3X3X3X7X`.c.z.l.Y .   X o V ,X:XX.[ E 6 < 3 3 5 8 G.3X7X3X3X3X3X3X3X3X3X5X3X3X3X3X3X5X",
"7X3X3X3X3X3X3X7X7X2X^.z.l.j.% . o o : U.;X/ [ / j < 3 3 5 5 K 3X3X3X3X3X3X3X3X3X3X3X3X3X3X3X3X3X",
"3X3X3X3X3X3X3X3X3X4X-Xb.l...T & . o o N /.^ [ W j , 3 4 4 3 K 3X3X3X3X3X3X3X3X3X3X3X3X3X3X3X3X3X",
"3X3X3X3X3X3X3X3X3X3X4X_.l.j...| = o : 2 0.( { E 6 < < 4 5 8 I.3X3X3X3X3X3X3X3X3X3X3X3X3X3X3X3X3X",
"3X3X3X3X3X3X7X3X3X3X6X2X!.....| _ $ o o = ) R g , < < 3 4 l =X6X3X3X3X5X6X3X3X3X3X3X5X3X3X3X3X3X",
"3X3X3X3X3X3X3X3X4X3X&X!.b.....| ' = O % ^ ) ( h > < 3 3 4 P.6X3X3X3X3X3X3X5X3X3X3X3X3X3X3X3X3X3X",
"3X3X3X3X3X3X3X3X3X).O.m.x.j...| ] _ U Q ` ) [ g , < , 3 H ,X5X5X3X3X3X3X3X3X3X3X3X3X3X3X3X3X3X3X",
"3X3X3X3X3X3X3X7X=Xf.v y.i.k...| ] ' ' ' ` ) Y 1 , , 3 y XX5X3X3X6X3X3X3X5X3X3X3X6X3X5X3X3X3X3X5X",
"3X3X3X3X3X6X7XOXL y.M.u.i.x...| ] ' _ _ ` ) Y > > , 3 P.5X3X3X3X3X3X3X3X3X3X3X3X3X3X3X3X3X3X3X3X",
"3X6X3X5X3X6X6XD.i b u.u.f.k...| ] ' ' _ ] { R c 7 g k d.$X3X5X3X3X3X3X3X3X3X3X3X3X3X3X3X3X3X3X3X",
"3X3X3X3X3X3X6XJ.i d t.m.z.j. .} ` ' _ ' ' ` { W #.*.>.2.5.N.'.,X5X5X5X5X4X3X3X3X3X4X3X3X3X3X3X3X",
"3X3X3X3X3X3X6X.XJ E.~.V.b.k.g.g. .W W W %.&.,.;.:.3.<.3.1.1.4.B.%X5X5X3X4X4X3X3X3X3X3X3X3X3X3X3X",
"3X3X3X3X3X3X3X3X,X5X3X2X1X%X~.h.&.*.,.;.;.>.>.>.;.,.>.:.1.1.<.<.5.B.%X5X4X4X3X4X3X3X3X6X3X3X4X3X",
"3X3X6X3X3X3X3X3X3X3X3X3X6X3X3X#XW.} _ _ ` { W { 7.%.%.*.1.1.<.<.-.<.r.~.>X4X3X3X3X3X3X3X3X6X3X3X",
"3X3X3X3X3X3X3X3X6X3X3X3X3X3X3X6X3X@XW.X.} ( [ 7.W #.$.&.:.5.m.t.<.=.=.=.r._.3X4X3X3X3X3X3X3X3X3X",
"3X3X3X3X3X3X3X5X3X3X3X3X3X3X3X3X5X5X3X<X#X(.(.Q.9.#.$.@.d.$X3X;Xf.D O.@.+.8.n.#X2X3X6X3X3X3X3X3X",
"3X3X6X3X3X3X3X3X3X3X3X3X3X6X3X3X3X3X3X5X5X7X7X7X(.- ~ - ].3X4X4X4XR.D x c / [ 7.n._.1X7X6X3X3X3X",
"3X3X3X3X3X6X3X3X3X3X3X3X3X3X3X3X3X3X3X4X5X5X3X6X:XC.S.; ;X3X3X3X4X4X+XI f y l v +.@.e.R.XX3X4X3X",
"7X3X3X3X3X3X3X3X3X3X3X5X3X3X3X3X3X3X3X5X3X3X3X3X6X].].S.}.3X3X3X3X3X3X3XR.F p p a b b p f I +X3X",
"3X3X3X3X3X3X3X3X3X3X3X3X3X3X3X3X3X3X3X3X3X3X6X3X6X5X3X4X3X3X3X3X3X3X3X6X3X+XJ.f a K.K.I G F .X4X",
"3X3X5X3X3X3X3X3X3X6X3X3X3X3X3X3X3X3X6X3X3X3X3X3X5X3X3X3X4X4X3X3X3X3X3X3X3X6X3X.XJ.K.5X3X,X>X3X3X",
"3X3X3X3X3X3X3X3X3X3X3X3X3X3X3X3X3X3X3X3X3X3X3X3X3X3X3X3X3X3X3X3X3X3X3X3X3X3X3X6X5X,X3X3X3X3X3X3X",
"3X3X3X3X3X6X3X3X3X5X3X3X3X3X3X5X3X3X3X3X3X3X3X3X3X3X3X3X3X3X3X3X3X3X3X3X3X3X3X6X3X3X3X6X3X3X3X3X",
"3X3X3X3X3X3X3X5X3X3X3X3X3X6X3X3X3X3X3X3X3X3X6X3X3X3X3X3X3X3X3X3X3X3X3X3X3X3X3X3X3X3X3X3X3X3X6X3X",
"3X3X3X3X3X3X3X3X3X3X3X3X3X3X3X3X3X3X3X3X3X3X3X3X3X3X3X3X3X3X3X3X3X3X3X3X3X3X6X3X3X3X3X3X3X3X3X3X",
"3X3X3X3X3X3X3X3X3X3X3X3X3X3X3X3X6X3X3X3X3X3X3X3X3X3X3X6X3X7X3X3X3X3X3X3X3X3X3X3X3X3X3X3X3X3X3X3X"
};
