/* XPM */
static char *result[] = {
/* columns rows colors chars-per-pixel */
"48 48 219 2 ",
"   c #6E0003",
".  c #660F0C",
"X  c #730105",
"o  c #7E0805",
"O  c #751C0E",
"+  c #760B10",
"@  c #7A1318",
"#  c #622E17",
"$  c #762711",
"%  c #7F1C21",
"&  c #4C3524",
"*  c #6D441D",
"=  c #7A491C",
"-  c #7A5B20",
";  c #5A7433",
":  c #72712E",
">  c #4E4D4C",
",  c #636263",
"<  c #850B05",
"1  c #8A0E04",
"2  c #861106",
"3  c #8E1005",
"4  c #8A140C",
"5  c #931304",
"6  c #981604",
"7  c #941D07",
"8  c #9E1904",
"9  c #8E1B14",
"0  c #A31B03",
"q  c #AA1E03",
"w  c #902C0D",
"e  c #9A2314",
"r  c #A62406",
"t  c #B12707",
"y  c #AA2F12",
"u  c #AD341C",
"i  c #801D23",
"p  c #852428",
"a  c #962C24",
"s  c #99322B",
"d  c #892D31",
"f  c #8C3337",
"g  c #973937",
"h  c #A93D2D",
"j  c #CD151A",
"k  c #D7211E",
"l  c #D91F21",
"z  c #D82122",
"x  c #D62C2A",
"c  c #C93527",
"v  c #DB3938",
"b  c #AE4E11",
"n  c #AC6418",
"m  c #B64128",
"M  c #B34C3B",
"N  c #B9523F",
"B  c #8C772E",
"V  c #AD732E",
"C  c #C4472B",
"Z  c #D94E33",
"A  c #E06D3E",
"S  c #933F44",
"D  c #944C47",
"F  c #9B4F53",
"G  c #9E5458",
"H  c #A24B47",
"J  c #A34D49",
"K  c #AC574F",
"L  c #B85747",
"P  c #A45858",
"I  c #977542",
"U  c #BB6558",
"Y  c #A55E61",
"T  c #8A6B65",
"R  c #A76668",
"E  c #B26B68",
"W  c #B9716B",
"Q  c #AC6D71",
"!  c #AE7175",
"~  c #B37778",
"^  c #D74D49",
"/  c #E05758",
"(  c #C2624E",
")  c #C66E5C",
"_  c #C67768",
"`  c #CB7E6E",
"'  c #DF7477",
"]  c #E37272",
"[  c #6C983B",
"{  c #79973B",
"}  c #7EAD3E",
"|  c #5FA647",
" . c #6BA442",
".. c #61AC49",
"X. c #75A643",
"o. c #66B74B",
"O. c #6BB64A",
"+. c #6CBD4E",
"@. c #74B645",
"#. c #78BC49",
"$. c #6CBB56",
"%. c #7DBF64",
"&. c #7CC54F",
"*. c #78C451",
"=. c #91903C",
"-. c #B3942F",
";. c #A69530",
":. c #87AD3B",
">. c #93A53B",
",. c #89B63D",
"<. c #96B639",
"1. c #ACA427",
"2. c #BCAD26",
"3. c #B4A929",
"4. c #B6B52C",
"5. c #BBB92C",
"6. c #B6A934",
"7. c #A8B934",
"8. c #B6BC35",
"9. c #C4B527",
"0. c #CCBB27",
"q. c #C5B729",
"w. c #C3BB2A",
"e. c #C8BE3A",
"r. c #9EC23F",
"t. c #ABC53C",
"y. c #85B845",
"u. c #A5BF4E",
"i. c #AB867E",
"p. c #AFA97B",
"a. c #C4B94B",
"s. c #D3A254",
"d. c #DFBF5B",
"f. c #EEBE5D",
"g. c #F7B65C",
"h. c #F3BB5D",
"j. c #C5837A",
"k. c #D28A7A",
"l. c #D29F74",
"z. c #F5B56B",
"x. c #9EC948",
"c. c #88CA52",
"v. c #96D753",
"b. c #A6D349",
"n. c #A8C459",
"m. c #B7CB56",
"M. c #ADD156",
"N. c #A8E158",
"B. c #9AC56C",
"V. c #92CB71",
"C. c #BAC667",
"Z. c #B4DF65",
"A. c #BDE47E",
"S. c #C9C359",
"D. c #D0CF6C",
"F. c #ECC866",
"G. c #B57E80",
"H. c #BB8789",
"J. c #A2A1A2",
"K. c #B5B4B4",
"L. c #C68C87",
"P. c #D48D85",
"I. c #CA918B",
"U. c #D59283",
"Y. c #D2978D",
"T. c #D3988D",
"R. c #C39393",
"E. c #C59A9B",
"W. c #C99C9B",
"Q. c #D29B93",
"!. c #E78889",
"~. c #E99696",
"^. c #D7A59D",
"/. c #CAA7A6",
"(. c #CBA7A9",
"). c #D6ABA6",
"_. c #D8B1AD",
"`. c #D0AFB1",
"'. c #D6B8B8",
"]. c #EBA8A8",
"[. c #EBBEBA",
"{. c #B4D28F",
"}. c #BFE0B0",
"|. c #CDCE93",
" X c #F9D18C",
".X c #CCDBA6",
"XX c #E2CCB1",
"oX c #E2DEB6",
"OX c #DFECAC",
"+X c #CDE9B5",
"@X c #D5E6B9",
"#X c #DCC5C5",
"$X c #D8D8D8",
"%X c #E5CAC9",
"&X c #F0C9C9",
"*X c #E6D2D0",
"=X c #E5D3D3",
"-X c #EADAD8",
";X c #EADDDC",
":X c #F2D6D6",
">X c #F4DDDE",
",X c #D4E7CC",
"<X c #E6E6C5",
"1X c None",
"2X c None",
"3X c None",
"4X c None",
"5X c None",
"6X c None",
"7X c None",
"8X c None",
"9X c None",
"0X c None",
"qX c None",
"wX c None",
"eX c None",
"rX c None",
"tX c None",
"yX c None",
/* pixels */
"wXwXwXwXwXwXwXwXwXwXwXwXtXwXwXwXwXwXwXwXwXwXwXwXwXwXwXwXwXwXtXwXwXwXwXwXwXwXwXwXwXwXwXwXwXwXwXwX",
"wXwXwXwXwXwXwXtXwXwXwXwXwXwXwXwXwXtXwXwXwXwXwXwXwXwXwXwXwXwXwXwXwXwXwXwXwXwXwXwXwXwXwXwXwXwXwXwX",
"wXwXwXwXrXwXwXwXwXwXwXwXwXwXwXwXwXwXwXwXwXwXwXwXrXwXwXwXwXwXwXwXwXwXwXwXwXwXwXwXwXwXwXwXtXwXwXwX",
"wXwXwXwXwXwXwXwXwXwXwXwXwXwXwXwXwXwXwXwXwXwXwXwXwXwXwXwXwXrXwXwXwXwXwXwXwXtXwXwXwXtXwXwXwXwXwXwX",
"wXwXwXwXwXwXwXwXwXwXwXwXwXwXwXwXwXwXwXwXwXwXwXwXwXwXwXrXwXwXwXwXwXwXwXwXwXwXwXwXwXwXwXwXwXtXwXwX",
"wXwXwXwXwXwXwXwXwXwXtXwXwXwXwXwXwXwXwXwXtXwXwXrXwXwXwXwXwXwXwXwXwXwXwXwXwXwXwXwXwXwXwXwXwXwXwXwX",
"wXwXwXwXtXwXwXwXwXwXwXwXwXwXwXwXrXwXwXwXwXwXwXwXwXwXwXwXwXwXwXwXwXwXwXeXwXwXwXwXwXwXwXwXwXwXwXwX",
"tXwXwXwXwXwXwXwXwXwXwXwXwXrXwXwXwXwXwXwXwXwXwXwXwXwXwXwXwXwXwXrXtXtXtXeX5X+X+X1XwXwXwXwXwXwXwXwX",
"wXwXwXwXwXwXwXwXwXwXwXtXwXwXtXwXwXwXwXwXwXwXwXwXwXwXtXtXtXyXwX9X,X,X,X}.%.v.M.D.OXwXwXwXwXwXwXwX",
"wXwXwXwXwXwXwXwXwXwXwXwXwXwXwXwXwXwXwXwXwXwXwXrXwXrXtX0X,X{.V.%.$.$.$.$.*.v.f.h.F.1XwXwXwXwXwXwX",
"wXwXwXwXrXwXwXwXwXwXwXwXwXwXwXwXrXwXwXwXwXwXrXwXrX5X.XB.y.@.O.O...o.o.*.c.d.h.I s. X0XyXwXwXwXwX",
"wXwXwXwXwXwXwXwXwXwXwXwXwXwXwXwXwXwXwXwXwXwXrX0X.Xn.,.,.@.@.O.o.| ..o.o.c.f.h.I s.z.3XtXwXwXwXwX",
"wXwXwXwXwXwXwXwXwXwXwXwXwXwXwXwXwXwXwXwXtXwX<XC.7.<.<.,.y.@.@.O.| | *.*.&.f.F.h.g.Z P.wXwXwXwXwX",
"wXtXwXwXwXwXwXwXwXwXwXwXwXwXwXwXwXwXrXtXqX|.8.5.5.w.5.5.7.y.@.o.| | o.*.&.m.g.h.A j v 7XtXwXwXwX",
"wXwXwXwXtXwXwXwXwXwXtXwXwXwXwXwXwXwXtX2XD.q.9.0.0.0.0.0.0.0.4.<.}  .+.#.*.c.M.m.C j x *XtXtXwXwX",
"wXwXwXwXwXwXwXwXwXwXwXwXwXwXwXtXwXtX1XS.9.9.0.q.4.7.7.5.t.0.0.0.2.1.7.r.r.x.b.Z.l.' ' :XtXwXwXwX",
"wXwXwXwXwXwXwXwXwXwXwXwXwXrXwXwXrX<Xe.9.9.0.9.3.<.<.:.,.,.<.t.w.3.3.w.w.t.t.b.A.0XtXwXwXwXwXwXwX",
"wXwXwXwXwXwXwXwXwXwXwXwXwXwXrX0XoXa.9.9.9.9.5.;.B B - } [ [ [ @.[ X.#.&.c.c.v.N.@XwXwXwXwXwXwXwX",
"wXwXwXwXwXwXwXwXwXwXwXwXwXrX4X|.6.2.9.9.9.9.4.n 8 7 7 = $ * # ; ; | o.+.&.c.v.b.Z.2XwXwXwXwXwXwX",
"wXwXwXwXwXwXwXwXwXwXwXrXrXoXa.3.2.2.2.9.9.2.4.b q 8 6 1 < o X . O :  .: { c.} x.N.|.wXwXwXwXwXwX",
"wXwXwXwXwXwXwXwXwXwXwX5X|.6.1.3.3.3.s.XXD.e.7.b q 0 6 5 < o X X 1 r w 6 = : $ B b.p.wXwXwXwXwXwX",
"wXwXwXwXwXwXwXwXrXwX@XB.X.:.:.>.V ] :XwX6X|.1.y q 8 6 5 < o X   3 t q 8 5 2 < O * Q wXwXwXwXwXwX",
"wXrXwXwXwXwXwXwX<X{.y.@.o.X.V C ] >XwXwXJ.> & r r 0 6 3 < o X X e y r 8 6 3 < X   Y wXwXwXwXwXwX",
"wXtXtXwXwXwX7X|.u.<.y.=.M c x ' 3XwXwX9X$X> T m u 0 6 a 4 < X   P ( 0 8 5 3 < o   Y wXwXwXwXwXwX",
"wXwXwXwX:X!./ -.-.V C z l x !.qXwXwXwXwX,X, /.D u 8 e ` 4 d d X ~ U.q 8 3 e g o   G wXeXwXwXwXwX",
"wXwXrX[.v l k c v x l l v ].wXrXwXwXwXwXK.K.K.i.y y h ).4 Q P   H.k.0 y e L.W p f F wXeXwXwXwXwX",
"wXwXyX].v v / !.].^ l / &XyXyXrXwXwXwXwX6XwX6X^.h L L _.4 W.P   H.` u _ K %XP P R D qXeXwXwXwXwX",
"wXwXwX8X&X:X8XwX~.v !.>XyXyXrXrXwXwXwXwXwXwXyXT.C U _ `.9 '.G   R.k.N ^.U 4XK W ~ S qXyXwXwXwXwX",
"wXwXwXyXrXyXwXwXXX&XrXrXwXwXwXwXwXwXwXwXwXwXyXU.U L P._.a %XP   E.[.U _._ 8XJ G.E.d 4XwXwXwXwXwX",
"wXwXwXwXwXwXwXwXtXtXrXrXwXwXwXwXwXwXwXwXwXwXyXU.) N Q.'.s -XR X (.-X( ).` qXH L.`.p $XyXwXwXtXwX",
"wXwXwXwXwXwXwXwXwXwXwXwXwXtXwXwXwXwXwXwXwXwXyX).k.M Q.'.s ;X!   /.4XP.Y.I.eXH R.=Xi (.rXwXwXwXwX",
"wXwXwXwXwXwXwXwXwXwXwXwXwXwXwXwXwXwXwXwXwXyXyX7X*XM Q.#Xs -XH.  E.wX8XL.^.eXJ R.6Xd Q rXwXwXwXwX",
"wXwXwXwXwXwXwXyXwXwXwXwXwXwXwXwXwXwXwXwXwXwXwXyX0XM Y.*Xa #X(.X H.yXyXj._.wXJ W.rXP S 6XwXwXwXwX",
"wXwXwXwXwXwXwXwXwXwXwXwXwXwXwXwXwXwXwXwXwXwXwXwXwXU P.;Xs _.#X+ ! wXyXQ.XXwXP W.yXH.@ #XrXwXwXwX",
"wXwXwXwXwXwXwXwXwXwXwXwXwXwXwXwXwXwXwXwXwXwXwXwXtXY.^.4Xg R.;X@ F wXyX8XqXwXE W.yX'.+ R.yXwXwXwX",
"wXwXwXwXwXwXwXwXwXwXwXwXwXwXwXwXwXwXwXwXwXyXwXwXwX7X;XwXJ W qXD p 4XwXwXwXwX~ E.yX4Xp G wXwXwXwX",
"wXwXwXwXwXwXwXwXwXwXwXwXyXwXwXwXwXwXwXwXwXwXwXwXwXwXtXtXE P wX! + '.yXeXeXyXE.H.yXeXR % -XyXyXwX",
"wXwXyXwXwXwXwXwXwXwXwXwXwXwXwXwXwXwXwXwXwXwXwXwXwXwXwXyX/.J wX(.+ ~ yXyXeXyX=X'.eXyX'.@ (.yXwXwX",
"wXwXwXwXwXwXwXwXwXwXwXwXwXwXwXwXwXwXwXwXwXwXwXwXwXwXwXtX7XW.wX;X% d 4XyXeXwXwXwXeXeXqXG G.yXwXwX",
"wXwXwXwXwXwXwXwXwXwXwXwXwXwXwXwXyXwXwXwXwXwXwXwXwXwXwXwXwXwXwXwX~ + `.yXeXeXwXwXeXeXeX*X(.wXwXwX",
"wXwXwXwXwXwXwXwXwXwXwXwXwXwXwXwXwXwXwXwXwXwXwXwXwXwXwXwXwXwXwXyX=Xd R wXwXwXwXwXeXeXwXeXwXwXwXwX",
"wXwXyXwXwXwXwXwXwXyXwXwXwXwXwXwXwXwXwXwXyXwXwXwXwXwXwXwXwXwXwXwXtX'.! qXwXwXwXwXwXeXeXwXwXwXwXwX",
"wXwXwXwXwXwXwXwXwXwXwXwXwXwXwXwXwXwXwXwXwXwXwXwXwXwXwXwXwXwXwXwXwXtXqXwXwXwXtXwXwXwXwXwXwXwXwXwX",
"wXwXwXwXwXwXwXwXwXwXwXwXwXwXwXwXwXwXwXwXwXwXwXwXwXwXwXwXwXwXwXwXwXwXtXwXwXwXwXwXwXwXwXwXwXwXwXwX",
"wXwXwXwXwXwXwXwXwXwXwXwXwXwXyXwXwXwXwXwXwXwXwXwXyXwXwXwXwXwXwXwXwXwXwXwXwXwXwXwXwXwXwXwXwXwXwXwX",
"wXwXwXwXwXwXwXwXwXwXwXwXwXwXwXwXwXwXwXwXwXwXwXwXwXwXwXwXyXwXwXwXwXwXwXwXwXwXwXwXwXwXwXwXwXwXwXwX",
"wXwXwXwXwXwXwXwXwXwXwXwXwXwXwXwXwXwXwXyXwXwXwXwXwXwXwXwXwXwXwXwXwXwXwXwXwXwXwXwXwXwXwXwXwXwXwXwX",
"wXwXwXwXyXwXwXwXwXwXwXwXwXwXwXwXwXwXwXwXwXwXwXwXwXwXwXwXwXwXwXwXwXwXwXwXwXwXwXwXwXwXwXwXwXwXwXwX"
};
