/* XPM */
static char *result[] = {
/* columns rows colors chars-per-pixel */
"48 48 206 2 ",
"   c #6E0004",
".  c #6E0608",
"X  c #700006",
"o  c #72040A",
"O  c #6B180F",
"+  c #760C12",
"@  c #780F14",
"#  c #7A1418",
"$  c #662514",
"%  c #7C5524",
"&  c #707030",
"*  c #757845",
"=  c #706E6F",
"-  c #8F0F04",
";  c #8D1307",
":  c #8B1B09",
">  c #941304",
",  c #991603",
"<  c #9D1904",
"1  c #921D08",
"2  c #A31C03",
"3  c #A21C05",
"4  c #AB1E01",
"5  c #9B2106",
"6  c #912C0D",
"7  c #8C3B14",
"8  c #AB2103",
"9  c #A9250B",
"0  c #B32A0A",
"q  c #AA2B14",
"w  c #A6311F",
"e  c #AB311B",
"r  c #B43519",
"t  c #832429",
"y  c #84252A",
"u  c #892E33",
"i  c #8E363B",
"p  c #903A3F",
"a  c #AC3F2B",
"s  c #B53E26",
"d  c #CB151A",
"f  c #D91E20",
"g  c #CF2D24",
"h  c #D92424",
"j  c #DA2B2B",
"k  c #D23128",
"l  c #DB3636",
"z  c #8B591C",
"x  c #BB452B",
"c  c #AF4838",
"v  c #BD523B",
"b  c #847729",
"n  c #A67B3A",
"m  c #C74627",
"M  c #C75030",
"N  c #903B40",
"B  c #98494D",
"V  c #9F565A",
"C  c #BB5948",
"Z  c #AA5C59",
"A  c #A45F63",
"S  c #A76568",
"D  c #B66D66",
"F  c #AE7174",
"G  c #B07578",
"H  c #B2787B",
"J  c #CA4043",
"K  c #DC4849",
"L  c #C45E46",
"P  c #DA5454",
"I  c #E15D5D",
"U  c #C86B4A",
"Y  c #C86F5B",
"T  c #C8715D",
"R  c #C67667",
"E  c #E16363",
"W  c #E47577",
"Q  c #799A3F",
"!  c #7DAD3B",
"~  c #7F9842",
"^  c #79A944",
"/  c #6BB546",
"(  c #64B64C",
")  c #6AB64A",
"_  c #66B94D",
"`  c #6CBC4E",
"'  c #73B546",
"]  c #7DB642",
"[  c #7CB844",
"{  c #78A862",
"}  c #79C14C",
"|  c #75C651",
" . c #7AC550",
".. c #928B2B",
"X. c #959834",
"o. c #A78D2E",
"O. c #BC9721",
"+. c #8BA439",
"@. c #83AD3B",
"#. c #95A635",
"$. c #86B73E",
"%. c #8AB63E",
"&. c #97B738",
"*. c #ADA62A",
"=. c #B7AB28",
"-. c #B5B52D",
";. c #BBB62A",
":. c #BBB72C",
">. c #A8B834",
",. c #B2B836",
"<. c #C4B526",
"1. c #C9BB27",
"2. c #C3B429",
"3. c #C3BB2A",
"4. c #CABC28",
"5. c #CABD3E",
"6. c #8C8A5C",
"7. c #84BB4A",
"8. c #86B250",
"9. c #AEB046",
"0. c #919060",
"q. c #AD9375",
"w. c #84A86D",
"e. c #99A97B",
"r. c #BCB562",
"t. c #D09E4E",
"y. c #D1AB56",
"u. c #CBB957",
"i. c #EFB35A",
"p. c #F6BB5D",
"a. c #F9BC5E",
"s. c #CB8578",
"d. c #D48C7A",
"f. c #94CC50",
"g. c #B7C657",
"h. c #A7D956",
"j. c #A8E055",
"k. c #B1E154",
"l. c #88C46D",
"z. c #B5CA69",
"x. c #B9E37D",
"c. c #CBC358",
"v. c #C7D15C",
"b. c #E8C25D",
"n. c #CAC96C",
"m. c #D8CE76",
"M. c #8D8B88",
"N. c #989697",
"B. c #BA878A",
"V. c #CD8D83",
"C. c #D5948E",
"Z. c #D5988B",
"A. c #C29698",
"S. c #EA9F9F",
"D. c #D9B885",
"F. c #DBA599",
"G. c #C79FA1",
"H. c #CAA5A7",
"J. c #DBABA2",
"K. c #DDB3AB",
"L. c #DFB9B2",
"P. c #D4B6B8",
"I. c #E4B3AA",
"U. c #EBAFB0",
"Y. c #E7B8B3",
"T. c #B2D18A",
"R. c #C6D09A",
"E. c #D9D797",
"W. c #F6C793",
"Q. c #CED7AB",
"!. c #E1DBA9",
"~. c #E5C4BD",
"^. c #C3E1BC",
"/. c #E7E2B8",
"(. c #D9BFC1",
"). c #C6C5C5",
"_. c #DCC6C7",
"`. c #D0CFD0",
"'. c #DCDCD8",
"]. c #E6CBC6",
"[. c #F0C3C4",
"{. c #F1CBCB",
"}. c #EBD4CF",
"|. c #E7D6D5",
" X c #EDDAD5",
".X c #ECDDDC",
"XX c #F3DEDE",
"oX c #CAE3C1",
"OX c #DBE5C7",
"+X c #EAEACC",
"@X c #F5EBCD",
"#X c #E7E5D9",
"$X c #F0E2DF",
"%X c #ECE4E3",
"&X c None",
"*X c None",
"=X c None",
"-X c None",
";X c None",
":X c None",
">X c None",
",X c None",
"<X c None",
"1X c None",
"2X c None",
"3X c None",
/* pixels */
",X,X,X,X,X,X,X,X,X,X,X,X1X,X,X,X,X,X,X,X,X,X,X,X,X,X,X,X,X,X,X,X,X,X,X,X,X,X,X,X,X,X,X,X,X,X,X,X",
",X,X,X,X,X<X,X,X,X,X,X,X,X,X,X,X,X,X,X,X,X,X,X,X,X,X,X,X,X,X,X,X,X,X,X,X<X,X,X,X,X,X<X,X,X,X,X,X",
",X,X,X,X,X,X,X,X,X,X,X,X,X,X,X,X,X,X,X2X,X,X,X,X2X,X,X,X,X,X,X,X,X,X,X,X,X,X,X,X,X,X,X,X,X,X,X,X",
",X,X,X,X,X,X,X,X,X,X,X,X,X,X,X,X,X,X3X2X,X,X,X,X,X,X,X,X,X,X,X,X,X,X,X<X,X,X,X,X,X,X,X,X2X,X,X,X",
",X2X,X,X,X,X,X,X,X,X,X,X,X,X,X,X,X,X].=X2X2X,X,X,X,X,X,X2X,X,X,X,X,X,X,X,X,X,X,X,X,X,X,X,X,X,X,X",
",X,X,X,X,X1X,X,X,X,X,X,X,X,X,X,X2X$XC ].2X2X,X,X2X,X,X,X,X,X,X,X,X,X,X,X,X,X,X,X,X,X,X,X,X,X,X,X",
",X,X,X,X,X,X,X,X,X,X,X,X,X,X,X,X3XL.w ].2X2X,X,X,X,X,X,X,X,X,X,X,X,X,X,X<X,X,X,X,X,X,X,X,X,X,X,X",
",X,X,X,X,X,X,X,X,X,X,X,X,X,XI..X3XZ.q ~.3X2X2X,X,X,X,X,X,X,X,X,X,X,X,X,X,X,X,X,X,X,X,X2X,X,X,X,X",
",X,X,X1X,X,X,X,X,X,X,X,X,X>XL J.3Xs.9 L.2X,X,X,X,X,X,X,X,X,X,X,X,X,X,X,X,X,X,X,X,X,X,X,X2X2X,X,X",
",X,X,X,X,X,X,X,X,X,X,X,X,X$Xx Z.3Xs.< J.3X,X,X,X,X,X,X,X,X,X,X2X,X,X,X,X,X,X,X,X,X,X,X<X|.%X1X1X",
",X,X,X,X,X,X,X,X,X,X,X,X2XXXr R 3XV.2 V.3X2X,X,X,X,X,X,X,X,X,X,X,X,X,X,X,X,X,X,X,X,X2X,XS H.2X1X",
",X,X,X,X,X,X,X,X,X1X,X2X2X$Xx L ,XF.< R 2X2X,X,X,X,X,X,X,X,X,X,X<X,X,X,X,X,X<X,X,X,X2X=Xp H 1X,X",
",X,X,X,X,X,X,X,X,X,X>X-X1X-Xv s %XL.3 C -X2X,X,X,X,X,X,X,X,X,X,X,X,X,X,X,X<X<X<X2X_.P.%Xt S 1X,X",
",X,X,X,X,X,X,X,X,X2X Xd.=X1XT 9 L.}.q w |.2X,X,X,X,X,X,X,X,X,X,X,X,X,X,X,X<X<X<X3XB.V |.t S 1X1X",
",X,X,X,X,X,X2X,X,X2X$Xm F.3XF.8 T *Xc < V.<X,X,X,X,X2X,X,X,X,X,X,X,X<X,X,X,X>X%X3XH u P.# H 2X2X",
",X,X,X,X,X,X1X,X,X2X>XL M =X}.e 9 J.s.< w }.2X,X,X,X,X,X,X,X,X,X,X,X,X,X,X<X%XA .XF y H.# B.3X2X",
",X,X,X,X,X,X,X,X1X1X3XF.0 Z.,XY 2 x D 2 , R ,X<X<X<X,X,X,X<X,X,X<X,X,X,X,X2X&XN A.S y A.+ A.3X2X",
",X,X,X,X,X,X,X,X1X1X3X-XL r ].].q 2 3 < < 5 K.2X<X<X,X,X,X,X,X,X,X,X,X,X,X,X<XV A V t B.+ P.3X2X",
",X,X,X,X,X1X,X,X,X,X1X3XY.0 M ~.C 2 2 < < , c  X<X<X<X<X,X,X,X,X,X,X<X<X%XB.%XG i N # B @ _.2X,X",
",X,X,X,X,X,X,X,X,X,X>X}.,Xd.8 r q 2 2 < , > > Z %X3X<X<X,X,X,X,X,X<X<X2X,XV G B.+ @ X X t .X2X,X",
",X,X,X,X,X,X,X,X,X,X>XU d.$XR 8 4 3 3 < < , > > D =X,X,X,X,X,X,X,X,X1X-X.XA.t B X X     p =X2X1X",
",X,X,X,X,X,X,X,X,X,X1Xd.0 T J.x 4 3 3 < < , > > ; D %X,X,X,X<X,X,X1X2X~.u i X X X X     V ,X,X<X",
",X,X,X,X,X,X,X,X1X1X1X XM 8 q q 4 3 < < < > > : % b 0.'.2X,X,X,X2X1X3X_.@   o o X   X   B.3X2X<X",
",X,X,X,X,X,X,X,X1X1X1X2X~.x 8 8 8 3 3 < < > , : ..&.@.e.,X,X,X,X2X2X2X|.y X o o . % b # (.3X2X<X",
"1X,X,X,X,X,X,X,X,X,X,X2X=XV.0 8 8 8 < < , , > > 7 +.%.8.%X3X3X3X2X<XG.i . O & & b k.k.q.-X2X,X,X",
",X,X,X,X,X,X,X,X,X,X,X2X XM 8 8 < 8 < < < , > - 6 X.7.[ `.-X&X&X<XH.+   $ ~ f.h.j.k.z.#X2X,X,X,X",
",X,X,X,X,X,X,X,X,X,X,X,X,XY.x 8 8 < 8 < , , > > z &.$.[ e.w.{ { { * & & ^ g.b.b.v.R.#X<X2X<X,X,X",
",X,X,X,X,X,X,X,X,X,X,X,X,X1X].v 3 8 < < < , > > 6 ..$.! Q ( ( ( _ _ |  .f.b.i.n y.@X2X,X,X<X,X,X",
",X,X,X,X,X,X,X,X,X,X,X,X<X,X2X|.C 2 < < , , > > - 7 @.[ / ) ( ( _ ` `  .c.p.p.n t.W.-X1X,X,X,X,X",
",X,X,X,X,X1X,X,X,X,X,X2X,X,X,X2X$XR 9 < , , , ; - 6 +.[ / _ ( ( _ `  . .u.p.p.a.i.M C.1X,X,X,X,X",
",X,X,X,X,X,X2X,X,X,X,X,X,X,X<X<X3X-XF.a 5 5 5 5 1 : b [ ' _ ( ( _ ` ` | g.p.a.a.K d J XX2X,X,X,X",
",X,X,X,X,X,X,X,X,X,X,X,X,X,X<X<X<X<X+Xu.O.O.O.O.o.X.+.] ' _ ( ( _ ` |  .f.g.v.y.j d K *X2X,X,X,X",
",X2X,X,X,X,X,X,X,X,X,X,X,X,X,X1X$XE.5.<.1.1.1.1.4.3.-.&.%.$.' ) _ } } f.f.h.x./.Y.P W ,X,X,X,X,X",
",X,X1X,X,X,X,X,X,X,X,X1X,X1X>X!.u.2.<.<.<.<.;.;.;.3.4.4.3.;.:.,.>.>.>.v.E.+X>X2X2X$X%X2X,X,X,X,X",
",X,X,X,X1X,X1X1X1X2X1X1X1X Xn.=.2.<.2.2.1.;.-.-.>.>.>.>.>.>.&.%.$.} T.,X2X2X,X2X,X2X2X,X,X,X,X,X",
",X,X,X,X1X1X1X1X>X2X2X>XE.,.=.2.=.2.2.2.<.;.-.-.>.&.&.$.7.' / ( l.^.,X2X,X,X,X,X2X,X,X,X,X,X,X,X",
",X,X,X,X,X,X3X2X2X>X/.r.*.O.*.=.O.D.+Xm.u.-.-.-.-.&.#.%.7.8.T.oX;X3X,X,X,X,X,X,X,X,X,X,X,X2X,X,X",
",X,X,X1X,X,X3X2XOXT.` ! +.8.o.U I.>X3X<XQ.,.*.-.9.g.x.Q.OX;X,X3X2X2X,X,X,X,X,X,X,X,X,X,X,X,X,X,X",
",X,X,X1X2X-X#XT.f.' ' 6.n s P [.,X,X,X,XP.6.* 9.R.>X1X2X3X3X2X,X2X2X2X,X,X,X,X,X,X,X,X,X,X,X,X,X",
",X,X2X>X[.m.9.#.X.n x g h W .X<X,X,X,X<X;X= N.M.).3X2X1X3X2X2X3X2X2X2X,X,X,X,X,X2X,X,X,X,X,X,X,X",
"1X1XU.I j m M m k f f l S.-X2X2X,X,X,X2X`.M.).N.:X1X,X1X,X,X,X,X,X,X,X,X,X,X,X,X,X,X,X,X,X,X,X,X",
"1X=XK f l K W W h h E {.2X2X3X2X1X,X,X,X'.&X'.&X1X,X,X,X,X,X,X,X,X,X,X,X,X,X,X,X,X,X,X,X,X,X,X,X",
"1X>X{.Y.{.$X*XI K S.-X1X,X,X1X1X,X,X,X,X3X2X2X1X,X,X,X,X,X,X,X,X2X,X,X,X,X,X,X,X,X,X,X,X,X,X,X,X",
"1X3X3X3X3X3X*XU.XX3X1X1X,X,X,X1X,X,X,X,X2X2X1X1X,X,X,X,X,X,X,X,X,X,X,X,X,X,X2X,X,X,X,X,X,X,X,X2X",
"1X1X1X,X,X1X,X3X,X,X,X,X,X,X,X,X,X,X,X,X,X,X,X,X,X,X1X>X,X,X,X,X,X,X,X,X,X,X,X,X,X,X,X2X,X,X,X,X",
"1X1X,X,X,X,X,X,X,X,X,X,X,X,X,X,X,X,X,X,X,X,X1X,X,X,X2X2X,X,X,X,X,X,X,X,X,X,X,X,X,X,X,X,X,X,X,X,X",
",X,X,X,X,X,X,X,X,X,X,X,X,X,X1X,X,X,X,X,X,X,X,X,X,X,X1X1X1X,X,X,X,X,X,X,X,X,X,X,X,X,X,X,X,X,X,X,X",
",X,X,X,X,X,X,X,X,X,X,X,X,X,X,X,X,X,X,X,X,X,X,X,X,X,X,X1X,X,X,X,X,X,X,X,X,X,X,X,X,X,X,X,X,X,X,X,X"
};
