/* XPM */
static char *result[] = {
/* columns rows colors chars-per-pixel */
"48 48 222 2 ",
"   c #6E0000",
".  c #660D06",
"X  c #730102",
"o  c #7E0101",
"O  c #76090B",
"+  c #751A09",
"@  c #7A1214",
"#  c #49311F",
"$  c #6C270F",
"%  c #413F3D",
"&  c #6D4117",
"*  c #7A4418",
"=  c #7A581C",
"-  c #5A732F",
";  c #706928",
":  c #73722C",
">  c #545254",
",  c #605E60",
"<  c #850301",
"1  c #8B0501",
"2  c #8A0B05",
"3  c #930B00",
"4  c #990F00",
"5  c #9C1200",
"6  c #981907",
"7  c #9A1E11",
"8  c #A31400",
"9  c #A61901",
"0  c #AB1900",
"q  c #B11D00",
"w  c #912708",
"e  c #99231D",
"r  c #A52207",
"t  c #B12E0F",
"y  c #AB2C16",
"u  c #821F21",
"i  c #862425",
"p  c #8A2C2D",
"a  c #982A27",
"s  c #99302E",
"d  c #8C3234",
"f  c #973837",
"g  c #AA382A",
"h  c #B73E25",
"j  c #CE0E14",
"k  c #D91B1B",
"l  c #D42A1D",
"z  c #D82727",
"x  c #C73725",
"c  c #D13736",
"v  c #DD3737",
"b  c #AF4B0D",
"n  c #91701E",
"m  c #B44939",
"M  c #B65835",
"N  c #96713A",
"B  c #B1752E",
"V  c #CD4829",
"C  c #933F40",
"Z  c #944A44",
"A  c #9C4F51",
"S  c #9E5354",
"D  c #A34644",
"F  c #A54B49",
"G  c #B85446",
"H  c #A85656",
"J  c #A15758",
"K  c #A55D5E",
"L  c #B25850",
"P  c #B9635A",
"I  c #886963",
"U  c #A86666",
"Y  c #B56A67",
"T  c #AE7172",
"R  c #B47778",
"E  c #DB4D42",
"W  c #C35F4B",
"Q  c #E15354",
"!  c #C4604D",
"~  c #C76B59",
"^  c #C97668",
"/  c #D27267",
"(  c #C37D76",
")  c #E16968",
"_  c #E37576",
"`  c #6E9737",
"'  c #6BA53F",
"]  c #7AAC3C",
"[  c #659E41",
"{  c #5EA444",
"}  c #61AD47",
"|  c #76A642",
" . c #6EB746",
".. c #66B84B",
"X. c #69BB4C",
"o. c #74B743",
"O. c #7BB942",
"+. c #6CBC55",
"@. c #6FC04E",
"#. c #70C04E",
"$. c #7CC54D",
"%. c #7DC063",
"&. c #B0A21F",
"*. c #89943A",
"=. c #A7952C",
"-. c #B4942B",
";. c #86AD39",
":. c #94A538",
">. c #88B73C",
",. c #97B736",
"<. c #B5AA23",
"1. c #BBA922",
"2. c #AEBB2E",
"3. c #B9B628",
"4. c #B2AD31",
"5. c #A5BB33",
"6. c #C0B11F",
"7. c #C4B522",
"8. c #C5BA24",
"9. c #CCBC22",
"0. c #C1BD28",
"q. c #C9BF36",
"w. c #9FC33C",
"e. c #B2C334",
"r. c #86BA49",
"t. c #AB857D",
"y. c #B0A879",
"u. c #C6BC43",
"i. c #D4A353",
"p. c #C1B652",
"a. c #EFBF5D",
"s. c #F7B75C",
"d. c #F3BC5D",
"f. c #D38A7A",
"g. c #D39E72",
"h. c #F5B66B",
"j. c #9FCA46",
"k. c #85C650",
"l. c #8CCA51",
"z. c #8ACF52",
"x. c #97D852",
"c. c #A7D448",
"v. c #A9C558",
"b. c #B2C851",
"n. c #AED256",
"m. c #A9E257",
"M. c #B6E853",
"N. c #9BC66B",
"B. c #92CC71",
"V. c #B7D16E",
"C. c #B9E270",
"Z. c #D5C259",
"A. c #E0C05B",
"S. c #D1CE6F",
"D. c #EDC966",
"F. c #BB8889",
"G. c #A2A0A1",
"H. c #B4B3B4",
"J. c #CD8C83",
"K. c #C38C8B",
"L. c #D68A85",
"P. c #CD9089",
"I. c #D69283",
"U. c #D2968C",
"Y. c #C49292",
"T. c #C69898",
"R. c #CA9A99",
"E. c #D29992",
"W. c #E88889",
"Q. c #EB9D9C",
"!. c #CEA09F",
"~. c #D8A59D",
"^. c #CBA6A6",
"/. c #CAA8A8",
"(. c #D8AAA4",
"). c #D4ADAC",
"_. c #D9B1AC",
"`. c #D9B7B6",
"'. c #D5B8B8",
"]. c #EDABAB",
"[. c #EBBDB9",
"{. c #B5D69C",
"}. c #BFE0B0",
"|. c #CDCF95",
" X c #F9D18D",
".X c #CDDBA6",
"XX c #E3DBA9",
"oX c #E2D0BD",
"OX c #CEE9B5",
"+X c #D5E7B9",
"@X c #E0ECAC",
"#X c #DDC4C5",
"$X c #D8D8D8",
"%X c #E2CAC9",
"&X c #F0CACA",
"*X c #EBD4CF",
"=X c #E5D3D3",
"-X c #EAD9D8",
";X c #EADDDC",
":X c #F2D6D6",
">X c #F4DCDE",
",X c #D4E7CA",
"<X c #D5E9CF",
"1X c None",
"2X c None",
"3X c None",
"4X c None",
"5X c None",
"6X c None",
"7X c None",
"8X c None",
"9X c None",
"0X c None",
"qX c None",
"wX c None",
"eX c None",
"rX c None",
"tX c None",
"yX c None",
"uX c None",
"iX c None",
"pX c None",
/* pixels */
"tXtXtXtXtXtXtXtXtXtXtXtXtXtXtXtXtXtXtXtXtXtXtXtXtXtXtXtXtXtXtXtXtXtXtXtXtXtXtXtXtXtXiXtXtXtXtXtX",
"tXtXtXtXtXtXtXtXtXtXtXtXtXtXtXtXtXtXtXtXtXtXtXtXtXtXtXtXtXtXtXtXtXtXiXtXtXuXtXtXtXtXtXtXtXtXtXtX",
"tXtXtXtXtXtXtXtXtXtXtXyXtXtXtXtXtXtXtXtXtXtXtXtXtXtXpXtXtXtXtXtXtXtXtXtXtXtXtXtXtXtXtXtXtXtXtXtX",
"tXtXtXtXuXtXtXiXtXiXtXtXtXtXtXiXtXtXtXtXtXtXtXtXtXtXtXtXtXtXtXtXtXtXtXtXtXtXtXtXtXtXtXtXtXtXpXtX",
"tXtXtXtXtXtXtXtXtXtXtXtXtXtXyXyXiXtXtXtXtXtXtXtXtXtXtXtXtXtXtXtXtXtXtXtXtXtXtXtXtXuXtXtXiXtXtXtX",
"tXtXtXtXtXtXtXtXtXyXtXtXtXyXyXyXtXtXtXtXtXtXtXtXtXtXtXtXtXtXtXtXtXtXtXtXtXtXtXtXtXtXtXtXtXtXtXtX",
"tXtXtXtXtXtXtXtXyXyXtXtXtXtXiXyXtXtXtXtXtXtXtXtXtXtXtXtXtXtXtXtXtXiXtXtXtXtXtXtXtXtXtXtXtXtXtXtX",
"tXtXtXtXtXtXtXtX2XOXOXwXtXtXpXpXtXtXtXtXtXpXtXtXtXtXtXtXtXtXpXtXtXuXtXtXtXtXtXiXtXtXtXtXtXtXtXtX",
"tXtXtXtXtXtXtX@XS.c.x.N.}.,X<X<XwXtXtXpXuXuXuXuXtXtXtXtXtXtXtXtXtXtXtXtXtXtXtXtXtXtXtXtXtXtXtXtX",
"tXtXtXtXtXuX1XD.D.s.b.$.@.@.+.+.%.B.{.,XeXiXuXiXtXyXtXtXtXtXtXtXiXtXtXtXtXtXtXtXtXtXtXtXtXtXtXtX",
"tXtXtXtXuXtX Xi.N s.A.k.@.X....... .o.r.N..X3XiXtXtXtXtXtXtXtXtXtXtXtXtXtXuXtXtXtXtXtXtXtXtXtXtX",
"tXtXtXtXpX4Xh.i.N d.a.l.@.X.{ } .. .O.] >.>.v..XeXpXtXtXtXtXtXtXtXtXtXtXtXtXtXtXtXtXuXtXtXtXtXtX",
"tXtXtXtXtXL.V s.d.d.A.k.+.+.[ { .. .o.O.>.,.,.5.V.1XtXtXtXtXtXtXuXtXtXtXtXtXtXtXtXtXtXtXtXtXtXtX",
"tXtXtXpX8Xc j ! d.D.b.$.#.X.} } ..o.>.5.3.3.8.3.6.e.|.eXpXtXtXtXtXtXtXtXtXtXtXtXtXtXtXtXtXtXtXtX",
"tXtXtXpX&Xz j V b.n.z.$.#.X.' ] w.3.9.9.9.9.9.9.9.7.8.S.3XtXtXtXtXtXiXtXtXtXtXtXuXtXtXtXtXtXtXtX",
"tXtXtXtX>X_ ) g.M.c.j.w.w.2.&.3.9.9.9.0.2.2.2.3.9.9.9.3.Z.2XyXtXtXtXtXtXtXtXtXtXtXtXiXtXuXtXtXtX",
"tXtXtXtXtXtXuXeXC.c.e.e.e.9.<.<.8.e.,.] >.;.,.5.<.8.9.7.1.q.@XpXtXtXtXtXtXtXtXtXtXuXtXtXtXtXtXtX",
"tXtXtXtXtXuXuX+Xm.x.z.$.>.#.] ` ] ` ] ` ] = : n =.3.7.9.8.1.u.@XtXpXtXtXtXtXtXtXtXtXtXtXtXtXtXtX",
"tXtXtXtXtXuX<XC.m.x.z.$.@.@.{ - - $ & $ * 3 6 9 b 3.8.7.7.7.6.7.S.0XtXtXtXtXtXtXtXtXtXtXtXtXtXtX",
"tXtXtXtXtXtX|.M.j.*.z.' ; [ : + . X o 1 2 4 8 0 b e.7.7.7.7.1.1.<.p.oXrXpXtXtXtXtXtXtXtXtXtXtXtX",
"tXtXtXtXtXtXy.c.*.+ : * 5 w r <   X o 1 3 4 8 0 b <.q.S.XXi.-.4.1.&.4.|.7XtXtXtXtXtXuXuXuXtXtXtX",
"tXtXtXtXtXtXU & O o 2 4 4 0 q 3   X o 1 2 4 8 0 t =.|.8XyX:X/ B :.>.;.;.N.+XtXtXtXtXuXuXtXtXtXtX",
"tXtXtXtXtXtXK   o < 1 4 5 0 t 7   o o < 3 4 8 0 r # % G.tXpX4X) x N |  .o.r.V.3XtXiXiXiXtXtXtXtX",
"tXuXtXtXtXtXK   o < 1 3 8 8 W K   X o 2 e 5 8 y h I > $XeXpXpX9X_ k x M *.;.:.b.|.9XiXiXtXtXuXtX",
"tXtXtXtXtXtXS X < s e 3 8 8 I.R   d a 2 ( 7 8 y Z T., $XpXtXtXpXqXW.z k z V B -.-.E W.>XtXtXtXtX",
"tXtXtXtXtXtXA d i Y ( 7 y 8 f.F.  S Y 2 !.g y y t.H.H.H.tXtXtXtXuXrX].v k k z v l k k v oXpXtXtX",
"tXtXtXtXtXtXZ U H L #XL ~ y / F.  K Y.2 ).G G h ~.wXeX7XtXtXtXtXtXtXtX&XQ k v ].W.Q v z Q.uXtXtX",
"tXtXtXtXyXrXf R R F ;XP (.G f.K.  S '.7 ).^ L V U.iXpXpXtXtXtXtXtXtXtXuX4Xf.v Q.pXeX:X&XqXuXtXtX",
"tXtXtXtXtX6Xp F.R F qX~ _.P [.R.  J %Xa _.J.G ! I.iXtXtXtXtXtXtXtXtXtXtXuXrX&XoXuXuXpXpXiXtXtXtX",
"tXtXyXyXtX=Xi '.K.D tX( ~.! -X^.  U -Xa `.E.m ~ U.pXtXtXtXtXtXtXtXtXtXtXuXuXuXpXpXuXtXuXtXtXtXtX",
"tXtXyXyXiX^.@ -XK.D tXP.U.f.9X^.X T -Xs `.E.m f.~.pXtXtXtXtXtXtXtXtXtXuXuXtXtXtXtXtXtXtXtXtXtXtX",
"tXtXyXyXiXT d 8XY.D tX~.J.eXpXT.X F.=Xa %XE.m *X0XpXtXtXtXtXtXtXtXtXtXtXtXtXtXtXtXtXtXtXtXtXtXtX",
"tXtXtXyX8Xd S iXR.F rX(.( pXpXY.X ^.#Xa =XU.m qXuXtXtXtXuXtXtXuXtXtXtXtXtXtXuXtXtXtXtXtXtXtXtXtX",
"tXtXyXtX#X@ F.pXR.H uXoXE.pXuXT O #X).a ;XJ.P tXtXtXtXtXtXtXuXtXtXtXtXtXtXtXtXtXtXtXtXtXtXtXtXtX",
"tXtXtXpXY.O '.pXR.Y tXrXqXiXuXA u 5XK.f qXE.E.iXtXtXtXtXtXtXtXtXuXtXtXtXtXtXtXtXtXtXtXuXtXtXtXtX",
"tXtXtXtXJ i 6XpXY.R uXtXuXuX5Xi C rXY D rX;X9XuXtXtXtXtXtXtXtXtXtXtXtXtXtXtXtXtXtXtXtXtXtXtXtXuX",
"tXtXpX;X@ T tXiXK.T.pXtXtXiX'.O T tXH Y pXtXpXtXtXtXuXtXtXtXtXtXtXtXtXtXtXtXtXtXtXpXtXtXtXtXtXtX",
"tXtXpX/.@ '.iXiX'.-XpXtXtXiXR X /.rXD !.pXtXtXtXtXtXtXtXtXtXtXtXtXtXuXtXtXtXtXuXtXtXtXtXtXtXtXtX",
"tXtXtXR S qXuXtXtXtXtXtXpX6Xd i 3XtXR.6XpXyXtXtXtXtXtXtXtXtXtXtXtXtXtXtXtXtXtXtXtXtXtXtXtXtXtXuX",
"yXtXtX/.$XtXuXtXtXtXtXtXpX/.O R tXtXyXyXyXyXtXtXtXtXtXtXtXtXtXtXtXtXtXtXtXtXtXtXtXtXtXtXtXtXtXtX",
"tXtXtXtXpXtXtXtXtXtXtXtXtXU p =XpXtXtXtXtXtXtXtXtXtXtXtXtXtXtXtXtXtXtXtXtXtXtXtXtXtXtXtXtXtXtXtX",
"tXtXtXtXtXtXtXtXtXtXtXtXrXT '.tXtXtXtXtXtXtXtXtXtXtXtXtXtXtXtXtXtXtXtXtXtXtXtXtXtXtXtXtXtXtXtXtX",
"tXtXtXtXtXtXtXtXtXtXtXtXtXrXpXtXtXtXpXtXtXtXtXtXtXtXtXtXtXtXtXtXtXtXtXtXtXpXtXtXtXtXtXtXtXtXtXtX",
"tXtXtXtXtXtXtXtXtXtXtXtXtXtXtXtXtXtXtXtXtXtXtXtXtXtXtXtXpXtXtXtXtXtXtXtXtXtXtXtXtXtXtXtXtXtXtXpX",
"tXtXtXtXtXtXtXtXtXtXtXtXtXtXtXtXtXtXtXtXtXtXtXtXtXtXtXtXtXtXtXtXtXtXtXtXtXtXtXtXtXtXtXtXtXtXtXtX",
"tXtXtXtXtXtXtXtXtXtXtXtXtXtXtXtXtXtXtXtXtXtXtXtXtXtXtXtXtXtXtXtXtXtXtXtXtXtXtXtXtXtXtXtXtXtXtXtX",
"pXtXtXtXtXtXtXtXtXtXtXtXtXtXtXtXtXtXtXtXtXtXtXtXtXtXtXtXtXtXtXtXpXtXtXtXtXtXtXtXpXtXtXtXtXtXtXtX",
"tXtXtXtXtXtXtXtXtXtXtXtXtXtXtXtXtXtXtXtXtXtXpXtXtXtXtXtXtXtXtXtXtXtXtXtXtXtXtXtXtXtXtXtXtXtXtXtX"
};
