/* XPM */
static char *result[] = {
/* columns rows colors chars-per-pixel */
"48 48 220 2 ",
"   c #6E0105",
".  c #730106",
"X  c #7D0705",
"o  c #74080C",
"O  c #66140E",
"+  c #72160B",
"@  c #760C12",
"#  c #780F14",
"$  c #651B10",
"%  c #7D171C",
"&  c #5C351B",
"*  c #662514",
"=  c #772D10",
"-  c #673719",
";  c #7F1C22",
":  c #7F2321",
">  c #4C562B",
",  c #694B22",
"<  c #70592B",
"1  c #5C692E",
"2  c #696429",
"3  c #71722A",
"4  c #697A39",
"5  c #757737",
"6  c #545152",
"7  c #7A6F4D",
"8  c #6F6D6D",
"9  c #840B04",
"0  c #8A0D03",
"q  c #860E08",
"w  c #911204",
"e  c #981B0C",
"r  c #881916",
"t  c #971F12",
"y  c #A01C06",
"u  c #8F2C14",
"i  c #AB2B12",
"p  c #801D23",
"a  c #86272C",
"s  c #972E28",
"d  c #8D3633",
"f  c #913A3E",
"g  c #A73728",
"h  c #B23D27",
"j  c #C9171B",
"k  c #D71F1F",
"l  c #D91F21",
"z  c #CD2C23",
"x  c #D82223",
"c  c #D42A25",
"v  c #DA2B2B",
"b  c #CF3A28",
"n  c #D83B3C",
"m  c #8A641F",
"M  c #BA4E2E",
"N  c #A8473C",
"B  c #B44833",
"V  c #AE5C32",
"C  c #AD6E30",
"Z  c #CC592F",
"A  c #923E42",
"S  c #9A4A4E",
"D  c #9B4F53",
"F  c #A95854",
"G  c #9A7741",
"H  c #B76156",
"J  c #A66366",
"K  c #B56E6A",
"L  c #B1777A",
"P  c #DE4748",
"I  c #D6554B",
"U  c #E15859",
"Y  c #CA7858",
"T  c #E57748",
"R  c #C97868",
"E  c #D76F71",
"W  c #E26767",
"Q  c #E37777",
"!  c #6B8B39",
"~  c #748E3A",
"^  c #61963E",
"/  c #7FAA3B",
"(  c #609D44",
")  c #63AA47",
"_  c #76AA48",
"`  c #6EB646",
"'  c #64B64C",
"]  c #6AB64A",
"[  c #66B94E",
"{  c #75B645",
"}  c #7CB643",
"|  c #76B946",
" . c #77BA48",
".. c #67B853",
"X. c #76C24F",
"o. c #76C350",
"O. c #7BC650",
"+. c #7EC950",
"@. c #958E2F",
"#. c #A99A29",
"$. c #A79136",
"%. c #88AB3B",
"&. c #9AAD36",
"*. c #86B73E",
"=. c #89B63D",
"-. c #9DB536",
";. c #91B63B",
":. c #99B739",
">. c #BBAC26",
",. c #B3A628",
"<. c #AEB52E",
"1. c #BFB027",
"2. c #B3B52E",
"3. c #BAB82C",
"4. c #A3AB32",
"5. c #B6AE33",
"6. c #A4B736",
"7. c #ACBA33",
"8. c #B6B733",
"9. c #C4B527",
"0. c #CBBB27",
"q. c #C3B729",
"w. c #C3BA2B",
"e. c #C9BB28",
"r. c #C4B735",
"t. c #A7C33C",
"y. c #8B9445",
"u. c #9BA54A",
"i. c #83B640",
"p. c #88B843",
"a. c #9AB94C",
"s. c #BEBE4A",
"d. c #B2AA52",
"f. c #91A56C",
"g. c #A9B17A",
"h. c #C99B50",
"j. c #D9A655",
"k. c #C6B150",
"l. c #EDAD56",
"z. c #F6BC5E",
"x. c #F8BD5E",
"c. c #C6B777",
"v. c #98CC4B",
"b. c #96D34F",
"n. c #87CE52",
"m. c #97D553",
"M. c #99D553",
"N. c #ACCA45",
"B. c #A8C956",
"V. c #B6CC52",
"C. c #8FC778",
"Z. c #B0CD66",
"A. c #A5CC78",
"S. c #CDC555",
"D. c #C7D457",
"F. c #F0C05E",
"G. c #D1C970",
"H. c #F7C67D",
"J. c #8F8D8E",
"K. c #BB8788",
"L. c #B6B795",
"P. c #A3A1A1",
"I. c #B0AFAF",
"U. c #BDB9A9",
"Y. c #BEBDBE",
"T. c #D48C84",
"R. c #CC938B",
"E. c #D1968C",
"W. c #C69A97",
"Q. c #E78A8A",
"!. c #EA9C9C",
"~. c #D7A49B",
"^. c #C79FA1",
"/. c #C9A7A8",
"(. c #D7ACA7",
"). c #D7B9B9",
"_. c #ECADAD",
"`. c #E5BBB6",
"'. c #97CE89",
"]. c #B3CF91",
"[. c #BEE598",
"{. c #D0D591",
"}. c #D9D69A",
"|. c #E8D994",
" X c #D7EE8F",
".X c #C7E692",
"XX c #C3DDB0",
"oX c #E6C8B2",
"OX c #E6DCB9",
"+X c #CCE8B3",
"@X c #E5E3B5",
"#X c #C0BFC0",
"$X c #C8C7C8",
"%X c #DCC5C6",
"&X c #DCDFCA",
"*X c #E7C9C7",
"=X c #F1C6C7",
"-X c #E8D1CD",
";X c #E1CFD0",
":X c #E4D4D5",
">X c #E9DAD8",
",X c #F2D6D6",
"<X c #D8E3C4",
"1X c None",
"2X c None",
"3X c None",
"4X c None",
"5X c None",
"6X c None",
"7X c None",
"8X c None",
"9X c None",
"0X c None",
"qX c None",
"wX c None",
"eX c None",
"rX c None",
"tX c None",
"yX c None",
"uX c None",
/* pixels */
"wXwXwXwXwXwXwXwXwXwXwXwXwXwXwXwXwXwXwXwXwXwXrXwXwXwXwXwXwXwXwXwXrXwXwXwXeXwXeXwXwXwXwXrXwXwXwXwX",
"wXwXeXwXwXwXrXwXwXwXrXwXeXwXwXwXeXwXwXwXwXwXwXwXwXwXwXwXwXwXwXwXwXwXwXwXwXwXwXwXwXwXwXwXwXwXwXrX",
"wXwXwXwXwXwXwXwXwXwXwXwXwXwXwXrXwXwXrXwXwXwXrXrXwXwXwXwXtXtXwXwXwXwXeXeXwXwXrXwXwXeXwXwXwXwXrXwX",
"wXwXwXrXwXwXeXwXeXwXwXrXwXwXwXwXeXwXwXwXwXrXrXrXtXwX5X:X:X:X7XwXwXwXwXeXwXwXwXwXwXwXwXwXwXwXwXwX",
"wXwXwXwXwXwXwXrXwXwXwXwXwXwXwXwXwXwXeXeXyXyXqX%XR.D d ; % p D 3XuXtXeXeXwXwXwXwXwXwXyXrXrXrXwXwX",
"wXeXwXwXwXwXwXwXwXwXwXwXwXeXwXwXwXwXeXyXqX).H r . .         o (.uXtXeXeXwXeXtXtXuXtXtXyXrXrXwXrX",
"wXwXrXwXwXwXwXwXwXeXrXwXwXwXwXwXwXeXtX>XH t 0 9 X . o         ^.uXtXeXeXtXwX2X)./.^./.;XwXrXwXrX",
"wXwXwXwXwXwXwXeXwXwXwXwXwXwXeXeXrXtX`.B t e w q 9 .         O /.tXwXrXtX-XK s # o o o r L qXrXrX",
"rXwXwXwXwXwXwXeXwXrXwXwXwXwXwXtXtX`.h H N e N q X . .     $ 1 /.eXeXwX~.d , + + * O .   p -XyXrX",
"wXwXwXeXwXwXwXwXwXwXwXwXwXwXwXtX,XM R R.e H F 9 9 o . .   , n.U.eXwXW.u 3 ^ 1 ~ ~ O   . # #XuXrX",
"wXrXwXwXwXwXwXwXwXeXwXwXwXeXtXqXY R -XB g (.s 9 X . .     ! n.L.eXU.< 3 X.' ' +.5   @ p # ).yXyX",
"wXwXwXwXrXwXwXeXwXwXwXwXeXeXtX,X~.6XE.y R.~.0 9 X . . & & ~ v.L.>Xu.@.*./ X.[ ) *   a F q #XyXrX",
"wXwXwXwXwXwXwXwXrXwXrXwXwXwXwXwXtX6XB h >XH 0 9 9 . O ^ (  .b.].L.#.-.=.{ ' ' < @ # d J @ oXyXyX",
"wXwXwXwXwXeXwXwXwXwXwXwXwXwXwXwXuX*Xi R 5Xs 0 9 X X - ) [ O.b.g.d.<.-.*.{ ' ( * a f A J # %XyXyX",
"eXwXwXwXwXwXrXwXwXwXwXeXwXwXwXrXyX*XB -XoXt 0 9 X . , ' [ O.M.u.5.2.-.*.{ [ 4 : A a D J % :XeXwX",
"wXwXwXrXwXwXwXwXwXwXwXwXwXwXeXwXyX6X*XuX(.w w 9 o . , ] [ O.M.&.2.<.-.=.{ ) 7 A J # L L a 5XeXwX",
"wXwXwXwXtXwXwXwXwXwXeXwXwXeXwXwXeXeXtXuXT.0 0 + 2 3 ! ' [ O.M.4.2.2.-.=.{ ^ f.).R.% #XL S 7XwXwX",
"wXwXwXwXwXwXwXwXwXwXwXwXwXtXwXwXwXwXyXuXc.w 9 u &.p.{ ] [ O.m.6.2.2.-.=.{ ! ^.uXW.J tXK.K.tXwXwX",
"eXwXwXwXwXwXwXwXwXwXwXwXwXwXwXwXeXeXeXtXR.w 9 m :.=.} [ [ O.m.6.2.2.-.*.| 5 ).uX;X:XtX,X>XtXtXwX",
"rXwXwXwXeXwXeXwXwXtXwXwXwXwXwXwXeXyXyXuX(.= = m :.=.} [ [ o.b.s.2.2.-.=.{ 5 %XuXtXtXtXtXeXwXwXwX",
"wXwXwXwXwXwXwXwXwXwXeXwXwXwXwXwXwXwXwXtX:XC #.@.-.=.{ ] [ O.m.N.3.<.-.*.{ _ ].[..X+XqXtXtXtXwXwX",
"tXwXwXwXwXwXwXwXwXwXwXwXwXwXwXwXwXeXwXwXwXc.2.<.-.=.{ ] [ O.M.N.3.2.-.*.| O.n.m.D.D. XtXtXtXwXwX",
"wXwXwXwXwXwXwXwXwXwXwXwXwXwXwXwXwXwXwXwXeX@X<.<.-.=.{ ] [ O.M.v.:.=.}  .X.n.n.S.x.h.k.4XtXeXeXwX",
"wXwXeXwXtXwXeXwXrXwXwXwXwXwXtXrXwXwXwXwXyX1X8.7.-.=.{ [ [  .X.` ' [ [ o.o.O.B.F.x.< G |.eXeXtXtX",
"wXwXwXwXwXwXwXwXwXwXwXwXwXwXwXwXwXwXwXwXeX3Xs.<.-.=.{ ` ` ` [ [ ' ' [ X.o.o.V.x.z.j.j.H.qXrXrXrX",
"wXwXwXwXwXwXeXwXwXwXwXtXwXwXwXwXwXwXeXwXwX0Xs.<.-.p.} { | ` ] ' ' ' [ o.o.o.S.F.z.z.z.T =XyXwXrX",
"wXwXwXwXwXwXwXwXwXwXwXwXwXwXwXwXwXwXwXwXtX0Xs.<.6.-.-.;.i.` [ ' ' ' ' X.o.+.B.F.z.z.T j E 7XrXrX",
"wXtXwXeXwXtXwXwXwXwXwXwXwXwXwXwXwXwXeXeXwX}.w.9.e.e.0.0.w.7.=.` ' ' [ X.o.+.n.S.z.l.c j n >XuXrX",
"wXwXwXwXwXwXwXeXtXwXwXwXwXwXwXwXwXwXeX3XG.r.e.e.0.0.e.e.e.0.e.3.6.p.X.} X.+.n.m.V.V.z j c -XtXtX",
"wXwXwXeXwXwXwXwXwXwXwXwXwXwXwXwXwXwX@XS.9.e.e.9.3.7.7.3.w.e.0.0.0.e.w.t.t.t.N.N.Z..XQ.Q Q ,XtXtX",
"wXwXwXtXwXwXwXwXwXwXwXwXwXwXwXtX0X{.r.9.9.9.1.6.=.=.i.} } ;.7.3.w.w.w.e.S.S.|.@X4XeXuXeXwXwXeXwX",
"wXwXwXwXrXwXwXwXwXwXwXwXwXwXwX1XG.9.>.9.9.e.7.;.=.p.} { | ` [  .| } O.A.4XeXyXuXuXeXeXeXrXwXwXwX",
"wXwXwXwXwXwXwXrXwXwXtXtXtXwXOXk.>.>.9.9.9.9.6.=.=.*.} { { ] ] ' ' ..'.8XyXwXwXwXwXwXwXwXrXwXwXwX",
"eXwXwXwXwXwXwXwXwXwXtXtXqX}.5.>.>.9.9.9.9.q.&.;.=.p.} } { ] ] ' ..'.8XrXrXwXwXwXwXrXwXwXwXwXwXwX",
"wXwXwXtXwXwXwXwXwXwXtX0XG.,.,.>.9.>.r.r.9.3.:.;.=.i.i.{ ` ` ' C.XXwXrXrXwXwXwXwXwXwXwXwXwXrXeXwX",
"eXwXwXwXwXwXwXwXtXwX<Xd.#.,.,.>.8.h.OX1X|.S.:.;.=.*.i. . .'.XX9XrXrXwXrXwXwXwXwXwXwXwXeXwXwXwXwX",
"wXwXeXeXwXwXwXrX7X[. ._ %.%.%.$.Y *XwXeXrX&Xa.%.=.A.XX<X2XqXrXrXrXrXwXwXrXwXwXwXwXwXwXwXwXwXwXwX",
"wXwXeXtXwXrXwX<XA. .` ' ' _ V I =XrXwXeXY.6 > > f.2XtXrXrXrXwXwXrXrXwXwXwXwXwXrXwXrXwXeXwXwXwXeX",
"wXeXwXtXuX0X{.a./ { _ @.V z P -XrXrXwXwXY.8 6 6 P.rXwXwXrXrXwXwXwXwXwXwXwXwXwXwXwXwXwXwXwXwXwXwX",
"wXtXtX7XoXZ.-.=.y.@.M c l U ,XtXwXwXwXrXrX8 J.P.P.wXwXwXrXrXwXwXwXwXwXwXwXwXwXwXwXwXwXwXwXwXwXrX",
"eX7X_.U Z ,.$.V b c k x W ,XuXuXwXwXwXtX5X8 #XJ.$XtXwXwXwXwXeXeXwXwXtXwXwXrXwXwXwXwXwXwXeXrXwXwX",
"7XQ v x k c v v x x k Q ,XuXeXeXwXwXwXwXY.U.$XI.qXwXwXwXwXwXtXwXwXwXeXwXwXwXeXwXwXeXwXwXwXwXwXwX",
",Xn x v n W !.P k v Q.7XtXwXeXeXwXwXwXwX7XrX9XrXtXeXwXwXwXwXwXwXwXwXwXwXwXwXwXwXwXwXwXwXwXwXwXwX",
"qX_.!._.,XeX_.x P _.wXwXeXwXeXeXwXwXwXwXyXrXyXrXeXeXwXwXwXwXwXwXwXwXwXwXwXwXwXwXrXwXwXwXtXwXwXwX",
"tXtXtXuXyXwXQ Q ,XtXtXrXeXeXwXwXwXwXwXwXwXwXwXwXwXwXwXeXwXwXwXwXwXwXeXwXwXwXrXwXwXwXwXwXeXwXwXwX",
"tXtXeXeXwXwX7XwXwXwXeXwXwXwXwXwXtXwXwXeXwXwXwXtXwXwXwXwXwXwXwXwXwXwXrXwXeXwXwXwXeXwXwXwXwXwXwXwX",
"wXtXeXeXwXwXwXwXwXwXeXwXwXwXrXwXwXwXwXwXwXwXeXwXwXwXwXwXwXwXwXwXwXwXwXwXwXwXwXwXwXwXwXwXwXeXwXwX",
"wXtXeXeXwXwXwXwXwXwXwXwXwXwXwXwXwXwXwXeXwXwXwXwXwXwXwXwXwXwXwXtXwXwXwXwXwXwXwXwXwXrXrXwXwXwXwXwX"
};
