/* XPM */
static char *result[] = {
/* columns rows colors chars-per-pixel */
"48 48 221 2 ",
"   c #343030",
".  c #6F0205",
"X  c #710106",
"o  c #7B0505",
"O  c #7F0905",
"+  c #780B0B",
"@  c #7D170B",
"#  c #741214",
"$  c #742D14",
"%  c #403837",
"&  c #77461B",
"*  c #56452F",
"=  c #6E5425",
"-  c #7F5B22",
";  c #5D7634",
":  c #7C6D2A",
">  c #707631",
",  c #4A4748",
"<  c #787674",
"1  c #850B04",
"2  c #8B0E04",
"3  c #830F0B",
"4  c #851B0A",
"5  c #89180A",
"6  c #941303",
"7  c #9A1A06",
"8  c #8C1F1A",
"9  c #A41F07",
"0  c #8A250C",
"q  c #98240B",
"w  c #952C0C",
"e  c #96350F",
"r  c #9C2A1E",
"t  c #983C11",
"y  c #A7250B",
"u  c #AE300E",
"i  c #872224",
"p  c #952B26",
"a  c #963734",
"s  c #903C34",
"d  c #A73726",
"f  c #B53C22",
"g  c #CB171C",
"h  c #D71D1D",
"j  c #CF1F23",
"k  c #D82223",
"l  c #D62825",
"z  c #D02D27",
"x  c #CB3C26",
"c  c #D73739",
"v  c #8C4D19",
"b  c #9C4812",
"n  c #A7490F",
"m  c #B04F0F",
"M  c #AF6916",
"N  c #B66914",
"B  c #915434",
"V  c #B94D2E",
"C  c #AB4436",
"Z  c #A74A34",
"A  c #B54A36",
"S  c #86772A",
"D  c #957530",
"F  c #B76B29",
"G  c #CE4125",
"H  c #AF4D40",
"J  c #A85146",
"K  c #B75746",
"L  c #AA5B57",
"P  c #B1625B",
"I  c #B26865",
"U  c #BA7B79",
"Y  c #DD4949",
"T  c #CE5B4D",
"R  c #DE5957",
"E  c #E15A5A",
"W  c #CD6F56",
"Q  c #C77869",
"!  c #E26767",
"~  c #E47373",
"^  c #5E923D",
"/  c #6E8737",
"(  c #728536",
")  c #6E943B",
"_  c #779338",
"`  c #79A63C",
"'  c #6E9E41",
"]  c #69A948",
"[  c #72A644",
"{  c #72AD44",
"}  c #63B64C",
"|  c #6BB74A",
" . c #65B94D",
".. c #6ABB4D",
"X. c #75B644",
"o. c #75B947",
"O. c #71AC5A",
"+. c #75B85A",
"@. c #72C04F",
"#. c #79C650",
"$. c #7DC367",
"%. c #BE871C",
"&. c #8D8B3C",
"*. c #819936",
"=. c #979230",
"-. c #AD8F2E",
";. c #83A53A",
":. c #88A73B",
">. c #97AA35",
",. c #99AB34",
"<. c #8BB53D",
"1. c #95B73A",
"2. c #AFA025",
"3. c #B7A727",
"4. c #BCAE27",
"5. c #B9B82C",
"6. c #A7A833",
"7. c #ACBB33",
"8. c #B5B938",
"9. c #C39C20",
"0. c #C2A422",
"q. c #C4B326",
"w. c #CEBC26",
"e. c #C3B629",
"r. c #C7BD2A",
"t. c #C3B432",
"y. c #B7C032",
"u. c #88954A",
"i. c #AD8548",
"p. c #BB964A",
"a. c #90B64C",
"s. c #B8AD41",
"d. c #A4BB44",
"f. c #B28F71",
"g. c #9BAF6D",
"h. c #DA975C",
"j. c #EA8648",
"k. c #C4BA4D",
"l. c #D7A456",
"z. c #ECB159",
"x. c #F1B75C",
"c. c #F7BC5E",
"v. c #F9BC5E",
"b. c #C58378",
"n. c #D48876",
"m. c #D09279",
"M. c #CFB163",
"N. c #81C34B",
"B. c #88CC54",
"V. c #95CD53",
"C. c #A6CA55",
"Z. c #B7C656",
"A. c #A8D454",
"S. c #9BC676",
"D. c #A7C569",
"F. c #ADE16B",
"G. c #CEC859",
"H. c #E7C45D",
"J. c #CDC668",
"K. c #DBC668",
"L. c #DAD660",
"P. c #8C8A8A",
"I. c #9A9999",
"U. c #B68284",
"Y. c #9DB38C",
"T. c #B7B5B7",
"R. c #C28A88",
"E. c #CE9B8E",
"W. c #C69998",
"Q. c #D59D99",
"!. c #E68585",
"~. c #EA9798",
"^. c #D4A19A",
"/. c #CDB99C",
"(. c #EAA09F",
"). c #CBA4A5",
"_. c #DBACA2",
"`. c #DEB0A7",
"'. c #DAB2AC",
"]. c #C0BFBF",
"[. c #D2B3B4",
"{. c #E8AFAC",
"}. c #EABAB9",
"|. c #93CA81",
" X c #A3D394",
".X c #CFD191",
"XX c #EDD698",
"oX c #CDE48F",
"OX c #D9DBAB",
"+X c #C8C0BD",
"@X c #C4D6B4",
"#X c #E5DEB6",
"$X c #D7E1B7",
"%X c #EDE7AE",
"&X c #C0BFC0",
"*X c #CBCACA",
"=X c #DAD9C2",
"-X c #D6D6D6",
";X c #E8C9C5",
":X c #E8D6D4",
">X c #EDDEDC",
",X c #F2D5D6",
"<X c #F3DBDB",
"1X c None",
"2X c None",
"3X c None",
"4X c None",
"5X c None",
"6X c None",
"7X c None",
"8X c None",
"9X c None",
"0X c None",
"qX c None",
"wX c None",
"eX c None",
"rX c None",
"tX c None",
"yX c None",
"uX c None",
"iX c None",
/* pixels */
"wXwXwXwXwXwXwXwXwXwXwXwXwXwXwXwXwXwXwXwXwXwXwXwXwXwXwXwXwXwXwXwXyXtXtXtXtXtXwXwXwXwXwXwXyXwXwXwX",
"wXwXwXwXtXwXwXwXwXwXwXwXwXwXwXwXwXwXwXwXwXwXwXwXwXwXwXwXwXwXwXwXyXyXtXtXwXwXwXwXwXwXwXwXwXwXwXwX",
"wXwXwXwXwXwXwXwXwXwXwXwXwXwXwXwXwXwXwXwXwXwXwXwXwXwXuXwXwXwXwXwXyXyXyXyXwXwXwXwXwXwXwXwXwXwXwXwX",
"wXwXwXwXyXwXwXwXwXwXwXwXwXwXiXwXwXwXwXwXwXwXwXwXyXwXwXwXwXwXuXiXyXyXyXyXyXwXtXwXwXwXwXyXwXwXwXwX",
"wXwXwXwXwXwXwXwXwXwXwXwXwXwXwXwXwXwXwXwXiXwXwXwXwXwXwXwXwXiXeX:X&X[.[.;X7XiXwXwXwXwXwXwXwXwXwXwX",
"wXwXwXwXwXwXwXwXwXwXwXwXwXwXwXwXwXwXwXwXwXwXwXwXwXwXwXwXwX+XL i # # + # s [.iXwXwXwXwXwXwXwXwXwX",
"wXwXwXwXtXwXwXwXwXwXiXwXwXwXwXwXwXwXwXwXwXwXwXwXwXwXwX9XR.8 o X . . . . . U.iXwXwXwXwXwXwXwXwXwX",
"yXwXwXwXwXwXwXwXwXwXwXwXwXwXwXwXwXwXwXwXwXwXwXwXwXtX>XP 1 o o X . . . . B :XiXtXwXwXwXyXwXwXtXwX",
"wXwXwXwXwXwXwXwXyXwXwXwXwXwXwXwXwXwXtXwXtXtXtXtXyX:XJ 2 1 O o X . . . = Y.tXtXtXtXtXtXtXwXtXwXwX",
"wXwXwXwXwXwXwXwXwXwXwXwXwXwXwXwXwXwXwXwXtXtXtXuX:XA 6 2 1 1 o X . . $ ] @XuXtXtXwXtXtXwXwXwXwXwX",
"tXwXwXwXwXwXwXwXwXwXwXwXwXwXwXwXwXwXwXwXwXwXuX>XK 6 6 2 3 O o X . + ; O.7XtXtXiXrX6X2X6XwXwXwXwX",
"wXwXwXwXwXwXwXwXyXwXwXwXwXwXwXwXwXwXwXwXwXtX9XW 7 7 6 3 1 O o X + $ { g.9XtX7X@X|.$.B.F.1XtXwXwX",
"wXwXwXyXwXwXwXtXwXwXwXwXwXwXwXwXwXwXwXwXwXwXE.9 d Q r 2 1 O o X X S ` Y.9X$XD.o.} } ' : f.tXtXwX",
"wXwXwXwXwXwXwXwXuXwXwXwXwXwXwXwXwXwXwXtXwX:Xf K ;XQ.5 2 1 O o X $ >.X. X.Xd.<.X.} ; $ # [.tXtXtX",
"wXwXwXwXwXwXwXwXwXwXwXwXwXwXwXiXwXwXwXwXwXW A :X;Xd p H 1 O o X v 1.[ D.8.,.;.[ ; # . L wXwXwXyX",
"wXwXwXwXwXwXwXwXwXwXwXwXwXwXwXwXwXwXwXiX;Xf _.9XK 6 Q L 1 O o X D a.( =.*.) ' ' _ =.u. XeXwXwXwX",
"wXwXwXwXwXwXwXiXtXwXwXwXwXwXwXwXwXwXwXtXm.T qX^.y d '.p 1 3 o 4 =./ ^ ] } @.#.B.C.G.H.L.%XyXyXwX",
"wXwXwXwXwXwXwXwXwXwXwXwXyXwXwXwXtXwXwX9XT {.qXA q ^.b.2 8 a o $ ` } } } @.@.#.V.G.v.x.l.H.8XyXyX",
"wXwXwXwXwXwXwXwXwXwXwXwXwXwXwXwXwXwXtX4Xn.9X+Xy K +Xd 2 J a o =  .}  . . .@.#.C.c.v.z.* p.%XyXyX",
"wXwXwXwXwXwXwXwXwXwXwXwXwXwXwXwXwXwXwXeXqXeXQ y '.b.6 6 B @ o >  .} }  . .@.#.Z.c.c.z.i.l.XXyXyX",
"wXwXwXwXtXwXwXwXwXwXwXwXtXwXwXwXwXwXwXwXtX8XV A :XC 2 e - O + )  .} }  ...@.#.k.c.c.v.v.v.h.8XyX",
"wXwXwXwXwXwXwXwXwXwXwXwXwXwXwXwXwXwXwXwXiX;Xu b./.q 2 S & O # ' } } }  ...@.#.Z.c.c.v.v.j.k Q.tX",
"wXwXwXwXwXwXwXwXwXwXwXwXwXwXwXwXwXwXwXwXiX'.u p.F 7 q 2.e o $ { ..}  . ...@.#.V.x.v.H.z.c g T 9X",
"wXiXwXwXwXwXwXwXwXwXyXwXwXwXwXwXwXtXwXtXiXm.u 0.M 6 n 0.0 o t 5.a.o. . ...@.#.B.Z.H.v.j.h g c <X",
"wXwXwXwXwXwXwXwXwXwXwXwXwXwXwXwXeXiXiX0XXXN m q.m 6 N 9.5 o b w.w.r.7.1.a.#.N.B.B.A.G.l.z j c ,X",
"wXwXwXwXwXwXwXwXwXwXwXwXwXwXwXwXwXiX3XJ.q.N N q.n 7 =.,.5 o M w.w.w.w.w.w.r.5.7.y.Z.oX3X}.}.{.8X",
"wXwXwXwXwXwXwXwXwXwXwXwXwXwXwXtXeX#Xt.e.q.%.9.5.b 7 *.*.4 O : <.7.8.5.5.5.4.M.M.e U.iXiXuXuXiXwX",
"wXwXwXwXwXwXwXwXwXwXwXwXwXwXyXqX.Xe.4.q.q.q.r.6.b q *._ 4 1 > } | ......N.B `.E.+ ).iXwXwXwXwXwX",
"wXwXwXwXwXiXwXwXyXeXwXwXtXtX0XJ.4.q.4.q.q.w.5.,.t w ;.*.4 O (  .} } } #.@XH '.f.O ).rXrXwXwXwXwX",
"wXwXwXwXwXwXwXwXyXyXwXwXtX3Xk.3.4.4.q.q.q.q.5.,.t w ;.;.4 O / ..} } O.f.8Xd '.U O ).iXrXwXwXwXwX",
"wXwXwXwXwXwXwXwXyXyXyXeXOXs.2.3.4.5.4.t.w.q.5.,.t w :.` 0 @ ) | +. X=Xn.<XC '.U + ).iXuXwXwXwXwX",
"wXwXwXwXwXwXwXwXyXyX0X/.6.2.3.3.4.3.h.#XOXK.t.,.t w :.;.$ @ u. X1XwX8X`.8Xd _.R.O ).iXuXwXwXwXwX",
"wXwXwXwXwXwXwXyXwX1XS.:.>.,.>.>.-.Q ,XiXiXwXOX1.b w a. Xs 8 +XwXwXwXwXqX8XC ^.W.O ).iXtXtXtXwXwX",
"wXwXwXwXwXwXwX0X.XB.o.| | ] u.V R ,XiXyXeXT.< ( & Z =X9XL p 5XiXwXwXwXwXeXI Q.[.@ W.iXwXtXtXwXwX",
"wXwXyXwXyXwX3XD.a.o.o.] &.V k E ,XiXtXtX-X<     % ].iXiXU a 7XtXwXwXwXwXtX;X;X:Xi W.tXwXwXwXwXwX",
"wXwXiXwX<X.Xd.1.` :.=.G l k E ,XtXtXtXwX7X-X, I.< *XiXiXW.L 9XwXwXwXwXwXwXwXwXeXU [.yXwXwXwXwXwX",
"wXuX<X~.T 3.6.-.F x l k k ! <XtXwXwXwXwXyX*X, *X< -XyXyX;XW.wXwXwXwXwXwXwXwXwXwXqXeXwXyXwXwXtXwX",
"wX{.Y k k x x k k k k l ~ 8XtXtXwXwXwXwXwXI.I.*XP.9XwXwXeX9XwXwXwXwXwXwXwXwXwXwXtXwXwXwXwXwXwXwX",
"8XY h k k l E ! k k l !.9XiXtXtXwXwXwXwX7X+X7XT.7XyXyXwXwXrXwXwXwXwXwXwXwXyXwXwXtXtXwXwXwXwXwXwX",
"9X~ Y E !.}.5X~ h c ~.eXtXwXwXwXwXwXwXrXrXtXwXwXwXwXyXyXwXwXwXwXwXwXwXwXwXwXwXwXtXtXwXwXwXwXwXwX",
"wX9X8X9XyXiX}.c R }.wXtXwXwXwXwXwXwXwXwXwXwXwXiXwXwXwXwXwXwXwXwXwXwXwXwXwXwXwXwXtXwXwXwXwXwXwXwX",
"wXwXwXwXyXyX;X(.8XiXwXwXwXwXwXwXwXwXwXwXwXwXwXwXwXwXyXwXwXwXyXwXwXwXwXwXwXwXwXtXwXwXwXwXtXwXwXwX",
"wXwXyXyXyXyXwXwXyXyXyXtXwXwXwXwXwXwXwXwXwXwXwXwXwXwXwXwXwXwXwXwXwXwXwXwXwXwXwXwXwXwXwXwXwXwXwXwX",
"wXwXyXyXyXyXwXyXyXyXtXtXwXwXwXwXwXwXwXwXwXwXwXwXwXwXwXwXwXwXwXwXwXwXuXwXwXwXwXwXwXwXwXwXwXwXwXwX",
"wXwXwXwXwXwXwXwXwXwXwXwXwXwXwXwXwXwXwXwXwXwXwXyXwXwXwXwXwXwXwXwXwXwXwXwXwXwXwXwXwXwXwXwXwXwXwXwX",
"wXwXwXwXwXwXwXwXwXwXwXyXwXwXwXwXwXiXwXwXwXwXwXwXwXwXwXyXwXyXwXwXwXwXwXwXwXwXwXwXwXwXwXwXwXtXwXwX",
"wXwXwXyXwXwXwXwXwXwXwXwXwXyXwXwXwXwXwXwXwXwXwXwXwXwXwXwXwXwXwXwXwXwXwXiXwXwXwXwXwXwXwXtXwXwXwXwX",
"wXwXwXwXwXwXwXwXwXwXwXwXwXwXwXwXwXyXwXwXwXwXwXwXwXwXwXwXwXwXwXwXwXwXwXwXwXwXtXwXwXwXwXwXwXwXwXwX"
};
