/* XPM */
static char *result[] = {
/* columns rows colors chars-per-pixel */
"48 48 206 2 ",
"   c #6E0003",
".  c #690809",
"X  c #720106",
"o  c #7D0605",
"O  c #7F0805",
"+  c #72040A",
"@  c #67140C",
"#  c #791208",
"$  c #7C1419",
"%  c #5F3A1C",
"&  c #6F2511",
"*  c #6F392B",
"=  c #7F4B1C",
"-  c #605D28",
";  c #775823",
":  c #5A6D30",
">  c #696829",
",  c #7F6030",
"<  c #514747",
"1  c #686464",
"2  c #840B05",
"3  c #8A0E04",
"4  c #82120D",
"5  c #8B1209",
"6  c #921304",
"7  c #991603",
"8  c #9E1A05",
"9  c #95190B",
"0  c #861A18",
"q  c #961E11",
"w  c #A51D03",
"e  c #9A2A0A",
"r  c #962318",
"t  c #873B17",
"y  c #AB2104",
"u  c #A4220B",
"i  c #B32706",
"p  c #A22A18",
"a  c #821E23",
"s  c #8D2E2F",
"d  c #993B38",
"f  c #A93926",
"g  c #D01B1D",
"h  c #D42723",
"j  c #D92223",
"k  c #DA2E2F",
"l  c #CA3F27",
"z  c #D43028",
"x  c #D73335",
"c  c #B0721F",
"v  c #B4532F",
"b  c #B06A31",
"n  c #D04C33",
"m  c #9B4E53",
"M  c #9C5351",
"N  c #A64A43",
"B  c #BB5D4D",
"V  c #A3595B",
"C  c #B56259",
"Z  c #A96567",
"A  c #B56E6A",
"S  c #B97669",
"D  c #B87977",
"F  c #DB4B49",
"G  c #DF5151",
"H  c #E15354",
"J  c #C97346",
"K  c #C36756",
"L  c #C0766C",
"P  c #DF7F71",
"I  c #E36E6E",
"U  c #64923D",
"Y  c #74A43E",
"T  c #5FA446",
"R  c #69AC46",
"E  c #62AC48",
"W  c #6CB546",
"Q  c #63B54C",
"!  c #6AB649",
"~  c #64B84D",
"^  c #6BBB4D",
"/  c #74B646",
"(  c #7BB643",
")  c #76BB49",
"_  c #6ABA54",
"`  c #7DBB54",
"'  c #72C04F",
"]  c #7CC04A",
"[  c #7AC550",
"{  c #78C358",
"}  c #B18A1F",
"|  c #948339",
" . c #A59235",
".. c #93AA35",
"X. c #84B43E",
"o. c #8DB63C",
"O. c #8BB93E",
"+. c #95B73B",
"@. c #B6A927",
"#. c #BBAC26",
"$. c #BFB026",
"%. c #BAB52C",
"&. c #B6B92D",
"*. c #BDBC2D",
"=. c #B7A939",
"-. c #A4B935",
";. c #AAB932",
":. c #C89E3F",
">. c #C4B526",
",. c #C6B826",
"<. c #CCBB27",
"1. c #C3BB2A",
"2. c #C8BB33",
"3. c #ABC23A",
"4. c #B9C23A",
"5. c #848E41",
"6. c #B68C46",
"7. c #85AB42",
"8. c #84B741",
"9. c #94BD50",
"0. c #D19F50",
"q. c #EE9F51",
"w. c #C9B851",
"e. c #EDBC5B",
"r. c #F6BC5E",
"t. c #F9BC5E",
"y. c #C88379",
"u. c #D28674",
"i. c #F2BC65",
"p. c #84C84E",
"a. c #94C64C",
"s. c #85CA51",
"d. c #85CC51",
"f. c #92D353",
"g. c #9EDB54",
"h. c #98D65E",
"j. c #ACD052",
"k. c #AEE657",
"l. c #94C96B",
"z. c #ACD16F",
"x. c #B8E374",
"c. c #C9C559",
"v. c #D7CB5A",
"b. c #D4CD69",
"n. c #B58887",
"m. c #ABAAAB",
"M. c #C78A83",
"N. c #D6988A",
"B. c #C29598",
"V. c #E78585",
"C. c #EA9C9C",
"Z. c #D7A49B",
"A. c #C79EA0",
"S. c #E69FA0",
"D. c #CAA4A6",
"F. c #D5ACA7",
"G. c #D6B2AD",
"H. c #DABAB8",
"J. c #EAA5A5",
"K. c #EEBDBC",
"L. c #AAD08F",
"P. c #BDE0A8",
"I. c #D8CC89",
"U. c #DBD586",
"Y. c #F2D898",
"T. c #D0F094",
"R. c #E3E292",
"E. c #D0D7A6",
"W. c #E0DBAB",
"Q. c #E6C6BE",
"!. c #D8EBA6",
"~. c #CAE6B6",
"^. c #DBE9B8",
"/. c #BFBFC0",
"(. c #DBC2C3",
"). c #DFCBCB",
"_. c #DEDFDF",
"`. c #EAC0C1",
"'. c #E4CCC9",
"]. c #F0C8C8",
"[. c #E7D1CE",
"{. c #E5D4D3",
"}. c #EBD9D6",
"|. c #E6D9DA",
" X c #ECDBD9",
".X c #F2D5D6",
"XX c #F2DCDA",
"oX c #CCE5C5",
"OX c #D8E9CF",
"+X c #DCEDD0",
"@X c None",
"#X c None",
"$X c None",
"%X c None",
"&X c None",
"*X c None",
"=X c None",
"-X c None",
";X c None",
":X c None",
">X c None",
",X c None",
"<X c None",
"1X c None",
"2X c None",
"3X c None",
/* pixels */
">X>X>X>X>X>X>X>X>X>X>X>X>X>X>X<X>X>X>X>X>X>X>X>X>X>X>X>X>X,X>X>X>X>X>X>X>X>X>X>X>X>X>X>X>X>X>X>X",
">X>X>X>X>X<X>X>X>X>X<X>X>X>X>X>X>X>X>X>X>X>X>X>X>X>X>X>X>X>X>X<X>X>X>X>X>X>X>X>X>X>X>X>X>X>X>X>X",
">X>X>X>X>X>X>X>X>X>X>X>X>X>X>X>X>X>X>X>X>X>X<X>X<X>X>X>X>X>X>X>X>X>X>X>X>X>X,X>X>X>X>X>X>X>X>X>X",
">X>X>X>X>X,X>X>X>X>X>X>X>X,X>X>X>X>X>X>X,X>X>X>X>X>X>X>X>X>X>X>X>X>X>X>X>X>X>X>X>X>X>X>X>X>X,X>X",
">X>X>X>X>X>X>X>X>X>X>X>X>X>X>X>X<X>X>X>X>X>X>X>X>X>X>X>X>X>X>X>X>X,X>X>X>X>X>X>X>X>X>X>X>X>X>X>X",
">X>X>X>X>X>X<X>X>X>X<X>X<X>X>X>X>X>X>X>X>X<X>X>X>X<X>X>X>X>X>X<X>X>X>X>X>X>X>X>X>X>X>X>X>X>X>X>X",
",X>X>X>X>X>X>X>X>X,X>X>X>X>X>X>X>X>X>X>X>X>X>X>X>X>X,X>X>X>X>X>X>X>X>X>X>X>X>X>X>X>X>X>X>X>X>X>X",
">X>X>X<X>X>X>X>X>X>X>X>X>X>X>X>X,X>X>X>X>X>X>X>X>X>X>X>X>X>X>X>X>X>X>X>X>X>X>X>X>X,X>X>X>X>X>X>X",
">X>X>X>X,X>X>X>X>X>X>X>X<X>X>X>X>X>X>X>X,X,X,X,X>X>X2X2X2X<X<X<X<X>X2X>X>X>X>X>X>X<X<X>X>X>X>X>X",
"<X>X>X>X>X>X>X>X>X>X>X<X>X,X>X>X>X>X>X>X>X,X,X,X>X>X2X3X2X2X1X1X2X;X%X+X%X>X>X>X>X>X<X>X>X>X>X>X",
">X>X>X>X>X>X>X>X>X>X>X>X>X>X>X>X>X>X>X,X>X>X,X,X3X3X;XOXoXoXoXOXP.z.h.j.b.R.:X>X>X>X>X>X>X1X>X>X",
">X>X>X>X<X>X>X>X>X>X>X>X>X>X>X>X>X>X>X>X>X>X,X,XOXL.l._ Q _ _ { [ s.g.v.e.e.Y.>X>X>X>X>X>X>X>X>X",
">X>X>X>X>X>X>X>X>X>X>X>X>X>X>X>X>X>X>X>X,X,X$XL.` W ! Q Q ~ _ ' [ d.j.t.0.M i.#X<X3X>X>X>X>X>X>X",
">X<X>X>X>X>X>X>X>X>X>X>X>X>X>X>X>X>X>X>X,X^.l.Y / ! ! ~ Q Q ~ ' [ d.c.t.w.6.q.u.-X3X>X>X>X>X>X>X",
">X>X>X,X<X>X>X>X>X<X>X>X>X>X>X>X,X,X,X:XU.2.*.+.X.W ~ Q ~ ~ ^ ' [ d.c.t.r.t.n h `.3X>X>X>X>X>X>X",
">X>X>X>X>X>X>X>X>X>X,X>X>X>X<X>X,X3X@Xb.,.<.<.<.1.;.O.W ~ ~ _ ' [ d.j.e.t.q.h g J.3X>X>X>X>X>X1X",
">X>X>X>X>X>X>X>X>X>X>X>X>X>X>X,X>XW.w.<.,.<.<.<.<.<.<.*.-.O.] ' ] d.f.k.v.w.n x S.3X,X,X>X>X>X>X",
">X>X>X>X>X>X>X>X>X>X>X>X>X>X3X:XU.2.,.,.1.&.-.-.;.*.<.<.<.<.1.4.3.3.3.j.x.!..X.X.X1X>X>X>X>X>X>X",
">X>X>X>X>X>X>X>X>X>X>X>X>X<X@Xc.>.>.,.,.-.O.( ( / ( O.-.%.4.1.1.4.4.U.^.#X,X,X,X>X>X>X>X>X>X>X>X",
">X>X>X>X>X>X>X>X>X>X>X,X>XW.w.$.>.,.,.$.O.O.X.( / W ~ Q W / ( ] [ f.~.3X,X,X,X,X>X>X>X>X>X>X>X>X",
">X>X>X>X>X>X>X>X>X>X3X:XI.@.#.$.#.,.<.%.o.X.X.) W W ! ~ Q Q ~ ' [ d.z.;X>X>X>X>X>X>X>X>X>X>X>X>X",
">X>X>X>X>X>X>X>X>X>X@Xw.@.#.#.$.>.>.<.} , > Y X./ W ! Q E E ' ' [ d.f.~.1X>X>X>X>X>X>X>X>X1X>X>X",
">X>X>X>X>X>X>X>X>XE.=. .@.#.@.:.I.b.c.c 3 & Y Y ) W Q Q Q E ~ ' [ d.f.x.:X>X,X>X>X>X>X>X>X>X>X>X",
">X>X>X>X>X>X>X%XL.7....... .J K.1X,X:XL 2 # > Y R W Q ~ E T ' ' [ [ f.g.^.1X>X>X>X>X>X>X>X>X>X>X",
">X>X>X>X<X=XE.a.W W ! 5.v F K.3X>X_.m.M 3 2 @ & U / ~ Q E T ' ' [ s.f.g.T.;X,X,X>X>X>X>X>X>X>X>X",
">X>X<X>X@Xz.o.8./ b v h F '.<X>X;Xm.< @ 3 2 o X > W E ~ E U U U [ s.f.g.k.+X,X>X>X>X>X>X>X2X>X>X",
">X-XK.P =... .b n j j H .X<X>X>X>X*X1 $ 3 2 O X > R : Q U t e = ) p.p.g.k.T.,X>X>X>X>X>X>X>X>X>X",
"XXI k j l l z j j j I =X3X,X>X>X2X_.< # 3 2 2 X % - % Q > f y e ; ; ; a.k.k.:X,X2X>X>X>X>X>X>X>X",
"C.j j k G V.G j k V.-X<X>X>X>X>X<X/.n.4 3 2 O X . . @ - * C i w w 7 6 ; 9.| G.1X>X>X>X>X>X>X>X>X",
".XC.C.].=X].k F J.>X3X3X>X>X>X>X>X;XG.9 3 2 o +     . . s F.i y w 8 9 5 & # A <X>X>X>X>X>X>X>X>X",
"3X3X,X1X1XJ.V..X<X>X>X>X>X>X>X>X,X,X'.r 3 2 O + X + +   m =Xn y w 8 7 6 6 2 d &X1X>X>X>X>X>X>X2X",
",X,X1X1X1X-X1X1X>X,X>X>X>X>X>X>X>X,X>XD 3 2 O X X     . D 3XN.y w 8 7 6 3 2 4 G.3X>X>X>X>X>X>X>X",
",X,X,X>X>X>X>X>X>X>X>X>X>X>X1X>X,X,X3XF.5 4 O X X X   + D.3X-XN.B u f 5 3 2 2 Z >X>X>X>X>X>X>X>X",
",X,X>X>X>X>X>X>X>X>X>X>X>X>X>X>X,X,X3XL 3 2 2 X X X + a {.>X<X3XZ.f S 6 5 2 o 0 ).>X>X>X1X>X>X>X",
">X>X>X>X>X1X>X>X>X>X>X>X>X>X>X>X1X1X-XN 3 2 O X   +   M >X>X>X>X'.B L q C 5 2 o Z >X1X>X&X-X&X>X",
">X>X>X>X>X>X>X>X>X>X>X>X>X>X>X>X-X>XH.q 3 2 o X + + + A.<X>X>X>X>X|.Z.f F.0 o X $ D.>XB.n.(.).1X",
">X>X>X>X>X>X>X>X>X>X,X,X>X>X>X3XZ.M.C 6 3 2 o X     s *X2X2X>X>X>X3X}.C {.N d 0   $ V $ Z Z |.3X",
">X>X>X>X>X>X>X>X>X>X,X,X>X=X-X3Xy.w w 6 3 2 o o + X n.2X<X2X<X<X>X>X>X&X>XM.d n.a + $ a s n.2X2X",
">X>X>X>X>X>X>X>X>X>X,X,X3XQ.u. XL w 7 6 3 2 o X   V -X2X<X<X<X<X>X>X>X1X>X|.V (.).D.).|.|.>X2X<X",
">X>X>X1X>X>X>X>X>X>X,X,X,X,XZ.K v p r r r 0 $ a A &X2X2X<X<X<X<X>X>X>X>X>X>X=X>X3X3X1X1X>X<X<X<X",
">X>X>X>X>X>X>X>X>X>X>X>X>X>X>X X`.'.[.[.).Q.H.).>X3X>X>X>X>X>X>X2X>X>X>X>X>X2X>X>X>X>X>X>X>X>X>X",
">X>X>X>X>X>X>X>X>X>X>X>X>X>X1X1X3X3X3X3X2X2X3X2X>X>X>X>X>X>X>X>X>X>X>X>X>X>X>X>X>X>X>X>X>X>X>X>X",
">X>X>X>X>X>X>X1X,X>X>X>X>X>X1X,X>X>X>X>X>X>X>X>X>X>X>X>X>X>X>X>X>X>X>X>X>X>X>X>X>X>X>X>X>X2X>X>X",
">X>X>X>X>X>X>X>X>X>X>X>X>X>X>X>X>X>X>X>X>X>X>X>X>X>X>X>X<X>X>X,X>X>X>X>X>X>X>X>X>X2X>X>X>X>X>X>X",
"1X>X>X>X>X>X>X>X>X>X1X>X>X>X>X>X>X>X>X>X>X>X>X>X>X>X>X>X>X>X>X>X>X>X>X>X2X>X>X>X>X>X>X>X>X>X>X>X",
">X>X>X>X>X>X>X>X>X>X>X>X>X>X>X>X>X>X>X>X>X>X>X>X>X>X>X>X>X>X<X>X>X>X>X>X>X>X>X>X>X>X>X>X>X>X>X>X",
">X>X>X>X>X>X>X>X>X>X>X>X>X>X>X>X>X>X>X>X>X>X>X>X>X>X>X>X>X>X>X>X>X>X>X>X>X>X>X>X>X>X>X2X>X>X>X>X",
"<X>X>X>X>X>X>X>X>X>X>X>X>X>X>X>X>X>X>X>X>X>X>X>X>X>X>X>X>X>X>X<X>X>X>X>X>X>X>X>X>X>X>X>X>X>X>X>X"
};
