/* XPM */
static char *result[] = {
/* columns rows colors chars-per-pixel */
"48 48 226 2 ",
"   c #292425",
".  c #3A3432",
"X  c #6F0000",
"o  c #720101",
"O  c #7B0101",
"+  c #760A08",
"@  c #651A0B",
"#  c #7B1707",
"$  c #791213",
"%  c #7B250C",
"&  c #6E3114",
"*  c #783612",
"=  c #413D3E",
"-  c #724A1B",
";  c #53412A",
":  c #705422",
">  c #5D7530",
",  c #7C6C26",
"<  c #6F782E",
"1  c #4C4849",
"2  c #767471",
"3  c #820201",
"4  c #8C0500",
"5  c #810B05",
"6  c #860B06",
"7  c #940A01",
"8  c #960B00",
"9  c #871606",
"0  c #9C1301",
"q  c #961A07",
"w  c #8B1A19",
"e  c #901815",
"r  c #A51B05",
"t  c #962607",
"y  c #86310F",
"u  c #9A360B",
"i  c #9D231A",
"p  c #AD2905",
"a  c #AD2C17",
"s  c #B6381F",
"d  c #851F21",
"f  c #962622",
"g  c #93362A",
"h  c #963535",
"j  c #A8362A",
"k  c #AC3B2D",
"l  c #C40C12",
"z  c #CF1217",
"x  c #D4181A",
"c  c #D91C1D",
"v  c #D5241E",
"b  c #D8201F",
"n  c #D82525",
"m  c #CC3C22",
"M  c #D73526",
"N  c #D73336",
"B  c #9C480E",
"V  c #864816",
"C  c #80581D",
"Z  c #AA4C0C",
"A  c #9A7D1F",
"S  c #B9640E",
"D  c #B66814",
"F  c #925130",
"G  c #B9472C",
"H  c #AC4339",
"J  c #B54939",
"K  c #A45036",
"L  c #8B6929",
"P  c #907C2F",
"I  c #B07329",
"U  c #A84D47",
"Y  c #B95445",
"T  c #AC5957",
"R  c #B25E59",
"E  c #BE6A5F",
"W  c #A76264",
"Q  c #BA7877",
"!  c #DE4545",
"~  c #D2594D",
"^  c #E15556",
"/  c #CA6E59",
"(  c #C4786D",
")  c #C47F78",
"_  c #E36565",
"`  c #E57171",
"'  c #5E933B",
"]  c #6E8A35",
"[  c #728533",
"{  c #6C9C3D",
"}  c #729337",
"|  c #76A73B",
" . c #69AA46",
".. c #72A340",
"X. c #74AC44",
"o. c #63B64B",
"O. c #65B94C",
"+. c #69B848",
"@. c #6BBC4C",
"#. c #73B744",
"$. c #75B944",
"%. c #71AD59",
"&. c #75B95A",
"*. c #73C14E",
"=. c #7AC74F",
"-. c #7DC466",
";. c #998824",
":. c #8E9A2D",
">. c #8D8A3A",
",. c #879431",
"<. c #819B36",
"1. c #959736",
"2. c #AB8B31",
"3. c #99A72D",
"4. c #87A737",
"5. c #9AAC31",
"6. c #99AF38",
"7. c #8AB73B",
"8. c #95B737",
"9. c #A4AC2F",
"0. c #B5A425",
"q. c #BBAD22",
"w. c #B9B627",
"e. c #BBBD29",
"r. c #A7BB37",
"t. c #C49C1B",
"y. c #C3A41D",
"u. c #C7B61F",
"i. c #C4B422",
"p. c #C6B527",
"a. c #C4BB25",
"s. c #CEBD22",
"d. c #B8C12E",
"f. c #849E52",
"g. c #AC8547",
"h. c #BB9648",
"j. c #91B64A",
"k. c #87BE55",
"l. c #A6BD43",
"z. c #B38D6F",
"x. c #DA975A",
"c. c #EB8547",
"v. c #DAA658",
"b. c #F2A855",
"n. c #E9B85B",
"m. c #F6BC5E",
"M. c #F8BD5E",
"N. c #CD8B75",
"B. c #D48674",
"V. c #CBA661",
"C. c #84C64B",
"Z. c #89CD54",
"A. c #95CE52",
"S. c #ABC655",
"D. c #B8C755",
"F. c #A6D354",
"G. c #A8C668",
"H. c #A8C87D",
"J. c #AEE16B",
"K. c #C8C55B",
"L. c #D5CE5B",
"P. c #E7C65D",
"I. c #F7C05F",
"U. c #CDC66B",
"Y. c #DBC766",
"T. c #8A8889",
"R. c #999798",
"E. c #B78182",
"W. c #9DB48B",
"Q. c #A7BC89",
"!. c #B6B8AF",
"~. c #C28887",
"^. c #CE9A8C",
"/. c #C79797",
"(. c #D49D98",
"). c #E78383",
"_. c #EA9899",
"`. c #DBA69C",
"'. c #CEB99B",
"]. c #CBA3A4",
"[. c #DBADA5",
"{. c #DAB1AC",
"}. c #C0BFBF",
"|. c #D3B2B3",
" X c #D9BDBD",
".X c #EBACAC",
"XX c #E1B3A8",
"oX c #E9BAB9",
"OX c #94CB80",
"+X c #A4D494",
"@X c #CED18F",
"#X c #D3D493",
"$X c #EED797",
"%X c #CEE58F",
"&X c #DADBAB",
"*X c #C8C0BD",
"=X c #C5D7B4",
"-X c #E6DFB5",
";X c #D8E1B7",
":X c #EEE8AE",
">X c #CBCACA",
",X c #DBC7C3",
"<X c #D6D5D5",
"1X c #E8C8C4",
"2X c #E8D6D4",
"3X c #EDDEDC",
"4X c #F2D5D5",
"5X c #F3DBDB",
"6X c #DBE7C8",
"7X c #DFE7D7",
"8X c #E7E7C7",
"9X c #EEE4DC",
"0X c #F1E0DC",
"qX c #EFF3DC",
"wX c #E7E7E5",
"eX c #F3E4E3",
"rX c None",
"tX c None",
"yX c None",
"uX c None",
"iX c None",
"pX c None",
"aX c None",
"sX c None",
"dX c None",
"fX c None",
/* pixels */
"uXuXuXuXuXuXuXuXaXaXpXuXuXuXaXaXuXuXuXuXuXuXuXuXuXuXuXuXuXuXuXuXuXuXfXuXuXuXuXuXuXuXuXuXuXuXaXuX",
"uXuXuXuXuXaXuXuXpXaXuXuXuXuXaXaXuXuXuXuXuXuXuXuXuXuXuXuXuXuXuXuXuXuXuXuXuXuXuXuXuXuXuXuXuXuXuXuX",
"uXuXuXuXuXuXuXuXaXaXaXfXuXaXaXaXuXuXuXuXuXuXuXuXuXuXuXuXuXuXuXuXuXuXuXuXuXuXuXuXuXuXuXuXsXuXuXsX",
"uXuXuXuXsXuXuXuXaXaXaXfXaXfXfXfXfXuXuXuXuXuXuXuXuXuXuXuXuXuXuXuXuXuXuXuXuXuXuXuXuXuXuXuXpXuXuXuX",
"uXuXuXuXuXuXuXuXaXaXaXwX,X|.|. X2XiXuXuXuXuXuXuXuXaXaXaXuXuXuXuXuXuXuXuXuXuXuXuXuXuXuXuXaXuXuXuX",
"uXuXuXuXuXuXuXuXaXfX|.h $ + + $ $ T  XuXsXuXuXuXuXuXuXaXuXuXuXuXuXuXuXuXuXuXuXuXuXuXuXuXuXuXuXuX",
"uXuXuXuXuXuXuXuXfXfXE.X X X X X + O w ~.rXuXuXuXuXuXuXuXuXuXuXuXuXuXuXuXuXuXuXuXsXuXuXuXuXuXuXuX",
"uXuXaXuXuXuXuXuXfXfX<XF X X X X o O O 6 R 3XuXuXuXuXsXuXuXuXuXuXuXuXuXuXuXuXfXuXuXuXpXsXuXuXuXuX",
"uXuXuXuXpXdXpXuXuXuXpXQ.- X X X o O O 4 4 U 2XsXuXuXaXpXaXuXuXuXuXuXuXuXuXuXuXuXuXuXuXuXuXuXuXuX",
"uXsXuXuXdXpXaXaXuXuXaX=X .& X X O O O 3 4 7 H 2XsXuXaXaXpXuXuXuXuXuXuXuXuXuXuXuXuXuXuXuXuXuXuXuX",
"uXuXuXuXtX7XwXiXaXuXaX<X%.[ + o o O 3 4 4 7 7 Y 9XfXaXaXuXuXuXuXuXuXuXuXuXuXuXuXuXuXuXuXuXuXuXuX",
"uXuXuX6XJ.Z.-.OX=XtXaXuX-.| * X o O O 4 4 8 0 8 / rXaXaXuXuXuXuXuXuXuXuXuXuXuXuXuXuXuXuXuXuXuXuX",
"uXuXuXz., ..o.+.$.G.;XuXW.#.P X o O O 6 4 i ( j r ^.uXuXuXuXuXuXuXuXuXuXuXuXuXuXuXuXuXuXuXuXuXuX",
"uXuXuX|.$ @ > o.$.7.r.#X+XX.4.% o O 3 3 7 6 (.1XJ s 1XuXuXuXuXuXuXuXuXuXuXuXuXuXuXuXsXuXuXuXuXfX",
"uXuXuXiXW X @ > | 4.5.e.V.X.j.V o O 3 3 H i j 1X5XG ( iXuXuXuXuXuXuXuXuXuXuXaXuXuXuXuXuXuXuXuXaX",
"uXuXuXiX@X1.>.} { { } } <.] 8.A O O 3 3 Y Q 7 Y eXXXs 1XfXuXuXuXfXuXaXuXuXuXuXuXuXsXpXuXuXuXuXuX",
"aXaXpX:XL.P.L.F.Z.=.@.O.o.' } ;.# O 5 3 f {.k 0 `.rX~ N.fXuXuXuXuXuXuXuXuXuXuXuXuXuXuXuXuXuXuXuX",
"uXaXqXm.h.m.m.Y.Z.=.*.*.o.o.o.| * O h e 4 ) (.r Y rXXXY yXiXuXuXuXuXuXuXuXuXuXuXuXuXuXuXuXuXuXuX",
"uXuX:Xh.; n.M.m.S.=.*.O.o.O.o.O.: O g U 4 i *XY r oXrXB.0XfXuXuXuXsXuXuXuXuXuXuXuXuXuXuXuXuXuXuX",
"uXuX$Xv.g.m.m.M.D.=.*.*.O.o.o.O.< O 5 F 7 8 B.XXr ( uXrXiXuXuXuXuXuXuXuXuXuXuXsXuXaXuXuXuXuXuXuX",
"uXeXx.M.I.M.m.M.K.=.@.@.O.O.O.O.] + 3 C y 7 H 2XG G tXfXiXuXuXuXuXuXuXuXuXuXaXuXuXuXuXuXuXuXuXsX",
"sX(.n c.M.M.M.M.D.=.*.@.O.O.o.O.{ # 3 - L 8 q '.N.a 1XfXuXuXuXuXuXuXuXuXuXuXuXuXuXuXuXsXuXuXuXuX",
"rX~ l M b.M.I.n.A.=.*.@.O.o.o.O.X.% O t 0.t 0 I h.p XXfXuXuXuXuXuXaXuXuXuXuXuXuXuXuXuXuXuXuXuXuX",
"5XN z z c.M.P.D.Z.=.*.*.O.+.$.8.w.V 3 q y.u 8 S y.p N.fXuXuXuXuXuXuXuXuXuXuXaXuXuXuXuXuXuXuXuXuX",
"4XN z b x.K.F.A.C.C.C.7.8.d.a.s.s.B 3 9 y.D 0 Z u.p D #XyXfXuXuXuXuXuXuXuXuXuXuXuXuXuXuXuXuXuXuX",
"rX.XoXoX6X%XD.d.d.e.a.s.s.s.s.s.s.Z 3 9 1.A 0 Z s.D S i.L.8XsXsXuXuXuXuXuXuXuXuXuXuXuXuXuXuXuXuX",
"aXaXaXaXfXfX^.y V.Y.0.e.d.e.e.r.7., O 9 <.,.0 B e.t.t.u.p.p.-XiXsXsXsXsXuXuXuXuXuXuXsXuXuXuXuXuX",
"aXaXaXaXpXfX/.O ~.XXF k.$.#.O.+.@.[ 4 9 } :.q u 9.a.y.u.w.i.p.#XrXsXiXsXuXuXuXsXuXuXuXuXuXuXuXuX",
"uXuXsXuXpXfX].O Q {.H =X&.o.o.o.+.[ 5 9 <.4.t u 5.p.i.i.p.q.i.q.U.qXiXiXuXaXuXuXuXuXuXuXuXuXsXuX",
"uXuXuXuXaXfX].O Q {.H 5Xz.&.O.o.+.] O 9 | 4.t u 5.w.s.i.i.i.q.q.q.l.8XiXaXuXuXuXuXuXuXuXuXuXuXuX",
"uXuXuXuXfXfX].O Q [.k 3XN.;X+X&.+.] 5 9 4.4.t u 5.w.u.i.p.i.q.q.0.0.h.&XuXuXaXuXsXuXuXuXuXuXuXuX",
"uXuXsXsXfXfX].O ~.[.k 5XXXeXpX6X+Xf.# y f.4.t u 6.a.U.$X8Xv.0.w.q.q.0.0.@XtXsXuXuXuXuXuXuXuXuXuX",
"uXuXuXuXaXfX].5 /.(.k eXrXuXuXsXuX,Xw g H.j.t B 6.&XiXpXfX5X/ 2.6.8.9.3.4.H.6XdXdXdXaXuXuXuXuXuX",
"uXuXuXuXfXfX/.$ |.(.E uXuXuXuXuXaX3Xd T iX6XK * < 2 !.pXaXaX5X^ G >. .+.$.X.k.@XtXdXsXsXuXuXuXuX",
"uXuXsXuXfXfXE.w 2X1X,XsXuXuXuXuXaXeXg Q sXsX*X. .   2 <XfXaXfX4X^ n G >.X.$.7.j.G.6XuXsXuXuXuXuX",
"uXuXuXuXfXfX XQ iXuXiXuXuXuXuXuXaXuXU /.fXfX>X2 R.= <XwXaXaXaXfX3X^ c v G P 4.7.8.l.@X0XaXfXuXsX",
"uXuXuXuXuXuXiXyXuXuXuXuXuXuXuXuXaXaX/.,XfXaX<X2 <X1 >XfXfXuXuXuXuX5X_ c c b m I 2.9.0.~ _.5XiXuX",
"uXuXuXuXuXuXuXfXuXuXuXuXuXuXuXuXuXuXrXiXaXuXyXT.}.R.T.aXuXuXuXuXaXaXeX` b c c c v M m b c ! .XuX",
"uXfXuXuXuXuXuXuXuXuXuXuXuXuXuXuXuXuXaXuXaXaXfXwX}.wX}.wXaXuXuXaXuXuXfXrX).n c b _ ^ n c c x ! eX",
"uXuXuXuXuXuXuXuXuXuXuXuXuXuXuXuXuXuXuXuXaXaXuXfXaXaXaXaXuXuXuXuXuXuXuXaXyX_.N c _ 0XoX).^ ! ` rX",
"uXuXuXuXuXuXuXuXuXuXuXsXuXuXuXuXuXuXuXuXuXuXuXuXuXuXuXsXuXuXuXuXuXuXuXuXsXsXoX^ M 1XsXsXrXeXrXsX",
"uXuXuXuXuXuXuXuXuXuXuXuXuXuXuXuXuXuXuXuXuXuXuXuXuXsXpXuXuXuXuXuXuXsXuXuXsXsXsX5X_.-XsXsXsXsXsXsX",
"uXuXuXuXuXuXuXuXuXuXuXuXuXaXuXuXuXuXuXuXuXuXuXuXuXuXuXuXuXuXuXsXuXuXuXuXuXuXuXaXsXsXsXsXsXiXsXsX",
"uXuXuXuXaXuXuXuXuXuXuXuXuXaXaXaXuXuXuXuXuXuXuXuXuXuXuXuXuXuXuXuXuXuXuXuXuXuXuXuXsXsXsXsXsXsXsXsX",
"sXuXuXuXuXuXuXuXuXuXuXuXuXuXuXuXuXuXfXuXuXuXuXuXuXuXuXuXuXuXuXuXuXuXuXuXuXuXuXuXuXuXuXuXaXuXuXuX",
"uXuXuXuXuXuXsXuXsXuXuXuXuXuXuXuXuXuXuXuXuXuXuXuXaXuXuXuXuXuXuXuXuXuXuXuXuXuXuXuXuXaXuXuXuXuXaXuX",
"uXuXuXuXuXuXuXuXuXuXuXuXuXuXuXuXuXuXuXuXaXuXpXsXuXuXuXuXuXuXaXuXuXuXuXuXuXuXaXaXuXuXuXuXuXuXuXuX",
"uXuXuXuXuXuXuXuXuXuXuXuXuXuXuXaXuXuXuXuXuXuXaXuXuXuXuXuXuXuXuXuXuXuXuXsXuXuXuXaXaXiXuXuXuXuXuXuX"
};
