/* XPM */
static char *result[] = {
/* columns rows colors chars-per-pixel */
"48 48 210 2 ",
"   c #6E0004",
".  c #6E0C0A",
"X  c #710106",
"o  c #7B0404",
"O  c #7D0D07",
"+  c #73050B",
"@  c #750A0D",
"#  c #6C150E",
"$  c #74110B",
"%  c #7B151B",
"&  c #6F2C16",
"*  c #712D14",
"=  c #6C3A1B",
"-  c #74501E",
";  c #714E23",
":  c #6E692D",
">  c #687433",
",  c #6E7C58",
"<  c #6B686A",
"1  c #961403",
"2  c #9B1603",
"3  c #9D1904",
"4  c #911C09",
"5  c #9C1E0B",
"6  c #861411",
"7  c #A71D03",
"8  c #A41D04",
"9  c #932B0D",
"0  c #963117",
"q  c #AA2205",
"w  c #AB2409",
"e  c #A72A15",
"r  c #A8301C",
"t  c #B43215",
"y  c #B83C1F",
"u  c #842429",
"i  c #8A2F34",
"p  c #8C3338",
"a  c #B13A22",
"s  c #CA1419",
"d  c #D72624",
"f  c #CA3627",
"g  c #D2372C",
"h  c #DB3435",
"j  c #8C4B1A",
"k  c #904015",
"l  c #89551E",
"z  c #8A5B20",
"x  c #B6422A",
"c  c #AC4434",
"v  c #B84A34",
"b  c #AF5830",
"n  c #B75638",
"m  c #906B2A",
"M  c #A17F35",
"N  c #D14D2E",
"B  c #913C41",
"V  c #944246",
"C  c #99484B",
"Z  c #9B4E52",
"A  c #9D5256",
"S  c #A34B48",
"D  c #B95644",
"F  c #A25B5E",
"G  c #A85B5A",
"H  c #BA675C",
"J  c #A86569",
"K  c #B56F6C",
"L  c #B2797C",
"P  c #DF5453",
"I  c #C76149",
"U  c #C66A55",
"Y  c #C97868",
"T  c #E36D6C",
"R  c #E57173",
"E  c #5F8238",
"W  c #7C8532",
"Q  c #738939",
"!  c #7C9D3A",
"~  c #7EA83D",
"^  c #779053",
"/  c #6BAB46",
"(  c #79A943",
")  c #63B64C",
"_  c #6BB649",
"`  c #63B84D",
"'  c #6BBA4C",
"]  c #73B545",
"[  c #7AB643",
"{  c #77BA48",
"}  c #78A756",
"|  c #7C8960",
" . c #79BF65",
".. c #71C04F",
"X. c #79C550",
"o. c #938F39",
"O. c #B28F35",
"+. c #8BAF3B",
"@. c #95A933",
"#. c #89B43D",
"$. c #98B839",
"%. c #B7A627",
"&. c #BAAD26",
"*. c #BAB52A",
"=. c #BCB72B",
"-. c #A1AE3B",
";. c #A8B933",
":. c #B1BA31",
">. c #C4B526",
",. c #C9B927",
"<. c #C1B92A",
"1. c #C6B836",
"2. c #AB9A51",
"3. c #8FAC41",
"4. c #87B644",
"5. c #84BC43",
"6. c #93B74A",
"7. c #BFB44E",
"8. c #928664",
"9. c #AE8E7C",
"0. c #8DAC70",
"q. c #BEB868",
"w. c #BFBE76",
"e. c #CABB53",
"r. c #EBA855",
"t. c #EABF5D",
"y. c #F7B85D",
"u. c #F7BC5E",
"i. c #CB8579",
"p. c #D48E7F",
"a. c #87C44B",
"s. c #9EC64D",
"d. c #84CB51",
"f. c #9BC953",
"g. c #8FD352",
"h. c #97D754",
"j. c #A8CA55",
"k. c #ABE357",
"l. c #BCF15A",
"z. c #A9D966",
"x. c #B4D579",
"c. c #C1CF56",
"v. c #D4C966",
"b. c #D4CB72",
"n. c #C5ED78",
"m. c #888587",
"M. c #BC8B8D",
"N. c #BE9092",
"B. c #9EB387",
"V. c #B3B1B3",
"C. c #D58E85",
"Z. c #CE938A",
"A. c #D69789",
"S. c #C19294",
"D. c #D99E90",
"F. c #E58585",
"G. c #EA999A",
"H. c #DCA584",
"J. c #D6A69E",
"K. c #DBA69A",
"L. c #E6AD9F",
"P. c #C69DA0",
"I. c #CCA6A7",
"U. c #DAB2AC",
"Y. c #C0BFBF",
"T. c #D7B6B5",
"R. c #E9B3AC",
"E. c #E5B8B2",
"W. c #99CF89",
"Q. c #ADD588",
"!. c #BEE48C",
"~. c #B9D7A0",
"^. c #D2D28F",
"/. c #C9E894",
"(. c #C5DCB5",
"). c #D3D1B7",
"_. c #E7CFB1",
"`. c #D7EAB8",
"'. c #E5EEB7",
"]. c #D8BFC0",
"[. c #C7C7C7",
"{. c #DBC4C5",
"}. c #DFCBCC",
"|. c #D0D2C5",
" X c #E7CBC5",
".X c #E8C8C6",
"XX c #F1CDCD",
"oX c #EBD3CD",
"OX c #E9D7D5",
"+X c #EBDCDC",
"@X c #F3D8D9",
"#X c #CEE5C8",
"$X c #D4E7CA",
"%X c #EAE7C9",
"&X c #EBEACB",
"*X c #EAE5DC",
"=X c #F4E8DC",
"-X c #E6F2D6",
";X c #EDE3E2",
":X c #E9E9E7",
">X c #F3E7E3",
",X c #F3EDEC",
"<X c #F2F3E6",
"1X c None",
"2X c None",
"3X c None",
"4X c None",
"5X c None",
"6X c None",
"7X c None",
/* pixels */
"3X3X3X3X3X3X3X3X3X3X3X3X3X3X3X3X3X3X3X3X3X3X3X3X3X3X3X3X3X3X3X3X3X3X3X3X3X3X3X3X3X3X3X3X3X3X3X3X",
"3X3X3X3X3X4X3X3X3X3X3X6X3X3X3X3X3X3X3X3X3X3X3X3X3X3X3X3X3X3X3X3X3X3X3X3X3X3X3X3X3X3X3X3X3X3X3X3X",
"3X3X3X3X3X3X3X3X3X3X3X3X3X3X3X6X3X3X6X3X3X3X4X4X3X3X3X3X3X3X3X3X3X6X3X3X4X3X6X3X3X3X6X3X3X3X3X3X",
"3X3X4X3X3X3X6X3X3X3X3X5X3X3X3X3X3X3X3X3X3X3X3X4X3X3X3X3X3X3X3X3X3X3X3X3X3X3X3X3X3X3X3X3X3X3X3X6X",
"3X3X6X3X3X3X3X3X3X3X3X3X3X3X3X5X3X3X3X3X3XU.>X4X3X3X3X4X3X3X3X3X3X3X3X3X3X3X3X3X6X3X3X3X3X6X3X3X",
"3X3X3X3X3X3X3X3X3X3X3X3X3X3X3X3X3X3X3X3X3Xi.T.7X3X3X3X3X3X3X3X3X3X3X3X4X3X3X3X4X2X3X3X3X3X3X3X3X",
"3X3X3X3X3X3X3X6X3X3X5X3X3X3X3X3X3X3X3X3X3XY Z.7X3X3X3X3X3X3X3X3X3X3X3X3X3X3X6XOXN.3X3X3X3X3X3X3X",
"3X3X3X3X3X3X3X3X3X3X3X3X3X3X3X3X6X3XoX3X5XY H 4X6X3X3X3X3X4X3X3X3X3X3X3X6X6X6XI.A 2X3X3X3X3X3X3X",
"3X6X3X3X3X3X3X3X3X3X3X3X3X3X3X3X3X3Xi. X4XC.c >X6X3X3X3X3X3X3X3X3X3X3X4X:XOX6XL V 2X3X3X3X3X3X6X",
"3X3X3X3X3X6X3X3X3X3X3X6X3X3X3X3X3X6XA.U 3XZ.r oX6X3X3X3X3X6X3X3X3X4X3X4XT.J 2XZ B 2X6X3X3X3X3X3X",
"3X3X3X3X3X3X3X3X3X3X3X3X3X5X3X3X3X6X Xa T.J.9 E.7X6X3X3X3X3X3X3X4X4X4X7X].u T.p B :X6X3X3X3X3X3X",
"3X3X3X3X3X3X3X3X3X3X3X3X3X3X3X5X7X6X,XD D J.5 Z.7X6X3X3X3X3X3X3X4X4X4X7X}.% Z % B 2X6X3X3X3X3X3X",
"6X3X6X3X3X3X3X3X3X3X3X3X6X3X3X=X@X6X7XC.w Y 5 K 3X3X3X3X6X3X3X3X4X3XP.}.+Xu @   V 2X3X3X3X3X3X3X",
"3X3X3X3X3X3X3X3X6X3X3X3X3X3X5XoXI D.1X Xe r 5 c >X6X6X3X3X3X3X3X4X7XJ u T.B     V 3X3X3X3X3X3X3X",
"3X3X3X3X3X3X3X5X3X3X3X3X3X3X3X6XK.t U  XD 2 2 5 U.6X3X3X3X3X3X3X4X7XI.+ p p     Z 2X3X3X3X3X4X3X",
"3X3X3X3X3X3X3X3X3X3X3X3X3X3X3X6X3XA.w x D 3 2 1 H 3X3X3X3X3X6X6X}.N.}.i   @     F 3X4X3X6X3X3X3X",
"3X4X3X3X3X3X3X3X3X4X3X3X3X4X4X3X3X1Xp.w 8 3 3 1 0 .X5X5X5X3X3X5X{.% V C     X X K 7X4X3X3X3X3X3X",
"3X3X3X3X3X3X3X3X3X3X3X3X3X4X4X_.U Y C.v 8 3 3 1 & 9.5X5X5X4X3X3X,XA   @     X + M.7X3X3X3X3X3X3X",
"3X3X3X3X5X3X3X3X3X3X3X3X3X3X6X>Xp.y q q 8 3 2 1 - / |.5X3X3X5X+XF C o X     . @ T.7X3X4X3X3X3X3X",
"3X3X3X3X3X3X3X3X3X3X3X3X4X3X3X7X1XE.I w 3 3 3 1 k / B.2X3X4X4X3XL +   X + ; 6.2.+X7X3X3X3X6X3X3X",
"3X5X3X3X3X3X3X3X3X3X3X3X3X3X7X XI x t 7 7 8 3 9 o.] 0.1X3X4X;XS.C @ X X * h.l.'.4X4X4X3X3X3X3X3X",
"3X3X3X3X3X3X3X5X3X4X3X3X4X3X7XoXU t q 7 8 3 3 0 ( ' 0.1X4X+XS +   X # : #.k.n.1X4X3X3X3X3X3X3X3X",
"3X3X3X3X3X3X3X3X3X3X3X3X3X3X3X7X1XA.q q 8 3 2 9 ! _ 0.:X,XG o + X . Q g.h.k.`.7X3X3X3X3X6X3X3X3X",
"3X3X3X3X4X3X3X3X3X3X4X3X3X3X3X3X5XY q 7 8 3 2 l ] ] } *XP.6 o X   = a.h.h./.1X3X4X3X3X3X3X3X3X3X",
"4X3X3X3X3X3X3X3X3X3X3X3X4X3X3X3X3XY 7 7 8 3 3 z ] ] / ).C o o $ ; ^ X.g.z.-X3X3X3X3X3X6X3X3X3X3X",
"3X3X3X3X3X3X6X3X3X3X3X3X3X3X3X3X5XK.q 8 8 5 2 9 ~ ] _ 8.6 o @ > ..X.d.g.`.6X3X3X3X3X3X3X3X6X3X3X",
"3X3X3X3X3X3X3X3X3X4X3X3X3X3X3X3X3X=Xv 8 8 3 3 1 j ] _ > O o & / ..X.X.!.<X7X6X6X3X3X3X3X3X3X3X3X",
"3X3X3X6X3X3X3X3X3X3X3X3X3X3X3X4X5X5XK.w 8 3 3 1 l ] _ / = @ > ' ..X.d.z.!.'.6X6X3X3X3X3X3X3X3X3X",
"3X3X3X3X3X3X5X3X3X3X3X3X3X3X3X3X3X5X,XU 8 3 2 1 l ] _ ) / E ) ` ..X.d.j.e.2._.7X3X3X5X3X5X3X3X3X",
"3X3X3X3X3X3X3X3X3X3X3X4X4X3X3X3X3X3X4XoXa 8 2 1 4 W _ _ ) ) ` ' ..X.f.t.r.M u.=X6X6X3X3X3X3X3X3X",
"3X3X6X3X3X3X3X3X3X3X3X3X3X3X3X3X3X3X4X7XK.8 1 4 4 W _ _ ` ) ` ' ..X.j.u.t.u.r.R @X6X3X3X3X3X3X3X",
"6X3X3X3X3X3X3X3X3X4X3X3X3X3X3X3X3X4X3X%Xq.m l 0 m ] _ ) ) ` ` ' ' X.f.t.u.y.N s C.6X3X3X3X3X3X3X",
"3X3X3X3X5X3X3X3X3X3X3X3X3X3X3X5X3X'.v.1.>.*.$.+.[ ] ] ) ` ` ` _ ..X.d.j.c.e.f s F.2X3X3X3X3X3X4X",
"3X3X3X3X3X3X3X3X3X3X3X5X3X5X3X%Xb.1.>.>.,.,.,.=.:.$.$.#.[ [ [ X.a.5.s.z.n./.E.T .X5X4X4X3X3X3X3X",
"3X3X3X3X3X3X3X3X3X3X6X5X3X*X^.1.&.>.>.>.=.;.;.;.:.:.:.:.;.;.$.$.s./.&X<X3X3X6X,X5X2X5X5X3X3X3X3X",
"3X6X3X3X3X3X3X3X3X3X6X<X^.1.%.&.>.>.>.<.$.3.4.[ [ { _ _ ) ` ..W.$X3X7X7X3X3X5X5X5X5X5X5X5X3X3X3X",
"3X3X3X3X3X3X3X3X5X2X|.7.%.%.*.%.e.v.1.=.+.#.4.[ [ ] _ '  .W.#X1X3X3X3X3X3X3X3X3X3X3X5X3X3X3X3X3X",
"3X3X3X3X3X3X5X1X$XQ.3.+.@.O.O.H.*X3X%Xw.+.+.4.a.~.(.(.#X:X6X7X3X3X3X3X3X3X3X3X3X3X3X3X3X3X3X3X3X",
"3X3X3X3X6X<X`.x.4.[ ( o.b P R.2X3X3X3XY.| | , ).6X3X7X7X7X3X3X3X3X3X3X3X3X3X3X3X3X3X3X3X3X3X3X3X",
"3X6X3X@XL.q.-.o.M n f d R @X5X5X3X3X3X;X< V.m.:X6X3X3X3X3X7X3X3X3X3X3X3X3X3X3X3X3X3X3X3X3X4X3X3X",
"5X@XT h d N N g d d P L.2X5X5X5X3X3X3X[.Y.[.[.6X3X3X6X3X3X3X3X3X3X3X3X3X3X3X3X6X3X3X3X3X3X3X3X3X",
"6X.XP P T G.G.h h F.@X5X5X5X5X5X3X6X3X3X3X3X3X3X3X3X3X3X3X6X3X3X3X3X3X3X3X3X3X3X4X3X5X3X3X3X3X3X",
"5X3X>X,X3X3XG.F.XX3X3X3X3X3X3X3X3X3X3X3X3X3X3X3X3X3X3X3X3X3X3X3X3X3X6X3X3X3X3X3X3X3X3X3X3X3X3X3X",
"5X3X3X3X3X3X,X3X3X3X3X3X3X5X3X3X3X3X3X3X3X3X3X3X3X3X3X3X3X3X3X3X3X3X3X3X3X3X3X3X3X3X3X3X3X3X3X4X",
"3X3X3X3X3X3X3X3X3X3X3X3X3X3X3X3X3X5X3X3X3X3X3X3X3X6X3X3X3X5X3X3X6X3X3X3X3X3X3X3X3X3X3X3X3X3X5X3X",
"3X3X3X3X3X3X3X3X3X3X5X3X3X3X3X3X3X3X3X3X3X3X3X3X3X3X3X3X3X3X3X3X3X3X3X3X3X6X3X3X6X3X3X3X3X3X3X3X",
"3X5X3X3X3X3X3X3X3X3X3X3X3X3X3X5X3X3X3X3X3X6X3X3X3X3X3X3X3X3X3X3X3X6X3X3X3X3X3X3X3X3X3X3X3X3X3X3X",
"3X3X3X3X3X5X3X3X3X3X3X3X3X3X3X3X3X3X3X3X3X3X3X6X3X3X3X3X3X3X3X3X3X3X3X3X3X3X3X3X3X3X4X3X3X3X3X3X"
};
