/* XPM */
static char *result[] = {
/* columns rows colors chars-per-pixel */
"48 48 216 2 ",
"   c #6D0101",
".  c #670A05",
"X  c #730001",
"o  c #7D0101",
"O  c #7A0B03",
"+  c #761E0B",
"@  c #7C1315",
"#  c #5F240E",
"$  c #5F3717",
"%  c #413C3D",
"&  c #6F3726",
"*  c #7D4B1A",
"=  c #73561F",
"-  c #575E26",
";  c #5A7830",
":  c #696625",
">  c #7F6528",
",  c #65752D",
"<  c #616730",
"1  c #5C4948",
"2  c #666061",
"3  c #850301",
"4  c #8B0501",
"5  c #8B0B04",
"6  c #830C09",
"7  c #910700",
"8  c #930B01",
"9  c #9A0E00",
"0  c #8B110E",
"q  c #9D1301",
"w  c #96150A",
"e  c #841415",
"r  c #831C1D",
"t  c #961D16",
"y  c #A31701",
"u  c #A51C07",
"i  c #AC1A00",
"p  c #B51E00",
"a  c #9B2606",
"s  c #883812",
"d  c #B42506",
"f  c #A32414",
"g  c #AB321D",
"h  c #811F21",
"j  c #862628",
"k  c #892F31",
"l  c #9A3635",
"z  c #A93223",
"x  c #AA3526",
"c  c #CA1015",
"v  c #D91C1D",
"b  c #D5231D",
"n  c #CE3E1E",
"m  c #C01B20",
"M  c #D92827",
"N  c #CB3C23",
"B  c #D42C31",
"V  c #D73734",
"C  c #B1701B",
"Z  c #B14C32",
"A  c #B1692D",
"S  c #D05335",
"D  c #9A4D4B",
"F  c #9D5152",
"G  c #A34441",
"H  c #BC5A4A",
"J  c #A5595A",
"K  c #B55D55",
"L  c #AB686A",
"P  c #B96C66",
"I  c #B97775",
"U  c #DA4743",
"Y  c #E04B4C",
"T  c #E15758",
"R  c #CA7243",
"E  c #C46553",
"W  c #C1746A",
"Q  c #C67E75",
"!  c #E46B6B",
"~  c #E07D6F",
"^  c #62923C",
"/  c #719337",
"(  c #75A53B",
")  c #7EB33F",
"_  c #5FA544",
"`  c #60AA46",
"'  c #6AB647",
"]  c #6CB747",
"[  c #63B64B",
"{  c #69B649",
"}  c #64B94D",
"|  c #6ABC4D",
" . c #72B744",
".. c #7AB741",
"X. c #7ABB45",
"o. c #74BA48",
"O. c #6ABC52",
"+. c #77BC56",
"@. c #72C14E",
"#. c #7BC64F",
"$. c #7BC654",
"%. c #B2891A",
"&. c #B0A11F",
"*. c #848E3F",
"=. c #958236",
"-. c #A69231",
";. c #8AA837",
":. c #96AD33",
">. c #88B73C",
",. c #96B837",
"<. c #A2A92F",
"1. c #BBAD22",
"2. c #B8AA25",
"3. c #ADBB2E",
"4. c #B8B828",
"5. c #BCBD2A",
"6. c #B6A73B",
"7. c #A5BA32",
"8. c #C5B51F",
"9. c #C99E3B",
"0. c #C4B422",
"q. c #C4BB25",
"w. c #CBBB22",
"e. c #CDBE29",
"r. c #C8B92D",
"t. c #AAC639",
"y. c #BAC336",
"u. c #B68C45",
"i. c #89B542",
"p. c #EE9F50",
"a. c #CCB34F",
"s. c #EBAE56",
"d. c #F6BD5E",
"f. c #D08576",
"g. c #E48274",
"h. c #F2BD65",
"j. c #84C94D",
"k. c #95C64B",
"l. c #86CD50",
"z. c #89CD51",
"x. c #97C25B",
"c. c #92D452",
"v. c #9CD955",
"b. c #AFD152",
"n. c #A7DB59",
"m. c #AEE754",
"M. c #B0E55B",
"N. c #92CD71",
"B. c #ADD26E",
"V. c #BCE367",
"C. c #B7E57A",
"Z. c #CDC750",
"A. c #D6C55C",
"S. c #EEC05D",
"D. c #D6D06A",
"F. c #C1E96A",
"G. c #BD8989",
"H. c #AAA9AA",
"J. c #C78882",
"K. c #D6998D",
"L. c #C39798",
"P. c #E78383",
"I. c #E99B9C",
"U. c #D8A49B",
"Y. c #C89FA0",
"T. c #E79EA0",
"R. c #CCA7A8",
"E. c #D6ABA7",
"W. c #D3B2AD",
"Q. c #DAB9B7",
"!. c #EBA5A5",
"~. c #EEBDBB",
"^. c #ABD18E",
"/. c #BDE1A8",
"(. c #D9CD88",
"). c #DCD684",
"_. c #F3D898",
"`. c #D1F093",
"'. c #E3E392",
"]. c #D0D8A5",
"[. c #E1DCAA",
"{. c #E6C5BE",
"}. c #D9EBA5",
"|. c #C8E5B8",
" X c #D8EAB6",
".X c #E7E3B2",
"XX c #EABFC0",
"oX c #DCC2C3",
"OX c #DFC9CA",
"+X c #DEDFDF",
"@X c #E4CBC9",
"#X c #F0C5C5",
"$X c #E7D1CE",
"%X c #E7D7D7",
"&X c #EBD9D7",
"*X c #F2D5D5",
"=X c #F3DCDA",
"-X c #CCE5C5",
";X c #D8EACF",
":X c #DDEDD0",
">X c #E9E7C9",
",X c #EEEFD3",
"<X c #E5F2D6",
"1X c None",
"2X c None",
"3X c None",
"4X c None",
"5X c None",
"6X c None",
"7X c None",
"8X c None",
"9X c None",
"0X c None",
"qX c None",
"wX c None",
"eX c None",
/* pixels */
"8X8X8X8X8X8X8X8X8X8X8X8X8X8X8X8X8X8X8X8X8X8X8X8X8X8X8X8X8X8XqX8X8X8X8X8X8X8X8X0X8X8X8X8X8X8X8X8X",
"8X8X8X8X8X0X8X8X8X8X8X8X8X8X8X8X8X8X8X8X8X8X8X8X8X8X8X8X8X8X8X8X9X8X8X0X8X8X8X8X8X8X8X8X8X8X8X8X",
"8X8X8X8X8X8X8X8X8X8X8X8X8X8X8XwX8X8X8X8X8XqX8X8X8X8X8X8X8X8X8X8X8X8X8X8X8X8X8X8X8X8X9X8X8X8X8X8X",
"8X8X8X8X8X9X8X8X8X8XwX8X8X8X8X8X8X8X8X8X8X8X8X8X8X8X8X8X8X8X8X8X8X8X8X8X8X8X8X8X8X8X8X8X8X8X0X8X",
"8X8X8X8X8X8X8X8X8X8X8X8X8X8X8X8X8X8X8X8X8X8X8X8X8X8X8X8X0X0X0X0X8X8X8X8X0X0X8XqX8X0X8X8X8X0X8X8X",
"8X8X8X8X8X8X0X8X8X8X8X8X8X8X8X8X8XwX8X8X8X8X8X8X0X9X8X8X0X0X8X8X8X8X0X8X0X0X0X8X8X8X8X8X8X8X8X8X",
"9X8X8X8X8X8X8X8X8X8X8X8X8X8X8X8X8X8X8X8X8X8X8X8X8X8X8X8X8X8X0X8X8X8X8X8X0X8X8X8X8X8X8X8X8X8X9X8X",
"8X8X8X0X8X8X8X8X8X8X8X8X8X8X8X8X8X8X8X8X8X8X8XwX8X8X8X8X8X8X8X8X8X8X8X8X8X8X8X8X8X8X8X8X8X8X8X8X",
"8X8X8X8X8X8X8X8X8X8X8X0XeXeX8X8X0X0X0X0X8X8X9X9X8X8X8X8X8X8X8X8X8X8X8X8X8X8X8X8X8X8X8X8X8X8X8X8X",
"0X8X8X8X0X8X8X8X8X0X8X<X:X<X7X8X0X0X0X0XqX9X9X9X8X8X8X8X8X8X8X8X8X8X8X8X8X8X8X8X8X8X8X8X8X8X8X8X",
"8X8X8X8X8X8X8X8X9X6X'.D.n.n.N./.;X-X-X-X:X5X9XeX8X8X8X8X8X8X8X8X8X8X8X8X8X8X8X8X8X8X8XqX8X8X8X8X",
"8X8X8X8X8X8X8X8X9X_.s.S.A.v.l.#.$.O.} [ O.N.^.;X8X0X8X8X8X8X8X8X8X8X8X8X8X8X8X8X8X8X8X8X8X8X8X8X",
"8X8X8X8X8X8X8X0X,XS.A a.h.b.l.#.O.O.} [ } ' ' +.^.2XeXeX8X8X8X8X8X8X8X8X8X8X8X8X8X8X8X8X8X8X8XwX",
"8X0X8X8X8X8X8X4Xg.p.u.s.h.a.l.#.@.O.} [ } { '  .) x. XeX0X8X8X8X8X8X8XeX8X8X8X8X8X8X8X8X8X8X8X8X",
"8X8X8X9X0X8XeX#Xm S S.S.d.Z.$.#.@.| } } { {  .>.,.4.r.).6XeX8X8X8X8X8X8X8X8X8X8X8X8X8X8X8X8X8X8X",
"8X8X8X8X8X8XeXT.c b p.S.h.b.l.#.@.| } [ o.>.3.q.w.w.w.w.A.,X0X8X8X8X8X8X8X8XqX8X8X8XwX8X8X8X8X8X",
"8X8X8X8X8X8X0X!.B V Z.Z.b.c.j.j.@.X.i.t.q.w.w.w.w.w.8.w.8.e..X8X8X8X8X8X8X8X8X8X8X8X8X8X8X8X8X8X",
"8X8X8X8X8X8X8X*X*X=X}.V.m.t.t.t.5.q.w.w.w.w.y.3.7.3.y.q.w.8.r.).5X0X8X8X8X8X8X8X8X0X8X8X8X8X8X8X",
"8X8X8X8X8X8X8X8X9XeX9X6X.XD.y.y.q.q.5.4.7.>. ...) ) >.7.w.q.0.0.A.>X0X0X8X8X8X8X8X8X8X8X8X8X8X8X",
"8X8X8X8X8X8X8X8X8X9X9XeXeX|.l.l.#.X.] ' } { ]  .) X.>.,.4.q.0.0.1.a.[.0X0X8X8X8X0X8X8X8X8X8X8X8X",
"8X8X8X0X8X8X8X8X8X8X8X9X5XB.#.#.@.| [ ` [ { ] o.) ) ) ) 1.w.8.0.0.1.4.D.2X0X0X0X8X8X8X8X8X8X8X8X",
"8X8X8X8X8X8X8X8X8X8X8XqX|.c.l.#.@.| ` [ } } ] ]  .( - C %.q.8.0.1.1.1.2.a.>X0X0X8X8X8X8X8X8X8X8X",
"8X8X8X8X8X8X8X8X8X8X9X7XC.c.l.#.@.| ` [ } { ' o.#.( + 3 C Z.D.(.9.1.2.2.&.6.].7X0X8X8X8X8X8X8X8X",
"8X8X8X8X8X0X8X8X8X8XeX Xn.c.l.#.@.| ` [ [ ' ] ( ( : 3 7 W 7XeXeX~.R -.:.:.;.>.^.<X8X8X8X8X8X8X8X",
"8X8X8X8X8X8X8X8X9X9X7XF.v.v.l.#.| | _ [ [ { ] , # O 3 4 D H.1XwX8XXXU Z *.] @.' k.].6X9X0X0X9X9X",
"8X8X8X8X8X8X8X0X9X9X>XM.v.c.z.$./ ^ ^ ` [ ' ] , X o 3 4 . % H.7X8X8X#XU b Z A i.>.,.B.$X8X0X8X9X",
"8X8X8X8X8X8X8X8X9X9X`.m.v.j.j.o.* a s ^ [ ; ' : X o 3 4 . 2 2X0X8X8X8X*XT v b N A -.<.6.~ ~.4X9X",
"0X8X8X8X8X8X8X8X9X6XF.M.c.* = = w p g < ` $ - $ X o 3 4 O 1 +X0X8X8X8X8X3X! v v v M n n b M ! =X",
"8X8X8X8X8X8X8X8XeXW.=.i.> 8 9 y i d E & - . .   X o 3 4 w G.H.eX8X8X8X8XeX4XP.M b U P.Y M v b I.",
"0X8X8X8X8X8X0X8XqXL O + 5 9 q i i d E.k     X X o o 3 4 5 W.0XeX8X8X8X8XeXwXeX!.U B #X4X#X!.I.*X",
"8X8X8X8X8X8X8XeX1Xl 3 4 7 9 y y i Z =XD   X   X X o 3 4 t @XeX0X8X8XqX8XqXqXqXeX*X~ !.qXeXeXeX0X",
"8X8X8X8X8X8X8XeXE.6 3 5 8 9 y u i K.eXI     X   o o 3 5 W 8X0X0X8X8X8X8XqXqXeXeXeX8X8XqX8X8X8X8X",
"8X8X8X8X8X8X8X8XJ o 3 4 7 x u H K.1XeXR.O   X   X o 3 5 R.eXwX8X8XqXqXqX8X8X8X8X8X8X8X8X8X8X8X8X",
"8X8X8XeX8X8X8XOXr 3 3 5 7 P x U.eX8XeX%Xh     X o o 3 4 Q wX8X8X8XwXqXqX9X8X8X8X8X8X8X8X8X8X8XqX",
"0X1X4X2X8X8XqXL o o 5 K w W H $X8X8X8X8XF     X X o 3 4 Z 4X0X8X8X8X8X8X8X8X8X8X8X8X8X8X8X8X8X8X",
"eXOXQ.L.L.8XR.@ X 3 t E.z U.&X8X8X8X8XeXY.O     o o 3 4 w Q.eX8X8X8X8X8X8X8X8X8X8X8X8X8X8X8X8X8X",
"0X%XL L @ F r X e l G %XK %XeX8X8X8X8XeX1Xk   X X o 3 4 4 K J.U.8X8X9X9X9X9X8X8X8X8X8X8X8X8X8X8X",
"0X0XG.j @ @ . @ G.l J.8X1X8X8X8X8X8XwX8XeXG.X   o o 3 4 8 w q f.eX4X3X9X9X9X8X8X8X8X8XqX8X8X8X8X",
"0X8X8X%X%XOXR.OXoXF %XeX0X8X8X8X8X8X8X8XeX7XJ   X o 3 4 7 9 q ~ &Xf.{.9X9X8X8X8X8X8X8X8X8X8X8X8X",
"0X8X8X0XeXeXeXeX8X3X8X8X8X8X8X8X8X8X8X8X8XeX1XL r 6 0 t t f f x E U.9X9X8X8X8X8X8X8X8X8X8X8X8X8X",
"8X8X8X8X8X8X8X8X9X8X8XqX8X8X8X8X8X8X8X8X8X8X0X8X%XQ.Q.@X$X$X@X{.=X8X8X0X8X8X8X8X8X8X8X8X8X8X8X8X",
"8X8XqX8X8X8X8X8X8X8X8X8X8X8X8X8X8X8X8X0X8X8X8X8X0XeXeXeXeXeXeXeX0X8X8X8X8X8X8X8X8X8X8X8XqX8X8X8X",
"8X8X8X8X8X8X8X8X8X8X8X8X8X8X8X8X8X8X8X8X8X8X8X8X8X8X8X8X0X0X8X8X8X8X8X8X8X0X8X8X8X8X8X8X8X8X8X8X",
"8X8X8X8X8X8X8X8X8X8X8X8X8X8X8X8X8X8X8X8X8X8X8X8X8X8X8X8X8X8X8X8X8X8X8X8X8X8X8X8X8X8X8X8X8X8X8X8X",
"8X8X8X8XqX8X8X8X8X8X8X8X8X8X8X8X8X8X8X8X8X8X8X8X8X8X8X8X8X8X8X8X8X8X8X8X8X8X8X8X8X8X8X8X8X8X8X8X",
"8X8X8X8X8X8X8X8X8X8X8X8X8X8X8X8X8X8X0X8X8X8X8X8X8X8X8X8X8X0X8X8X8X8X8X8X8X0X8X9X8X8X8X8X8X8X8X8X",
"8X8X8X8X8X8X8X8X8X8X8X8X8XqX8X8X8X8X8X8X8X0X8X8X8X8X8X8X8X0X8X8X8X8X8X8X0X0X8X8X8X8X8X8XqX8X8X8X",
"8X8X8X8X8X8X8X8X8X8X8X8X8X8X8X8X8X8X8X8X8X8X8X8X8X8X8X8XqX8X8X8X0X8X8X8X8X8X8X8X8X8X8X8X8X8X8X8X"
};
