/* XPM */
static char *result[] = {
/* columns rows colors chars-per-pixel */
"48 48 211 2 ",
"   c #3C3A2F",
".  c #5E1509",
"X  c #6E0001",
"o  c #720102",
"O  c #7A0101",
"+  c #790909",
"@  c #77170D",
"#  c #7B1415",
"$  c #573214",
"%  c #67250E",
"&  c #73491A",
"*  c #715519",
"=  c #7A631F",
"-  c #67532B",
";  c #5B6327",
":  c #756C25",
">  c #504E50",
",  c #820201",
"<  c #8B0601",
"1  c #8A0C06",
"2  c #930B01",
"3  c #990F00",
"4  c #831504",
"5  c #9F1200",
"6  c #991708",
"7  c #841414",
"8  c #871B1A",
"9  c #951B14",
"0  c #A11400",
"q  c #A51702",
"w  c #AA1A00",
"e  c #8E2B08",
"r  c #9B221B",
"t  c #A92307",
"y  c #B42E0C",
"u  c #A52515",
"i  c #842224",
"p  c #8B2323",
"a  c #942826",
"s  c #8D3233",
"d  c #993B3B",
"f  c #AB3627",
"g  c #C91015",
"h  c #D91B1B",
"j  c #D6261D",
"k  c #D92725",
"l  c #C73826",
"z  c #D93B2C",
"x  c #DC3132",
"c  c #DE3E3E",
"v  c #82561E",
"b  c #AF540E",
"n  c #A36B17",
"m  c #AE4A31",
"M  c #B84936",
"N  c #8B6C34",
"B  c #997036",
"V  c #B2752E",
"C  c #C2492C",
"Z  c #994849",
"A  c #9E5253",
"S  c #A45A5A",
"D  c #B45850",
"F  c #A45F60",
"G  c #AC696A",
"H  c #BA6E6A",
"J  c #B67371",
"K  c #B87B7A",
"L  c #DD494A",
"P  c #CF584B",
"I  c #E04F4F",
"U  c #E25B5B",
"Y  c #CD6E55",
"T  c #E87741",
"R  c #C77365",
"E  c #C37D78",
"W  c #E27576",
"Q  c #5E8936",
"!  c #768D2E",
"~  c #68973B",
"^  c #739637",
"/  c #5EA243",
"(  c #60AB46",
")  c #69A942",
"_  c #61AF48",
"`  c #74A745",
"'  c #63B64B",
"]  c #69B749",
"[  c #63B94C",
"{  c #6CBC4C",
"}  c #72B645",
"|  c #7BB642",
" . c #79BB48",
".. c #6DBC57",
"X. c #7AC54E",
"o. c #7DC650",
"O. c #AD881B",
"+. c #B0A21F",
"@. c #89962C",
"#. c #8F9332",
"$. c #B39028",
"%. c #88AE38",
"&. c #93A538",
"*. c #84B73E",
"=. c #89B73B",
"-. c #8DB53A",
";. c #8FB83A",
":. c #98B635",
">. c #95B839",
",. c #95BC39",
"<. c #B7A925",
"1. c #BCAD21",
"2. c #A2B52F",
"3. c #AFB92D",
"4. c #BAB727",
"5. c #B3BB2C",
"6. c #B3A636",
"7. c #A2BA32",
"8. c #A6B831",
"9. c #C6B71F",
"0. c #C4B422",
"q. c #C4B924",
"w. c #CBBB22",
"e. c #C8BA2F",
"r. c #C7BC3C",
"t. c #AD8541",
"y. c #87B646",
"u. c #85BC51",
"i. c #A4A44B",
"p. c #D9AA59",
"a. c #CCBB57",
"s. c #E5A551",
"d. c #EDBC59",
"f. c #F3BA5C",
"g. c #D7836A",
"h. c #C88279",
"j. c #E48065",
"k. c #99C848",
"l. c #8BD151",
"z. c #99D855",
"x. c #B8C755",
"c. c #A7D053",
"v. c #B5EB57",
"b. c #9ACA6F",
"n. c #B5C867",
"m. c #A7D865",
"M. c #BDEA71",
"N. c #CFC347",
"B. c #D2C75C",
"V. c #FAC05F",
"C. c #CECF72",
"Z. c #E0D36C",
"A. c #918F90",
"S. c #BB8687",
"D. c #B9B6B6",
"F. c #C58A87",
"G. c #CD948F",
"H. c #D4968C",
"J. c #C89897",
"K. c #C69D9E",
"L. c #E78A8B",
"P. c #EA9797",
"I. c #DAA49A",
"U. c #DF9FA0",
"Y. c #CAA3A4",
"T. c #CAABAB",
"R. c #D1A7A6",
"E. c #DCB1AB",
"W. c #D0AFB0",
"Q. c #D8B6B5",
"!. c #E7B3AE",
"~. c #EEB6B6",
"^. c #BBD28B",
"/. c #ACDA91",
"(. c #BCE48F",
"). c #DDD588",
"_. c #CDD494",
"`. c #E2DB96",
"'. c #E3DAA9",
"]. c #E8C4BC",
"[. c #D0EDA0",
"{. c #DEE8B7",
"}. c #EEE3B7",
"|. c #DEC8C8",
" X c #D3D2C9",
".X c #D6D6D6",
"XX c #E4C9C6",
"oX c #EDCECC",
"OX c #E5D4D4",
"+X c #EAD7D4",
"@X c #EBDDDC",
"#X c #F2D5D5",
"$X c #F3DDDD",
"%X c #D6E7C8",
"&X c #DBECD3",
"*X c #E8E6C7",
"=X c #EAECD8",
"-X c #EBF4D9",
";X c #EDE4E4",
":X c #EDECE5",
">X c #F4E4E4",
",X c #F2EDEC",
"<X c #E9F3E3",
"1X c None",
"2X c None",
"3X c None",
"4X c None",
"5X c None",
"6X c None",
"7X c None",
"8X c None",
/* pixels */
"4X4X4X4X4X4X4X4X4X4X4X4X4X4X4X4X4X6X4X4X4X4X4X4X4X4X4X4X4X4X6X4X4X4X4X4X4X4X4X4X8X4X4X4X4X4X4X4X",
"4X4X4X4X4X4X4X4X4X4X4X4X4X4X4X4X4X4X4X4X4X4X4X4X7X4X4X4X4X4X4X4X4X4X4X4X4X4X4X4X4X4X4X4X4X4X4X4X",
"4X4X4X5X4X4X7X4X7X4X4X4X4X4X4X4X4X4X4X4X5X4X4X4X4X4X4X4X4X4X4X4X4X4X4X4X4X4X4X4X4X4X4X4X4X4X4X4X",
"4X4X4X4X4X4X4X4X4X4X4X4X4X5X4X4X4X4X4X4X4X4X4X4X4X4X4X4X4X4X4X4X8X4X4X4X4X4X4X4X4X4X4X4X4X4X4X4X",
"4X6X4X4X4X4X4X4X5X4X4X4X5X5X7X7X4X4X5X5X5X4X4X4X4X4X4X4X4X4X7X4X4X4X4X4X4X8X4X4X4X4X4X4X4X4X8X4X",
"4X4X4X4X4X4X4X4X5X5X5X5X5X5X7X7X4X4X5X5X4X4X4X4X4X4X4X6X4X4X4X4X4X4X4X4X4X4X4X4X4X4X4X7X4X4X4X4X",
"4X4X4X4X4X4X6X4X7X7X1X<X<X7X7X7X6X7X7X6X4X5X4X4X4X4X4X4X4X4X4X4X4X4X4X4X4X4X4X4X4X4X4X4X4X4X4X4X",
"4X4X4X4X4X4X4X4X7X%XM.b.b./.%X&X%X%X&X1X4X6X5X4X4X4X4X4X4X4X4X4X4X4X4X4X4X4X4X4X4X4X4X4X4X4X4X4X",
"4X4X4X4X4X6X4X6X-XZ.V.B.i.X.X...{  .y.b.^.*X3X6X7X4X4X4X4X4X4X4X4X4X4X4X4X4X4X4X4X4X4X4X4X4X4X4X",
"4X4X4X4X4X4X4X6X}.s.N f.B.{ [ [ ] } | *.%.>.n.{.3X6X4X4X4X4X4X4X4X4X4X8X4X4X4X4X4X4X4X4X4X4X4X4X",
"4X4X4X7X4X4X6X$XW s.t.f.d.u.[ ' ] } | *.-.:.2.3.C.*X4X4X4X4X4X4X4X4X4X4X4X4X4X4X4X4X4X4X4X7X4X4X",
"4X4X4X4X6X6X8XR.g T V.f.B. .[ [ ] } | *.-.:.8.5.4.e.`.3X8X4X4X4X4X4X4X4X4X4X4X4X4X6X4X4X4X4X4X4X",
"4X4X4X4X4X4X7XW g z f.f.x.{ [ [ ] } | *.,.8.4.q.w.w.q.Z.-X4X4X4X4X4X4X4X4X4X4X4X4X4X4X4X4X4X4X4X",
"4X4X4X4X4X4X4XL.L T x.c.o.{ [ [ ] | ,.8.q.w.w.w.w.w.0.w.N.}.4X4X4X6X4X6X4X4X4X4X4X4X4X4X4X4X7X4X",
"4X4X4X4X4X4X4X$X;X=X^.c.k.k.,.7.5.q.w.w.w.w.w.w.w.w.w.0.9.e.).2X8X6X4X4X4X4X4X4X7X4X4X4X4X4X4X4X",
"4X4X6X4X4X4X4X7X4X4X4X-Xn.,.:.3.3.5.5.5.5.5.4.q.w.0.w.w.0.0.0.B.*X7X7X4X6X4X4X4X4X4X4X4X4X4X4X4X",
"4X4X4X4X4X8X4X4X4X8X8X&Xo.X.' ' { } | =.-.:.2.3.+.O.4.w.0.0.0.0.r.'.4X6X4X5X4X4X4X5X4X4X4X4X7X4X",
"4X4X4X4X4X4X4X4X4X8X8X/.X.[ ' _ [ } | *.;.@.@.5.n b 4.0.w.0.0.1.1.<.C.;X6X4X5X5X4X4X4X4X4X4X4X4X",
"4X4X4X4X4X4X4X4X4X7X&Xl.X.X.' _ { } | *.;.: * @.e b <.0.0.0.q.0.1.1.+.a.*X5X6X5X4X4X4X4X4X4X4X4X",
"4X4X4X4X4X4X4X4X4X4X(.o.X..._ ( { } | *.-.= 4 e w y +.e.B.).'.p.<.4.+.+.6._.,X5X4X4X4X4X4X4X4X4X",
"4X4X4X4X4X4X4X4X4X-Xm.l.o.X./ _ ] ) ~ *.=.& 2 0 q y O.i. X6X6X$XW V &.%.%.| b.*X4X5X4X4X4X4X4X4X",
"4X4X4X8X4X4X4X4X4X[.z.l.o.{ / ' ] ~ $ ^ ! @ 2 5 w t -   A.:X6X8X>XW C B ` } | u.^.=X7X4X4X4X4X7X",
"4X4X4X4X4X4X8X8X2XM.z.|  .{ ( [ ] Q . % % 1 2 5 q y T.> .X4X6X5X6X,Xj.k l m #.&.,.i.'.,X7X8X4X4X",
"4X4X4X4X4X8X8X8X{.v.k.; } { ^ [ ] ; X o O 2 2 5 w u |.> D.8X5X5X6X8X6XP.k h j C V $.$.I P.$X4X4X",
"4X4X4X4X4X4X4X4X_.v.@.@ ^ } v ~ Q % o O , < 2 0 w Y D..XD.,X5X5X4X4X8X4X~.c h h x x h h h I $X8X",
"4X4X4X4X4X8X6X=Xn.c.& 2 * = w % . o o O , 2 2 3 f OX4X4X4X4X4X4X4X4X4X4X4XoXU h I ~.L.U C L #X8X",
"4X4X4X4X6X4X6XXXN v < 3 6 5 w 4 X X o O , < 2 0 H.4X4X4X4X4X4X4X4X4X4X4X4X6X>XL.L ~.8X4X>X>X4X4X",
"4X4X4X4X4X6X6XW.+ < 2 3 0 w w , X X o O , 9 u 5 g.3X4X4X4X4X5X4X4X4X4X4X4X4X6X4X#X#X8X8X8X8X4X4X",
"4X4X4X4X4X4X6XF., < < 3 0 w w + X o o O O a H.u t R ;X4X4X4X4X4X4X4X4X4X4X4X4X4X4X4X4X4X4X4X4X4X",
"4X4X4X4X4X4X4XG , < 2 3 0 w w O X X o O p 6 E E.P M ].7X4X4X4X4X4X4X4X4X4X4X4X4X4X4X4X4X4X4X4X4X",
"4X4X4X4X4X7X,Xd O < 2 3 0 w w O X X o O h.F.r E.3X>X4X4X4X4X5X4X4X4X4X4X4X4X4X4X4X4X4X4X4X4X4X7X",
"4X4X4X4X4X6X|.7 , < 2 3 0 w t + X o o O d +XE m oX8X4X4X4X4X4X4X4X4X4X4X4X4X4X4X4X4X4X4X4X4X4X4X",
"7X4X4X4X4X5XK o , < 2 3 5 w M s X X d s O E 4XE P =X5X5X4X4X4X4X4X4X4X6X4X4X4X4X4X4X4X4X4X4X4X4X",
"4X4X4X4X4X;Xs O , < 2 q u q R A X X s T.8 9 Q.4XH.E.6X4X4X4X4X4X4X4X4X4X4X4X4X4X4X4X4X4X4X4X6X4X",
"4X4X4X4X7XY.o O , 9 1 d M M U.S + # o K.J.< D 4X6X,X5X4X4X4X4X4X4X4X4X4X4X7X4X4X4X6X4X4X4X7X4X4X",
"4X4X4X7X,XZ o O 1 F.9 Y M I.4XG 8 F o Z >XE 6 !.6X4X5X4X6X4X4X4X4X4X4X4X4X4X4X4X4X4X4X4X4X4X4X4X",
"4X4X7X8XW.+ Z 8 d Y.9 h.f OX8XK.# S.8 + W.;XD R 4X7X4X4X4X4X4X4X4X4X4X4X4X4X4X4X4X4X4X4X4X4X4X4X",
"4X4X6X,XZ i S.7 F.F.f H.Y ,X8XOX# F G O D 4X+XG.,X7X4X4X4X4X4X4X4X4X4X4X4X4X4X4X4X4X4X4X4X4X4X4X",
"4X7X6XK.+ S.G p OXJ H +XXX5X5X4XA i Q.a 8 +X8X4X4X4X4X4X4X4X4X4X4X4X4X4X4X4X4X4X4X4X4X4X4X4X4X4X",
"4X6X|.i A |.i S.6XG.XX6X6X4X4X5XY.+ T.K.8 Q.6X4X4X4X4X4X6X4X4X4X4X7X4X4X4X6X4X4X4X4X4X4X7X4X4X4X",
"7X,XA Z @XY.S :X6X4X4X4X4X4X4X6X;Xs J 4XK |.7X5X4X4X7X4X4X4X4X7X4X4X8X4X4X4X4X4X4X8X4X4X4X4X4X4X",
"5X,XW.;X8XOX@X6X4X4X4X4X5X4X4X4X8XK.G 8X,X4X4X4X4X4X4X4X4X4X4X4X4X4X4X4X4X4X4X4X4X4X4X4X4X4X4X4X",
"4X4X7X7X7X8X6X4X4X4X4X4X4X4X4X4X7X3XOX4X5X4X4X4X4X4X4X4X4X4X4X4X4X4X4X4X4X4X4X4X4X4X4X4X4X8X4X4X",
"4X4X5X5X5X5X4X4X4X4X4X4X4X4X4X4X7X7X6X4X5X4X5X4X4X4X4X4X4X4X4X4X4X4X4X4X4X4X4X4X4X4X4X4X4X4X4X4X",
"4X4X4X4X4X4X4X4X4X4X4X4X4X5X4X4X4X4X4X4X4X4X4X4X4X4X4X4X4X4X4X4X4X4X4X4X8X4X4X4X4X4X4X4X4X4X4X4X",
"4X4X4X4X4X4X4X6X4X4X4X4X4X4X4X4X4X4X4X4X4X4X7X4X4X4X4X7X4X4X4X4X4X4X4X4X4X4X4X4X4X7X4X4X4X4X4X4X",
"4X4X5X4X4X4X4X4X4X4X4X4X4X4X4X4X4X7X4X4X4X4X4X4X4X4X4X4X4X4X4X4X4X4X4X4X4X4X4X4X4X4X4X4X4X4X4X4X",
"4X4X4X4X4X4X4X4X4X7X4X5X4X4X4X4X4X4X4X4X4X4X4X4X4X4X4X4X7X4X4X4X4X4X4X4X4X4X4X4X4X4X4X4X4X4X4X4X"
};
