/* XPM */
static char *result[] = {
/* columns rows colors chars-per-pixel */
"48 48 141 2 ",
"   c #347416",
".  c #367B15",
"X  c #387C17",
"o  c #3A7D1A",
"O  c #AD3E3E",
"+  c #3A8314",
"@  c #3B8B15",
"#  c #3D831B",
"$  c #3E8B19",
"%  c #359F21",
"&  c #32A423",
"*  c #3CA622",
"=  c #31AD25",
"-  c #40851D",
";  c #418A1E",
":  c #45941D",
">  c #469B1D",
",  c #499D1F",
"<  c #4CA41E",
"1  c #448B21",
"2  c #469421",
"3  c #489324",
"4  c #439B21",
"5  c #4A9A25",
"6  c #4C9529",
"7  c #4E9C29",
"8  c #50952D",
"9  c #519D2D",
"0  c #5D9E37",
"q  c #4CA322",
"w  c #4FAA23",
"e  c #4FA328",
"r  c #53A122",
"t  c #58A422",
"y  c #52AD25",
"u  c #58AF24",
"i  c #52A42A",
"p  c #54AB2B",
"a  c #58AC2E",
"s  c #56B12A",
"d  c #5AB42D",
"f  c #5BBA2E",
"g  c #55A030",
"h  c #59A335",
"j  c #5CAD35",
"k  c #5DA838",
"l  c #5CB432",
"z  c #5EBB32",
"x  c #60AC26",
"c  c #65B326",
"v  c #6AB526",
"b  c #67B528",
"n  c #6DB728",
"m  c #60AC37",
"M  c #61AF3A",
"N  c #60B436",
"B  c #61BD34",
"V  c #65B53C",
"C  c #68B63E",
"Z  c #65BA3A",
"A  c #69BD3D",
"S  c #62C036",
"D  c #66C33A",
"F  c #69C63D",
"G  c #6AC93E",
"H  c #7DC231",
"J  c #7EC835",
"K  c #79C93A",
"L  c #619F41",
"P  c #64A343",
"I  c #65AB42",
"U  c #68AA47",
"Y  c #6BAF49",
"T  c #69B446",
"R  c #6BBD42",
"E  c #6FB34D",
"W  c #71BC4F",
"Q  c #6DC343",
"!  c #6DCB41",
"~  c #71C147",
"^  c #71CF44",
"/  c #74C64B",
"(  c #77C94D",
")  c #78C84D",
"_  c #72D246",
"`  c #7ED344",
"'  c #75D449",
"]  c #79D74B",
"[  c #77D84D",
"{  c #7AD94D",
"}  c #77C052",
"|  c #77CB51",
" . c #7BCC52",
".. c #7FCF59",
"X. c #7FD055",
"o. c #7DDE51",
"O. c #7FE053",
"+. c #978126",
"@. c #998127",
"#. c #948B27",
"$. c #9B822A",
"%. c #8C902A",
"&. c #82C936",
"*. c #89C834",
"=. c #86CC3B",
"-. c #8DCC39",
";. c #87D33F",
":. c #8DD03E",
">. c #96D13D",
",. c #9AD139",
"<. c #C7977A",
"1. c #8FD643",
"2. c #82DC4F",
"3. c #99DE4A",
"4. c #80D157",
"5. c #83DD51",
"6. c #84D55C",
"7. c #87D85F",
"8. c #88D95F",
"9. c #A4DC45",
"0. c #AADD44",
"q. c #8FE14F",
"w. c #9CE04B",
"e. c #8CE252",
"r. c #94E452",
"t. c #9CE752",
"y. c #A7E049",
"u. c #AEE149",
"i. c #AFE94F",
"p. c #B1E54B",
"a. c #B4E84E",
"s. c #AAE650",
"d. c #A3E952",
"f. c #ABEA53",
"g. c #B3ED53",
"h. c #B8ED53",
"j. c #87D760",
"k. c #87D960",
"l. c #88D960",
"z. c #CFAD98",
"x. c None",
/* pixels */
"x.x.x.x.x.x.x.x.x.x.x.x.x.x.x.x.x.x.x.x.x.x.x.x.x.x.x.x.x.x.x.x.x.x.x.x.x.x.x.x.x.x.x.x.x.x.x.x.",
"x.x.x.x.x.x.x.x.x.x.x.x.x.x.x.x.x.x.x.x.x.x.x.x.x.x.x.x.x.x.x.x.x.x.x.x.x.x.x.x.x.x.x.x.x.x.x.x.",
"x.x.x.x.x.x.x.x.x.x.x.x.x.x.x.x.x.x.x.x.x.x.x.x.x.x.x.x.x.x.x.x.x.x.x.x.x.x.x.x.x.x.x.x.x.x.x.x.",
"x.x.x.x.x.x.x.x.x.x.x.x.x.x.x.x.x.x.x.x.x.x.x.x.x.x.x.x.x.x.x.x.x.x.x.x.x.x.x.x.x.x.x.x.x.x.x.x.",
"x.x.x.x.x.x.x.x.x.x.x.x.x.x.x.x.x.x.x.x.x.x.x.< y f Z B f y x.x.x.x.x.x.x.x.x.x.x.x.x.x.x.x.x.x.",
"x.x.x.x.x.x.x.x.x.x.x.x.x.x.x.x.x.x.x.x.x.x.s G o.O.O.o.{ ! z < x.x.x.x.x.x.x.x.x.x.x.x.x.x.x.x.",
"x.x.x.x.x.x.x.x.x.x.x.x.x.x.x.x.x.x.x.x.x.< D o.5.+.+.o.O.o._ S w x.x.x.x.x.x.x.x.x.x.x.x.x.x.x.",
"x.x.x.x.x.x.x.x.x.x.x.x.x.x.x.x.x.x.x.x.x.d ^ o.#.z.<.%.O.O.O._ B y x.x.x.x.x.x.x.x.x.x.x.x.x.x.",
"x.x.x.x.x.x.x.x.x.x.x.x.x.x.x.x.x.x.x.< f F { O.5.$.$.5.O.O.O.o.! z : x.x.x.x.x.x.x.x.x.x.x.x.x.",
"x.x.x.x.x.x.x.x.x.x.x.x.x.x.x.x.x.x.w D [ O.O.O.O.o.O.O.o.{ { O.[ D + x.x.x.x.x.x.x.x.x.x.x.x.x.",
"x.x.x.x.x.x.x.x.x.x.x.x.x.x.x.x.x.x.y D j { O.O.o.o.o.] ! =.9.o.o.Q # w x.x.x.x.x.x.x.x.x.x.x.x.",
"x.x.x.x.x.x.x.x.x.x.x.x.x.x.x.x.x.x.q f l G G ! ! F D S s *.>.3.O.' 7 $ x.x.x.x.x.x.x.x.x.x.x.x.",
"x.x.x.x.x.x.x.x.x.x.x.x.x.x.x.x.x.x.x.r y d s s s y w q x.x.,.u.t.o.! p , x.x.x.x.x.x.x.x.x.x.x.",
"x.x.x.x.x.x.x.x.x.x.x.x.x.x.x.x.x.x.O x.x.x.x.x.x.x.x.x.x.x.n 0.f.O._ S y x.x.x.x.x.x.x.x.x.x.x.",
"x.x.x.x.x.x.x.x.x.x.x.x.x.O O O O O x.x.x.x.x.x.x.x.x.x.x.x.x.>.w.r.' D s x.x.x.x.x.x.x.x.x.x.x.",
"x.x.x.x.x.x.x.x.x.x.x.x.O O O x.x.x.x.x.x.x.x.x.x.x.x.x.x.x.x.H u.f.] Q d , x.x.x.x.x.x.x.x.x.x.",
"x.x.x.x.x.x.x.x.x.x.x.x.x.x.x.x.x.x.x.x.x.x.x.x.x.x.x.x.x.x.x.b p.g.{ G a : x.x.x.x.x.x.x.x.x.x.",
"x.x.x.x.x.x.x.x.x.x.x.x.x.x.x.x.x.x.x.x.x.x.x.x.x.x.x.x.x.x.x.x 9.t.5.G e q x.x.x.x.x.x.x.x.x.x.",
"x.x.x.x.x.x.x.x.x.x.x.x.x.x.x.x.x.x.x.x.x.x.x.x.x.x.x.x.x.x.x.x.0.h.e.! p : x.x.x.x.x.x.x.x.x.x.",
"x.x.x.x.x.x.x.x.x.x.x.x.x.x.x.x.x.x.x.x.x.x.x.x.x.x.x.x.x.x.x.x.0.h.r.! B : x.x.x.x.x.x.x.x.x.x.",
"x.x.x.x.x.x.x.x.x.x.x.x.x.x.x.x.x.x.x.x.x.x.x.x.x.x.x.x.x.x.x.x.9.t.q.! B w x.x.x.x.x.x.x.x.x.x.",
"x.x.x.x.x.x.x.x.x.x.x.x.x.x.x.x.x.x.x.x.x.x.x.x.x.x.x.x.x.x.x.b u.h.q.G z y x.x.x.x.x.x.x.x.x.x.",
"x.x.x.x.x.x.x.x.x.x.x.x.x.x.x.x.x.x.x.x.x.x.x.x.x.x.x.x.x.x.x.&.a.h.2.G z w x.x.x.x.x.x.x.x.x.x.",
"x.x.x.x.x.x.x.x.x.x.x.x.x.x.x.x.x.x.x.x.x.x.x.x.x.x.x.x.x.x.x.9.g.g.' D f q x.x.x.x.x.x.x.x.x.x.",
"x.x.x.x.x.x.x.x.x.x.x.x.x.x.x.x.x.x.x.x.x.x.x.x.x.x.x.x.x.x.:.f.r.q.^ S s < x.x.x.x.x.x.x.x.x.x.",
"x.x.x.x.x.x.x.x.x.x.x.x.x.x.x.x.x.x.x.x.x.x.x.x.x.x.x.x.x.&.a.h.f.' G p $ x.x.x.x.x.x.x.x.x.x.x.",
"x.x.x.x.x.x.x.x.x.x.q s s y c s & & * = x.x.x.x.x.x.x.x.;.s.h.g.5.^ l 2 > x.x.x.x.x.x.x.x.x.x.x.",
"x.x.x.x.x.x.x.x.x.q f F G ! D K -.-.n v t q 4 % * u &.y.h.d.r.e._ D e : x.x.x.x.x.x.x.x.x.x.x.x.",
"x.x.x.x.x.x.x.x.x.y S ! o.o.o.{ ] ` 1.1.0.0.9.9.0.a.d.g.g.r.o.^ G z q $ x.x.x.x.x.x.x.x.x.x.x.x.",
"x.x.x.x.x.x.x.x.x.w z ! ' o.o.o.5.O.o.o.5.5.e.r.t.t.e.e.o.{ _ F S f q x.x.x.x.x.x.x.x.x.x.x.x.x.",
"x.x.x.x.x.x.x.x.x.q p l F _ ] o.O.O.o.O.o.o.o.o.5.O.o.o.' ^ F z d < ; ; q , x.x.x.x.x.x.x.x.x.x.",
"x.x.x.x.x.x.x.x., 4 $ 2 e S ! ! _ [ [ [ o.o.o.o.o.[ _ ! F z l s < ; 6 V Z j r x.x.x.x.x.x.x.x.x.",
"x.x.x.x.x.x.x.q a N i q 2 i f S S D G D ! ! ! ! G F D B 2 # + 4 1 k ) 6./ Z a > < x.x.x.x.x.x.x.",
"x.x.x.x.x.x., a A / ( / g , < y s d i 7 7 B B z z z d 2 ; q 1 h W 6.8.6.( C a 5 C B x.x.x.x.x.x.",
"x.x.x.x.x.x.< l Q 4.j.6.4. .T h 6 2 : q > ; y y w w < $ 8 I / 4.6.8.7.4.Q Z a > R Q Z x.x.x.x.x.",
"x.x.x.x.x.x.> j R  .6.l.8.8.j.8.4.W E U P L L P P Y W  .6.j.k.l.l.7.X.( R j 5 @ R Q ~ s x.x.x.x.",
"x.x.x.x.x.x.: 7 N R ) 4.8.l.l.l.8.8.l.j.l.l.l.l.l.l.7.8.8.l.l.7.6. .~ j 1 # o : y A Q N x.x.x.x.",
"x.x.x.x.x.x.x.o # ; 7 R /  .4.6.6.8.8.8.k.l.k.k.l.l.7.7.6.6.X.| ~ C 0 1 o X x.x.x.f Q N x.x.x.x.",
"x.x.x.x.x.x.x.x.. o o 6 h M C R ~ ( Q !  . . . . . .) Q l V I k 9 3 o   + x.x.x.x.l Q l x.x.x.x.",
"x.x.x.x.x.x.x.x.x.x.. X - 1 3 7 9 6 3 5 i j M k M k 9 ; ; # # - # $ x.x.x.x.x.x.x.A Q p x.x.x.x.",
"x.x.x.x.x.x.x.x.x.x.x.x.x.x.@ $ + X # # o # 1 1 1 - . . # X . x.x.x.x.x.x.x.x.x.a ~ Z x.x.x.x.x.",
"x.x.x.x.x.x.x.x.x.x.x.x.x.x.x.x.x.x.x.x.x.x.x.x.x.x.x.x.x.x.x.x.x.x.x.x.x.x.x.x.F D x.x.x.x.x.x.",
"x.x.x.x.x.x.x.x.x.x.x.x.x.x.x.x.x.x.x.x.x.x.x.x.x.x.x.x.x.x.x.x.x.x.x.x.x.x.x.d N x.x.x.x.x.x.x.",
"x.x.x.x.x.x.x.x.x.x.x.x.x.x.x.x.x.x.x.x.x.x.x.x.x.x.x.x.x.x.x.x.x.x.x.x.x.x.x.x.x.x.x.x.x.x.x.x.",
"x.x.x.x.x.x.x.x.x.x.x.x.x.x.x.x.x.x.x.x.x.x.x.x.x.x.x.x.x.x.x.x.x.x.x.x.x.x.x.x.x.x.x.x.x.x.x.x.",
"x.x.x.x.x.x.x.x.x.x.x.x.x.x.x.x.x.x.x.x.x.x.x.x.x.x.x.x.x.x.x.x.x.x.x.x.x.x.x.x.x.x.x.x.x.x.x.x.",
"x.x.x.x.x.x.x.x.x.x.x.x.x.x.x.x.x.x.x.x.x.x.x.x.x.x.x.x.x.x.x.x.x.x.x.x.x.x.x.x.x.x.x.x.x.x.x.x.",
"x.x.x.x.x.x.x.x.x.x.x.x.x.x.x.x.x.x.x.x.x.x.x.x.x.x.x.x.x.x.x.x.x.x.x.x.x.x.x.x.x.x.x.x.x.x.x.x."
};
